<?xml version="1.0" standalone="no"?>
<!DOCTYPE svg PUBLIC "-//W3C//DTD SVG 20010904//EN"
 "http://www.w3.org/TR/2001/REC-SVG-20010904/DTD/svg10.dtd">
<svg version="1.0" xmlns="http://www.w3.org/2000/svg"
 width="700.000000pt" height="700.000000pt" viewBox="0 0 700.000000 700.000000"
 preserveAspectRatio="xMidYMid meet">
<metadata>
Created by potrace 1.14, written by Peter Selinger 2001-2017
</metadata>
<g transform="translate(0.000000,700.000000) scale(0.100000,-0.100000)"
fill="#000000" stroke="none">
<path d="M4715 5856 c-130 -31 -229 -80 -336 -169 -92 -77 -154 -165 -263
-373 -204 -390 -406 -688 -702 -1034 -134 -157 -477 -498 -659 -655 -775 -670
-1436 -1055 -2098 -1221 -101 -25 -120 -35 -98 -49 15 -8 180 13 314 41 153
32 661 171 842 230 316 104 617 239 874 394 260 156 461 312 690 535 413 403
728 871 1063 1579 190 401 283 506 480 537 155 24 325 -13 470 -104 63 -39
285 -195 487 -342 167 -121 -200 262 -450 471 -91 75 -177 122 -275 149 -82
23 -263 28 -339 11z"/>
<path d="M5290 5226 c-104 -30 -207 -102 -243 -170 -19 -35 -22 -57 -22 -146
1 -97 3 -111 35 -185 19 -44 63 -123 99 -175 154 -226 260 -383 265 -394 9
-20 32 20 62 108 l28 84 -130 129 c-138 136 -220 246 -249 333 -21 63 -17 159
9 213 23 47 90 100 164 128 63 24 242 58 312 59 41 1 43 2 20 12 -41 16 -298
20 -350 4z"/>
<path d="M5550 4228 c-81 -225 -209 -379 -385 -463 -133 -64 -212 -80 -380
-79 -225 1 -351 41 -512 163 -87 66 -225 205 -292 296 -25 33 -49 64 -53 70
-5 5 -1 -15 8 -45 34 -114 127 -270 222 -372 l45 -48 -36 -122 c-51 -173 -69
-284 -70 -423 0 -305 125 -484 390 -557 152 -42 505 -26 738 33 271 69 483
215 592 409 45 80 97 226 107 300 l7 45 -18 -31 c-101 -176 -306 -312 -603
-401 -86 -25 -110 -28 -245 -28 -178 0 -254 19 -356 88 -84 55 -125 113 -178
246 -53 134 -108 220 -168 266 -59 45 -48 44 41 -2 102 -54 149 -108 230 -261
106 -204 154 -240 325 -249 161 -9 354 25 508 90 215 91 403 274 465 451 42
122 6 261 -109 423 -46 64 -229 263 -243 263 -4 0 -18 -28 -30 -62z"/>
<path d="M4040 2689 c-260 -72 -590 -124 -865 -135 -180 -7 -437 10 -763 51
-268 33 -272 34 -272 28 0 -11 294 -144 390 -177 132 -44 320 -90 470 -113
146 -23 595 -25 735 -5 226 34 427 88 614 165 l124 51 -49 16 c-73 25 -144 63
-202 109 -28 23 -57 41 -64 40 -7 0 -60 -14 -118 -30z"/>
<path d="M5470 2659 c-30 -19 -258 -87 -331 -99 -74 -12 -76 -13 -189 -107
-216 -178 -434 -309 -645 -388 -594 -222 -1275 -146 -2020 224 -88 44 -193 98
-234 121 -40 23 -70 37 -66 30 16 -25 266 -226 364 -292 119 -79 398 -219 545
-273 218 -80 488 -139 692 -152 l100 -6 162 -230 c89 -126 161 -231 160 -233
-2 -1 -85 7 -186 18 -101 11 -186 18 -188 15 -3 -2 -3 -44 -2 -93 l3 -89 422
45 c232 24 420 46 418 48 -2 2 -101 15 -220 27 -119 13 -218 25 -219 27 -2 2
-38 102 -81 223 -43 121 -80 225 -82 231 -3 7 28 13 88 18 209 16 448 80 665
178 279 127 445 254 681 522 148 170 219 272 163 235z"/>
</g>
</svg>
