<svg id="コンポーネント_1_53" data-name="コンポーネント 1 – 53" xmlns="http://www.w3.org/2000/svg" width="119.183" height="131.458" viewBox="0 0 119.183 131.458">
  <g id="合体_1" data-name="合体 1" fill="#fff">
    <path d="M 60.10066604614258 112.4494476318359 L 57.78775024414062 108.4403305053711 L 52.51030731201172 107.6715850830078 C 28.84555625915527 104.224494934082 11.00000095367432 83.55424499511719 11.00000095367432 59.59080505371094 C 11.00000095367432 32.79774856567383 32.79814147949219 10.99999809265137 59.59169769287109 10.99999809265137 C 86.38475036621094 10.99999809265137 108.182502746582 32.79774856567383 108.182502746582 59.59080505371094 C 108.182502746582 83.48263549804688 91.10836029052734 103.6439971923828 67.58403015136719 107.530029296875 L 62.44941711425781 108.3782196044922 L 60.10066604614258 112.4494476318359 Z" stroke="none"/>
    <path d="M 59.95912170410156 97.6405029296875 L 65.79121398925781 96.67709350585938 C 83.98056030273438 93.67236328125 97.18251800537109 78.07532501220703 97.18251800537109 59.59078598022461 C 97.18251800537109 38.8631706237793 80.31936645507812 22.0000171661377 59.59171295166016 22.0000171661377 C 38.86359786987305 22.0000171661377 22.00002098083496 38.8631706237793 22.00002098083496 59.59078598022461 C 22.00002098083496 78.13051605224609 35.79825210571289 94.12117004394531 54.09586715698242 96.78643798828125 L 59.95912170410156 97.6405029296875 M 60.10063552856445 131.4585113525391 C 59.08994293212891 131.4585113525391 58.07925033569336 130.9580993652344 57.50190353393555 129.9573211669922 L 50.92475128173828 118.5567092895508 C 22.1198673248291 114.3609008789062 2.060406040982343e-05 89.55921173095703 2.060406040982343e-05 59.59078598022461 C 2.060406040982343e-05 26.67959403991699 26.68048286437988 1.727764356473926e-05 59.59171295166016 1.727764356473926e-05 C 92.50290679931641 1.727764356473926e-05 119.1825180053711 26.67959403991699 119.1825180053711 59.59078598022461 C 119.1825180053711 89.16951751708984 97.63290405273438 113.7152862548828 69.3768310546875 118.382942199707 L 62.69940567016602 129.9573211669922 C 62.1220588684082 130.9580993652344 61.11136627197266 131.4585113525391 60.10063552856445 131.4585113525391 Z" stroke="none" fill="#f63759"/>
  </g>
  <g id="グループ_307" data-name="グループ 307" transform="translate(43.547 43.802)">
    <g id="楕円形_2" data-name="楕円形 2" fill="#fff" stroke="#f63759" stroke-width="4">
      <circle cx="13.752" cy="13.752" r="13.752" stroke="none"/>
      <circle cx="13.752" cy="13.752" r="11.752" fill="none"/>
    </g>
    <line id="線_1" data-name="線 1" x2="8.149" y2="6.112" transform="translate(23.938 21.901)" fill="none" stroke="#f63759" stroke-linecap="round" stroke-width="5"/>
  </g>
</svg>
