<?xml version="1.0" standalone="no"?>
<!DOCTYPE svg PUBLIC "-//W3C//DTD SVG 20010904//EN"
 "http://www.w3.org/TR/2001/REC-SVG-20010904/DTD/svg10.dtd">
<svg version="1.0" xmlns="http://www.w3.org/2000/svg"
 width="700.000000pt" height="700.000000pt" viewBox="0 0 700.000000 700.000000"
 preserveAspectRatio="xMidYMid meet">
<metadata>
Created by potrace 1.14, written by Peter Selinger 2001-2017
</metadata>
<g transform="translate(0.000000,700.000000) scale(0.100000,-0.100000)"
fill="#000000" stroke="none">
<path d="M5333 5445 c-96 -21 -144 -47 -221 -120 -79 -74 -140 -164 -180 -264
l-27 -66 3 -248 c3 -236 2 -250 -18 -292 -38 -77 -127 -143 -227 -165 -90 -21
-119 -9 -317 123 -275 184 -380 301 -443 492 -21 66 -26 100 -27 194 l-1 113
-65 -6 c-36 -3 -84 -6 -107 -6 -31 0 -43 -4 -47 -17 -3 -10 -24 -117 -47 -238
-22 -121 -56 -267 -75 -325 -97 -302 -278 -524 -502 -615 -183 -74 -478 -67
-702 18 -152 57 -327 162 -438 263 l-61 55 -50 -67 -51 -67 84 -87 c88 -92
108 -128 144 -269 22 -85 24 -486 4 -601 -56 -315 -162 -510 -277 -510 -31 0
-85 26 -179 87 l-69 45 -52 -54 c-28 -29 -145 -148 -258 -264 -190 -194 -207
-214 -207 -247 0 -21 6 -37 15 -41 8 -3 146 8 307 24 364 36 616 55 625 46 11
-10 -21 -67 -67 -119 -24 -27 -96 -93 -161 -148 -64 -54 -133 -118 -152 -141
-97 -120 -147 -248 -150 -383 l-2 -80 70 1 c54 1 88 8 149 33 348 141 769 429
941 643 33 40 60 75 61 76 2 2 53 15 116 28 393 83 862 248 1273 448 226 110
338 173 481 271 l92 62 6 -66 c17 -175 4 -598 -23 -744 -15 -84 24 -140 82
-118 57 23 409 334 607 538 267 274 423 496 475 675 22 78 21 176 -3 230 -28
64 -131 186 -208 247 -38 30 -73 58 -77 61 -4 4 63 123 149 266 186 308 301
510 394 689 93 182 110 231 110 318 0 61 -5 80 -30 123 -35 62 -85 103 -173
145 -132 61 -350 85 -494 54z m-1147 -1200 c267 -167 321 -212 348 -292 34
-99 20 -142 -87 -269 -218 -261 -584 -534 -715 -534 -89 0 -161 55 -221 172
-24 45 -75 139 -113 207 -98 176 -114 256 -73 358 21 49 390 453 444 485 36
22 59 28 107 28 l60 0 250 -155z m-1186 -517 c109 -26 156 -68 206 -184 128
-294 132 -507 12 -620 -40 -38 -139 -89 -269 -137 -168 -63 -512 -121 -677
-115 l-93 3 -39 41 c-50 54 -65 121 -56 264 20 346 134 608 302 693 124 63
457 92 614 55z"/>
<path d="M3829 4291 c-14 -5 -35 -13 -46 -19 -26 -14 -333 -354 -352 -391 -20
-37 -17 -136 6 -197 24 -62 176 -318 211 -357 39 -41 90 -51 165 -32 160 40
408 251 558 473 42 63 49 81 49 121 0 77 -25 103 -210 219 -314 195 -324 200
-381 183z"/>
<path d="M2610 3624 c-110 -20 -159 -42 -218 -98 -201 -189 -273 -632 -119
-726 39 -24 90 -25 255 -5 253 31 465 100 561 181 98 82 106 260 23 467 -48
118 -98 162 -210 186 -69 14 -198 12 -292 -5z"/>
<path d="M3984 5163 c-23 -156 39 -353 144 -456 79 -77 381 -285 439 -303 158
-47 264 103 250 353 -8 148 -15 164 -100 224 -178 126 -395 198 -669 222 l-57
5 -7 -45z"/>
<path d="M3429 5179 c-240 -25 -719 -180 -949 -307 -165 -91 -308 -202 -455
-352 l-90 -93 55 -49 c182 -163 447 -282 657 -295 284 -18 523 107 688 361
108 165 154 301 184 547 25 201 25 199 4 198 -10 -1 -52 -5 -94 -10z"/>
<path d="M1606 4013 c-95 -148 -166 -319 -197 -478 -8 -40 -14 -132 -14 -215
0 -120 4 -162 24 -244 15 -59 33 -109 47 -125 28 -33 107 -77 156 -86 143 -27
233 195 258 639 13 226 -8 346 -81 452 -33 49 -116 124 -136 124 -7 0 -33 -30
-57 -67z"/>
</g>
</svg>
