<?xml version="1.0" standalone="no"?>
<!DOCTYPE svg PUBLIC "-//W3C//DTD SVG 20010904//EN"
 "http://www.w3.org/TR/2001/REC-SVG-20010904/DTD/svg10.dtd">
<svg version="1.0" xmlns="http://www.w3.org/2000/svg"
 width="700.000000pt" height="700.000000pt" viewBox="0 0 700.000000 700.000000"
 preserveAspectRatio="xMidYMid meet">
<metadata>
Created by potrace 1.14, written by Peter Selinger 2001-2017
</metadata>
<g transform="translate(0.000000,700.000000) scale(0.100000,-0.100000)"
fill="#000000" stroke="none">
<path d="M3260 5049 c-441 -49 -644 -116 -933 -307 -53 -35 -99 -68 -102 -71
-7 -12 96 -143 170 -216 186 -184 377 -280 586 -292 305 -18 595 175 754 502
59 122 152 362 143 371 -23 22 -450 32 -618 13z"/>
<path d="M3972 4983 c-127 -302 -162 -379 -202 -449 -116 -202 -267 -349 -434
-424 -116 -52 -219 -66 -362 -50 -177 19 -323 72 -475 172 -106 70 -262 220
-333 321 -26 37 -50 67 -53 67 -3 0 -34 -23 -69 -51 -38 -30 -61 -55 -57 -62
3 -7 24 -38 46 -70 76 -114 82 -135 82 -297 -1 -165 -15 -248 -76 -432 -102
-314 -259 -538 -377 -538 -49 0 -80 20 -160 104 l-71 75 -296 -191 c-163 -105
-303 -201 -312 -214 -17 -26 -10 -59 14 -68 8 -4 138 -22 287 -41 312 -41 518
-72 561 -84 l30 -9 -56 -53 c-38 -37 -93 -74 -170 -113 -246 -127 -330 -200
-405 -351 -51 -102 -65 -164 -41 -184 25 -20 163 -14 299 13 344 70 752 244
937 400 l44 37 111 -6 c121 -8 413 7 626 30 407 46 868 146 1145 250 53 20 99
34 102 31 7 -7 -20 -169 -53 -316 -24 -104 -72 -256 -135 -426 -22 -59 -22
-62 -6 -88 13 -20 26 -26 53 -26 41 0 175 62 384 177 500 275 812 527 918 741
31 64 36 84 37 146 0 65 -4 79 -47 166 -26 52 -72 126 -103 164 l-55 69 208
211 c349 355 579 619 643 739 43 81 46 166 10 241 -77 156 -331 286 -567 290
-99 1 -101 1 -186 -41 -98 -49 -206 -143 -264 -230 -45 -68 -68 -138 -95 -292
-33 -192 -47 -230 -99 -282 -54 -54 -118 -79 -202 -79 -101 0 -124 16 -288
197 -166 182 -225 269 -266 388 -24 70 -28 95 -28 195 1 90 5 129 22 180 12
35 19 66 17 68 -6 6 -168 41 -191 42 -16 0 -27 -12 -42 -47z m87 -770 c13 -8
113 -103 222 -210 215 -211 240 -247 247 -343 6 -78 -14 -117 -89 -181 -166
-137 -409 -273 -612 -341 -102 -34 -130 -39 -183 -36 -68 4 -122 35 -148 87
-8 15 -42 127 -75 249 -75 273 -78 339 -19 424 25 36 474 353 518 366 42 13
106 6 139 -15z m-1219 -359 c171 -29 309 -94 345 -164 50 -96 68 -396 32 -515
-38 -122 -100 -180 -232 -217 -74 -20 -102 -22 -355 -22 -294 -1 -474 17 -534
52 -85 50 -93 135 -29 327 106 317 248 503 422 552 54 15 220 9 351 -13z"/>
<path d="M3912 4129 c-29 -11 -356 -242 -395 -278 -38 -35 -61 -117 -52 -186
8 -65 98 -368 118 -399 75 -114 358 -47 633 150 117 84 180 141 198 178 21 45
21 124 -2 157 -29 45 -368 368 -396 379 -33 12 -73 12 -104 -1z"/>
<path d="M2482 3755 c-173 -87 -335 -344 -336 -535 -1 -82 16 -128 58 -155 39
-26 183 -46 367 -52 181 -6 261 2 369 35 71 22 150 97 169 162 33 112 31 290
-4 386 -43 114 -231 194 -461 194 -85 0 -97 -3 -162 -35z"/>
<path d="M4287 4931 c-55 -137 -45 -338 22 -457 16 -27 95 -125 175 -216 152
-173 196 -208 265 -208 131 0 241 186 242 407 l1 75 -50 56 c-137 158 -365
300 -589 365 l-51 15 -15 -37z"/>
<path d="M1835 4360 c-164 -157 -299 -380 -349 -575 -36 -142 -43 -323 -14
-380 16 -30 89 -105 120 -121 66 -35 145 0 208 91 72 105 167 346 220 559 44
176 15 344 -74 443 l-43 47 -68 -64z"/>
</g>
</svg>
