<?xml version="1.0" standalone="no"?>
<!DOCTYPE svg PUBLIC "-//W3C//DTD SVG 20010904//EN"
 "http://www.w3.org/TR/2001/REC-SVG-20010904/DTD/svg10.dtd">
<svg version="1.0" xmlns="http://www.w3.org/2000/svg"
 width="700.000000pt" height="700.000000pt" viewBox="0 0 700.000000 700.000000"
 preserveAspectRatio="xMidYMid meet">
<metadata>
Created by potrace 1.14, written by Peter Selinger 2001-2017
</metadata>
<g transform="translate(0.000000,700.000000) scale(0.100000,-0.100000)"
fill="#000000" stroke="none">
<path d="M5334 5177 c-77 -20 -141 -62 -225 -147 -60 -61 -86 -99 -124 -175
l-48 -97 -9 -227 c-4 -124 -13 -241 -19 -260 -16 -48 -84 -118 -143 -148 -60
-31 -156 -41 -210 -23 -58 19 -387 280 -450 357 -126 152 -182 346 -153 526
l8 48 -113 -3 -113 -3 -47 -200 c-78 -332 -138 -483 -258 -644 -140 -189 -302
-286 -518 -311 -314 -37 -674 102 -944 363 l-58 55 -56 -64 -56 -64 69 -73
c38 -40 79 -94 91 -120 108 -229 66 -752 -84 -1062 -16 -33 -52 -84 -80 -112
-46 -49 -54 -53 -96 -53 -46 0 -114 36 -210 112 l-37 29 -270 -246 c-148 -136
-271 -255 -274 -266 -7 -25 2 -57 16 -61 7 -2 129 1 272 8 307 15 635 17 635
6 0 -25 -73 -112 -135 -161 -39 -31 -109 -85 -155 -121 -102 -79 -172 -162
-216 -254 -37 -77 -67 -196 -62 -247 l3 -34 62 -3 c88 -4 243 49 463 159 293
147 525 312 674 478 l39 44 125 19 c563 83 1408 384 1769 630 23 15 44 28 47
28 10 0 7 -328 -4 -450 -6 -63 -20 -167 -32 -230 -33 -184 -33 -176 -4 -205
38 -37 58 -30 199 73 214 156 399 314 583 497 305 303 424 492 424 673 0 55
-5 79 -26 118 -39 75 -130 189 -187 236 -29 23 -56 45 -61 49 -4 4 41 76 101
161 243 340 478 709 566 887 50 101 61 191 32 267 -36 94 -165 184 -324 225
-97 26 -304 34 -377 16z m-1383 -950 c57 -19 503 -342 531 -385 51 -78 62
-165 29 -230 -10 -20 -75 -91 -143 -157 -179 -176 -336 -291 -520 -381 -82
-40 -99 -45 -145 -41 -35 2 -68 13 -100 33 -53 33 -51 30 -187 318 -81 171
-89 195 -90 250 -2 111 11 129 252 368 180 178 224 217 257 226 52 13 72 13
116 -1z m-966 -598 c106 -25 152 -58 189 -134 106 -217 136 -459 73 -581 -14
-29 -43 -66 -64 -83 -45 -37 -211 -104 -338 -136 -163 -41 -489 -73 -612 -60
-60 6 -72 11 -104 44 -63 63 -71 155 -33 371 49 279 161 478 307 549 120 59
403 73 582 30z"/>
<path d="M3820 4129 c-30 -12 -366 -343 -386 -381 -19 -36 -18 -144 1 -199 22
-63 163 -319 193 -351 71 -77 206 -54 385 66 146 96 355 311 393 402 18 44 11
102 -17 138 -20 26 -411 301 -458 323 -31 15 -77 15 -111 2z"/>
<path d="M2572 3546 c-133 -26 -227 -111 -308 -281 -54 -114 -77 -206 -78
-316 0 -73 4 -93 24 -134 41 -78 68 -88 230 -81 236 9 427 47 557 111 128 63
171 145 160 305 -7 89 -36 210 -68 272 -23 46 -80 93 -138 114 -62 23 -281 28
-379 10z"/>
<path d="M3344 5010 c-296 -45 -684 -173 -898 -296 -109 -62 -244 -166 -352
-269 l-89 -85 65 -60 c94 -86 205 -164 313 -219 477 -243 949 -35 1154 508 13
35 37 139 54 230 16 91 31 176 34 189 5 21 3 22 -77 21 -46 0 -137 -9 -204
-19z"/>
<path d="M4046 4989 c-3 -17 -6 -70 -6 -118 0 -137 41 -254 120 -345 45 -51
363 -304 403 -321 119 -50 222 15 269 168 17 58 20 87 16 185 -2 64 -10 127
-16 139 -20 37 -169 141 -276 193 -111 54 -228 91 -363 115 -129 22 -139 21
-147 -16z"/>
<path d="M1662 3983 c-182 -249 -268 -541 -241 -820 14 -148 30 -194 87 -242
55 -48 128 -76 173 -66 42 10 96 67 130 140 58 123 105 364 116 594 6 139 -6
212 -52 307 -26 53 -123 154 -148 154 -9 0 -37 -30 -65 -67z"/>
</g>
</svg>
