<svg id="グループ_460" data-name="グループ 460" xmlns="http://www.w3.org/2000/svg" width="252.459" height="133.27" viewBox="0 0 252.459 133.27">
  <path id="パス_318" data-name="パス 318" d="M-1098.386-168.722c16.807,0,28.1-10,28.1-24.873,0-9.3-4.795-16.247-13.36-19.691a18.438,18.438,0,0,0,11.747-17.738c0-12.566-10.892-21.343-26.488-21.343-13.617,0-23.317,6.588-26.614,18.075a1.972,1.972,0,0,0,1.348,2.439l12.915,3.733a1.972,1.972,0,0,0,1.6-.225,1.968,1.968,0,0,0,.9-1.341c.965-5.706,4.394-8.849,9.658-8.849,6.056,0,9.529,3.179,9.529,8.723,0,6.819-4.339,10.134-13.263,10.134h-5.648a1.971,1.971,0,0,0-1.972,1.972v10.39a1.971,1.971,0,0,0,1.972,1.972h6.153c9.667,0,14.17,3.767,14.17,11.851,0,6.749-4.155,10.941-10.841,10.941-6.315,0-9.427-2.607-11.1-9.3a1.971,1.971,0,0,0-.924-1.228,1.979,1.979,0,0,0-1.524-.192l-12.913,3.631a1.975,1.975,0,0,0-1.2.953,1.974,1.974,0,0,0-.155,1.521C-1122.515-174.755-1113.384-168.722-1098.386-168.722Z" transform="translate(1186.372 252.367)"/>
  <path id="パス_319" data-name="パス 319" d="M-1073.694-170.134h24.415c25.682,0,41.015-15.56,41.015-41.622,0-26.188-13.922-40.612-39.2-40.612h-26.23a1.972,1.972,0,0,0-1.972,1.972v78.289A1.972,1.972,0,0,0-1073.694-170.134Zm24.818-67.8c15.173,0,22.24,8.35,22.24,26.277,0,17.971-7.72,27.082-22.946,27.082h-8.622V-237.93Z" transform="translate(1202.335 252.367)"/>
  <path id="パス_320" data-name="パス 320" d="M-995.551-229.474a1.162,1.162,0,0,0-.833,2.168c27.7,11.734,60.535,32.927,9.466,54.815-30.057,12.882-55.788,16.395-75.975,15.9v19.065c43.729-7.911,107.84-24.942,108.871-56.9C-954.023-194.422-949.413-214.014-995.551-229.474Z" transform="translate(1206.355 259.55)"/>
  <path id="パス_321" data-name="パス 321" d="M-1068.682-156.573c-19.257-.255-42.988-4.211-70.306-15.919-51.069-21.888-18.233-43.081,9.466-54.815a1.162,1.162,0,0,0-.834-2.168c-46.138,15.46-41.528,35.052-41.528,35.052.978,30.3,58.68,47.184,101.935,55.6l-.9,12.546,37.6-18.8-34.463-25.064Z" transform="translate(1172.012 259.55)"/>
</svg>
