<svg width="157" height="157" xmlns="http://www.w3.org/2000/svg" xml:space="preserve" version="1.1">
 <g>
  <title>Layer 1</title>
  <g id="MIgid4">
   <g id="グループ_438">
    <path fill="#FFFFFF" d="m157.2,125.83765c0,5.7 0.1,11.4 0,17.1c-0.2,4.7 -2.6,9 -6.6,11.6c-2.5,1.8 -5.4,2.8 -8.5,2.7c-10.9,0 -21.8,0 -32.6,0c-6,0 -12,-4.4 -13.7,-9.7c-0.7,-2.1 -1.2,-4.2 -1.3,-6.4c-0.1,-10.1 -0.1,-20.3 0,-30.4c0.1,-5.6 2.2,-10.3 7,-13.6c2.7,-1.8 5.8,-2.7 9,-2.7c10.3,-0.1 20.6,-0.1 31,0c6.8,0.1 11.8,3.3 14.7,9.6c0.7,1.5 1.1,3.2 1.1,4.9c0,5.6 -0.1,11.3 -0.1,16.9zm-47.1,0c0,4.7 0,9.4 0,14.2c0,1.3 0.3,1.9 1.7,1.9c9.4,0 18.8,0 28.2,0c1.3,0 1.8,-0.5 1.7,-1.8c0,-9.4 0,-18.8 0,-28.2c0,-1.3 -0.5,-1.7 -1.8,-1.7c-9.4,0 -18.9,0 -28.3,0c-1.2,0 -1.6,0.4 -1.6,1.6c0.1,4.6 0.1,9.3 0.1,14z" class="st0" id="パス_348"/>
    <path fill="#FFFFFF" d="m0.1,31.43765c0,-5.7 -0.2,-11.4 0.1,-17.1c0.2,-4.7 2.7,-9 6.6,-11.5c2.4,-1.7 5.4,-2.7 8.4,-2.7c11,0 22,0 32.9,0c6,0.2 11.4,4 13.5,9.7c0.8,2.1 1.2,4.4 1.3,6.7c0.1,9.9 0.1,19.8 0,29.7c0,5.1 -1.6,9.6 -5.6,13c-2.9,2.5 -6.6,3.8 -10.5,3.7c-10.3,0.1 -20.6,0.1 -30.8,0c-6.9,-0.1 -12,-3.4 -14.8,-9.7c-0.7,-1.5 -1,-3.1 -1.1,-4.7c-0.1,-5.7 0,-11.4 0,-17.1zm47.1,0.2c0,-4.7 0,-9.4 0,-14.2c0,-1.3 -0.3,-1.9 -1.7,-1.9c-9.4,0 -18.8,0 -28.2,0c-1.3,0 -1.8,0.5 -1.8,1.8c0,9.4 0,18.8 0,28.2c0,1.3 0.5,1.7 1.7,1.7c9.4,0 18.9,0 28.3,0c1.2,0 1.6,-0.4 1.6,-1.6c0,-4.7 0.1,-9.4 0.1,-14z" class="st0" id="パス_349"/>
    <path fill="#FFFFFF" d="m105.7,23.53765c1,0.1 1.6,0.1 2.2,0.1c8.7,0 17.4,0 26.1,0c6.6,0 12.9,2.8 17.3,7.8c3.7,4 5.9,9.2 5.9,14.7c0.1,8.2 0,16.4 0.1,24.7c0.1,3.3 -2,6.2 -5.1,7.3c-3.8,1 -6.3,0.4 -8.8,-2.5c-1.4,-1.6 -1.6,-3.6 -1.6,-5.7c0,-7.3 0,-14.7 0,-22c0,-3.5 -1.4,-6.3 -4.6,-7.8c-1.3,-0.5 -2.7,-0.8 -4.1,-0.8c-8.5,-0.1 -17.1,-0.1 -25.6,0c-0.4,0.1 -0.8,0.2 -1.1,0.3c0.1,0.4 0.3,0.8 0.6,1.1c2.9,3 5.9,6 8.9,8.9c3,3.2 2.8,8.3 -0.4,11.3c-0.1,0.1 -0.1,0.1 -0.2,0.2c-3.2,2.5 -7.8,2.3 -10.7,-0.7c-8,-7.7 -15.6,-15.5 -23.4,-23.2c-3.1,-3.2 -3.1,-8.3 0,-11.6c7.8,-7.6 15.6,-15.5 23.4,-23.3c3,-3.1 7.9,-3.1 11,-0.1c0.9,0.8 1.5,1.9 1.9,3c1.1,2.9 0.3,6.2 -2,8.3c-2.8,2.8 -5.5,5.5 -8.3,8.3c-0.4,0.4 -0.8,0.9 -1.5,1.7z" class="st0" id="パス_350"/>
    <path fill="#FFFFFF" d="m51.6,133.93765c-1.1,-0.1 -1.7,-0.2 -2.3,-0.2c-8.6,0 -17.3,0 -25.9,0c-6.6,0 -12.8,-2.8 -17.2,-7.7c-3.8,-4 -6,-9.4 -6,-14.9c-0.2,-8.3 -0.1,-16.5 -0.2,-24.7c0.1,-3.5 2.4,-6.4 5.8,-7.4c4.6,-0.8 7.6,0.8 9.3,4.6c0.4,1.3 0.6,2.7 0.5,4.1c0,7.2 0,14.5 0,21.7c0,3.4 1.4,6.2 4.6,7.7c1.2,0.5 2.5,0.8 3.8,0.8c8.7,0.1 17.4,0.1 26.1,0.1c0.4,-0.1 0.8,-0.2 1.1,-0.4c-0.2,-0.4 -0.3,-0.7 -0.6,-1c-3,-3 -6,-6 -9,-9c-3,-3.3 -2.7,-8.3 0.5,-11.3l0.1,-0.1c3.2,-2.6 7.9,-2.3 10.8,0.7c7.8,7.7 15.4,15.5 23.2,23.2c3,3.2 3,8.1 0.1,11.3c-7.9,7.8 -15.7,15.6 -23.5,23.5c-3,3.1 -7.9,3.2 -11,0.2c-0.9,-0.8 -1.5,-1.9 -1.9,-3c-1.1,-2.5 -0.6,-5.4 1.2,-7.4c2.7,-3 5.7,-5.8 8.5,-8.7c0.5,-0.6 1.1,-1.2 2,-2.1z" class="st0" id="パス_351"/>
   </g>
  </g>
 </g>
</svg>
