<svg xmlns="http://www.w3.org/2000/svg" xmlns:xlink="http://www.w3.org/1999/xlink" width="200" height="200" viewBox="0 0 200 200">
  <defs>
    <clipPath id="clip-path">
      <rect id="長方形_8049" data-name="長方形 8049" width="103.697" height="180.268"/>
    </clipPath>
    <clipPath id="clip-commonmenu-icon1">
      <rect width="200" height="200"/>
    </clipPath>
  </defs>
  <g id="commonmenu-icon1" clip-path="url(#clip-commonmenu-icon1)">
    <g id="グループ_56237" data-name="グループ 56237" transform="translate(37.775 9.866)">
      <g id="グループ_56236" data-name="グループ 56236" transform="translate(0 0)" clip-path="url(#clip-path)">
        <path id="パス_104582" data-name="パス 104582" d="M45.46,11.18C23.438,8.243,8.223,25.214,4.49,29.887A1.174,1.174,0,0,0,4.9,31.678l11.462,5.5A1.174,1.174,0,0,0,17.8,36.82,95.05,95.05,0,0,1,45.73,12.456a.686.686,0,0,0-.27-1.277" transform="translate(9.381 24.021)"/>
        <path id="パス_104583" data-name="パス 104583" d="M9.958.534C16.046-.531,43.381-3.361,41.487,32.075a.8.8,0,0,1-1.109.7C36.158,30.95,20.047,22.849,9.309,1.849A.915.915,0,0,1,9.958.534" transform="translate(20.406 -0.001)"/>
        <path id="パス_104584" data-name="パス 104584" d="M42.563,55.617c2.573-17.208-3.634-30.156-19.225-31.175a2.4,2.4,0,0,0-2.177,1.148l-7.4,11.867a.568.568,0,0,0,.566.865c3.779-.6,14.993-1.659,17.8,6.384a43.287,43.287,0,0,1,1.528,21.286.785.785,0,0,1-1.274.489c-1.91-1.521-5.219-1.618-7.692-.733-3.7,1.322-.624-20.321-12.111-18.488A9.432,9.432,0,0,0,5.9,52.077C3.277,56.8-2.962,68.272,1.653,73.668c6.438,7.535,24.328,8.808,33.384-1.183,3.058-3.505,6.753-11.706,7.525-16.867" transform="translate(0 54.15)"/>
        <path id="パス_104585" data-name="パス 104585" d="M33.13,90.143c0-22.56,15.957-30.316,27.515-60.62a.446.446,0,0,0-.778-.421C43.887,52.491,17.961,67.7,18.848,89.908c0,0,.8,22.614,25.576,26.3a.69.69,0,0,0,.5-1.257c-4.374-2.856-11.79-9.911-11.79-24.8" transform="translate(41.717 64.053)"/>
        <path id="パス_104586" data-name="パス 104586" d="M15.42,21.3l11.2-8.725a1.086,1.086,0,0,1,1.3-.029C31.4,15.033,47.068,27.674,43.048,51.231c-4.605,26.988-24.315,42.5-20.212,70.654a.363.363,0,0,1-.653.277c-2.02-3.017-6.3-12.484.888-32.047,17.781-48.351-1.814-63.7-7.535-67A1.09,1.09,0,0,1,15.42,21.3" transform="translate(33.224 27.359)"/>
        <path id="パス_104587" data-name="パス 104587" d="M24.858,10.826a.647.647,0,0,0-.283,1.209c28.419,15.957,21.968,44.6,7.972,68.486-3.8,6.493-10.387,17.215-13.61,29.162a.567.567,0,0,0,1.036.434,159.728,159.728,0,0,1,19.221-25.57C57.769,63.979,62.979,53.486,61.561,37.519,59.226,11.2,32.778,10.453,24.858,10.826" transform="translate(41.914 23.866)"/>
        <path id="パス_104588" data-name="パス 104588" d="M10.19,26.071l6.187-7.59a.953.953,0,0,1,.955-.338c2.325.521,10.886,3.431,15.44,18.594a37.512,37.512,0,0,1-3.193,28.525.776.776,0,0,1-1.454-.428c.5-7.9-.145-27.75-17.556-37a1.163,1.163,0,0,1-.379-1.762" transform="translate(22.011 40.153)"/>
      </g>
    </g>
  </g>
</svg>
