<svg xmlns="http://www.w3.org/2000/svg" xmlns:xlink="http://www.w3.org/1999/xlink" width="200" height="200" viewBox="0 0 200 200">
  <defs>
    <clipPath id="clip-commonmenu-icon3">
      <rect width="200" height="200"/>
    </clipPath>
  </defs>
  <g id="commonmenu-icon3" clip-path="url(#clip-commonmenu-icon3)">
    <g id="グループ_56234" data-name="グループ 56234" transform="translate(-881.446 -419.961)">
      <path id="パス_104362" data-name="パス 104362" d="M179.006,111s16.518-13.348,27.274-6.089,22,36.151,22,36.151L217.219,138.4c-13.62-3.279-27.2-6.939-33.837-19.275Z" transform="translate(836.943 367.824)"/>
      <path id="パス_104363" data-name="パス 104363" d="M186.11,111s-16.518-13.348-27.274-6.089-22,36.151-22,36.151L147.9,138.4c13.62-3.279,27.2-6.939,33.837-19.275Z" transform="translate(760.835 367.824)"/>
      <path id="パス_104397" data-name="パス 104397" d="M202.679,213.244a55.909,55.909,0,1,1,55.912-55.906,55.97,55.97,0,0,1-55.912,55.906m0-94.989a39.08,39.08,0,1,0,39.082,39.083,39.125,39.125,0,0,0-39.082-39.083" transform="translate(778.763 365.441)"/>
      <path id="パス_104401" data-name="パス 104401" d="M214.233,157.409a8.356,8.356,0,0,1-4.16-1.108L183.831,141.34a8.415,8.415,0,1,1,8.339-14.619l26.239,14.961a8.416,8.416,0,0,1-4.176,15.727" transform="translate(837.989 409.094)"/>
      <path id="パス_104402" data-name="パス 104402" d="M160.324,124.069c0-16.857,7.929-30.525,17.713-30.525s17.71,13.668,17.71,30.525" transform="translate(803.225 351.215)"/>
      <path id="パス_104403" data-name="パス 104403" d="M162.042,131.258s-17.541,20.3-9.082,44.185c0,0,17.25-3.416,28.649-31.355Z" transform="translate(785.773 419.282)"/>
      <path id="パス_104404" data-name="パス 104404" d="M192.295,131.312s16.835,20.9,7.553,44.471c0,0-17.118-4.008-27.549-32.323Z" transform="translate(824.838 419.38)"/>
    </g>
  </g>
</svg>
