<?xml version="1.0" encoding="utf-8"?>
<!-- Generator: Adobe Illustrator 27.5.0, SVG Export Plug-In . SVG Version: 6.00 Build 0)  -->
<svg version="1.1" id="レイヤー_1" xmlns="http://www.w3.org/2000/svg" xmlns:xlink="http://www.w3.org/1999/xlink" x="0px"
	 y="0px" viewBox="0 0 200 200" style="enable-background:new 0 0 200 200;" xml:space="preserve">
<style type="text/css">
	.st0{fill:#E60000;}
	.st1{fill:#FFFFFF;}
</style>
<g>
	<g>
		<path id="パス_104582" class="st0" d="M99.6,45.1c-22-2.9-37.2,14-41,18.7c-0.4,0.5-0.3,1.2,0.2,1.6c0.1,0.1,0.1,0.1,0.2,0.1
			L70.5,71c0.5,0.2,1.1,0.1,1.4-0.4c7.6-9.9,17.1-18.2,27.9-24.4c0.3-0.2,0.4-0.6,0.3-0.9C100,45.2,99.8,45.1,99.6,45.1"/>
		<path id="パス_104583" class="st0" d="M75.1,10.4c6.1-1.1,33.4-3.9,31.5,31.5c0,0.4-0.4,0.8-0.8,0.8c-0.1,0-0.2,0-0.3-0.1
			c-4.2-1.8-20.3-9.9-31.1-30.9c-0.2-0.5-0.1-1,0.4-1.2C75,10.4,75.1,10.4,75.1,10.4"/>
		<path id="パス_104584" class="st1" d="M87.3,119.6c2.6-17.2-3.6-30.2-19.2-31.2c-0.9,0-1.7,0.4-2.2,1.1l-7.4,11.9
			c-0.2,0.3-0.1,0.6,0.2,0.8c0.1,0.1,0.3,0.1,0.4,0.1c3.8-0.6,15-1.7,17.8,6.4c2.3,6.9,2.8,14.2,1.5,21.3c-0.1,0.4-0.5,0.7-0.9,0.7
			c-0.1,0-0.3-0.1-0.4-0.2c-1.9-1.5-5.2-1.6-7.7-0.7c-3.7,1.3-0.6-20.3-12.1-18.5c-2.8,0.5-5.3,2.3-6.7,4.8
			c-2.6,4.7-8.9,16.2-4.2,21.6c6.4,7.5,24.3,8.8,33.4-1.2C82.9,133,86.6,124.8,87.3,119.6"/>
		<path id="パス_104585" class="st1" d="M119.6,164.1c0-22.6,16-30.3,27.5-60.6c0.1-0.2,0-0.5-0.3-0.6c-0.2-0.1-0.4,0-0.5,0.2
			c-16,23.4-41.9,38.6-41,60.8c0,0,0.8,22.6,25.6,26.3c0.4,0.1,0.7-0.2,0.8-0.6c0-0.3-0.1-0.5-0.3-0.7
			C127,186,119.6,179,119.6,164.1"/>
		<path id="パス_104586" class="st0" d="M93.4,58.5l11.2-8.7c0.4-0.3,0.9-0.3,1.3,0c3.5,2.5,19.1,15.1,15.1,38.7
			c-4.6,27-24.3,42.5-20.2,70.7c0,0.2-0.1,0.4-0.3,0.4c-0.1,0-0.3,0-0.4-0.1c-2-3-6.3-12.5,0.9-32c17.8-48.4-1.8-63.7-7.5-67
			c-0.5-0.3-0.7-1-0.4-1.5C93.2,58.7,93.3,58.6,93.4,58.5"/>
		<path id="パス_104587" class="st0" d="M111.5,44.6c-0.4,0-0.6,0.3-0.6,0.7c0,0.2,0.1,0.4,0.3,0.5c28.4,16,22,44.6,8,68.5
			c-3.8,6.5-10.4,17.2-13.6,29.2c-0.1,0.3,0.1,0.6,0.4,0.7c0.2,0.1,0.5,0,0.6-0.3c5.5-9.1,12-17.7,19.2-25.6
			c18.6-20.6,23.8-31.1,22.4-47C145.9,44.9,119.5,44.2,111.5,44.6"/>
		<path id="パス_104588" class="st1" d="M77,76.1l6.2-7.6c0.2-0.3,0.6-0.4,1-0.3c2.3,0.5,10.9,3.4,15.4,18.6
			c2.8,9.6,1.6,19.8-3.2,28.5c-0.2,0.4-0.7,0.5-1.1,0.3c-0.3-0.1-0.4-0.4-0.4-0.7c0.5-7.9-0.1-27.8-17.6-37c-0.6-0.3-0.8-1-0.5-1.6
			C76.9,76.2,76.9,76.2,77,76.1"/>
	</g>
</g>
</svg>
