<svg xmlns="http://www.w3.org/2000/svg" xmlns:xlink="http://www.w3.org/1999/xlink" width="200" height="200" viewBox="0 0 200 200">
  <defs>
    <clipPath id="clip-commonmenu-icon2">
      <rect width="200" height="200"/>
    </clipPath>
  </defs>
  <g id="commonmenu-icon2" clip-path="url(#clip-commonmenu-icon2)">
    <g id="グループ_56235" data-name="グループ 56235" transform="translate(-10873.702 -7350.411)">
      <path id="パス_104491" data-name="パス 104491" d="M390.932,159.141c-18.548,37.853-69.245,43.694-103.261,23.829,7.012.564,14.234,2.005,21.181,2.322,29.646,3.193,60.207-4.958,82.08-26.151" transform="translate(10641.188 7295.33)"/>
      <path id="パス_104492" data-name="パス 104492" d="M425.1,135.995a24.6,24.6,0,0,0-19.149-3.1c-8.343,2.459-13.734,7.978-17.314,15.334-14.73,30.564-39.675,54.728-66.978,74.41-15.334,10.869-32.118,19.959-50.682,23.936a.467.467,0,0,0-.366.472.46.46,0,0,0,.481.436c9.635-.527,18.92-3.73,28.263-6.18,53.75-14.109,77.988-47.275,96.009-85.9,3.187-6.85,7.134-16.211,15.666-16.812,6.96-1.048,12.74,1.463,18.207,5.5,2.91,1.88,15.017,10.775,15.017,10.775s-4.638-6.908-19.155-18.868" transform="translate(10606.273 7240.129)"/>
      <path id="パス_104493" data-name="パス 104493" d="M404.721,159.553a37.659,37.659,0,0,1-5.168,10.882,96.766,96.766,0,0,1-8.931,11.287c-31.009,32.834-68.849,27.334-104.837,6.076a130.864,130.864,0,0,0,11.951,9.836c21.986,14.459,51.169,20.136,75.748,8.487,9.888-4.476,15.34-9.181,22.882-17.945,12-13.938,8.356-28.623,8.356-28.623" transform="translate(10637.288 7296.173)"/>
      <path id="パス_104494" data-name="パス 104494" d="M346.128,184.191c-4.165-13.886-20.657-20.072-24.006-32.295-1.551-9.7,7.865-11.311,18.04-12.134-7.027-1.246-14.371-2-19.956,4.379-2.307,3.727-2.218,8.855,1.99,15.827,7.225,10.8,23.363,32.191,19.947,50.974,0,0,8.255-12.521,3.986-26.752" transform="translate(10704.7 7253.929)"/>
      <path id="パス_104495" data-name="パス 104495" d="M309.471,175.485l7.557,21.194-12.969-18.387Z" transform="translate(10674.739 7328.79)"/>
      <path id="パス_104496" data-name="パス 104496" d="M303.745,181.44l28.586,3.047-28.586,3.047Z" transform="translate(10674.094 7340.981)"/>
    </g>
  </g>
</svg>
