<?xml version="1.0" encoding="utf-8"?>
<!-- Generator: Adobe Illustrator 27.4.0, SVG Export Plug-In . SVG Version: 6.00 Build 0)  -->
<svg version="1.1" id="レイヤー_1" xmlns="http://www.w3.org/2000/svg" xmlns:xlink="http://www.w3.org/1999/xlink" x="0px"
	 y="0px" viewBox="0 0 200 200" style="enable-background:new 0 0 200 200;" xml:space="preserve">
<style type="text/css">
	.st0{clip-path:url(#SVGID_00000072278529888208554190000004440091286112993471_);}
</style>
<g>
	<g>
		<defs>
			<rect id="SVGID_1_" x="-16120" y="10476" width="200" height="200"/>
		</defs>
		<clipPath id="SVGID_00000043432566707294365230000001930240838714930328_">
			<use xlink:href="#SVGID_1_"  style="overflow:visible;"/>
		</clipPath>
		
			<g id="グループ_56397" transform="translate(-16120 10476)" style="clip-path:url(#SVGID_00000043432566707294365230000001930240838714930328_);">
			<path id="パス_104938" d="M16261.3-10333.1c-29.4,29.8-79.7,21.9-95-18.3c-18.1-48.5,27.9-97.2,77.1-77.7
				C16283.1-10413,16291.3-10362.5,16261.3-10333.1 M16261-10333.4c34.3-35,8-95.4-40.5-95.8c-50.3-0.2-76.2,59.3-39.3,94.7
				C16202.2-10313.6,16239.8-10311.5,16261-10333.4"/>
			<path id="パス_104939" d="M16163-10373.9c0.1-51.5,62.2-78,99.5-42c23.4,22.3,23.5,61.7,0,84
				C16225.3-10295.9,16163.1-10322.3,16163-10373.9 M16163-10373.9c-0.4,31,26.6,57.4,57.5,56.3c29.9,0,55.8-26.6,55.2-56.3
				c0.6-29.7-25.3-56.3-55.2-56.3C16189.6-10431.2,16162.7-10404.9,16163-10373.9"/>
			<path id="パス_104939_-_アウトライン" d="M16222.2-10314.2c-14,0-27.5-4.8-38.4-13.6c-5.5-4.4-10.1-9.7-13.7-15.8
				c-3.8-6.3-6.3-13.3-7.4-20.6c-0.6-3.2-0.8-6.5-0.8-9.8c0-3.4,0.2-6.7,0.8-10c1.2-7.2,3.7-14.2,7.5-20.5c3.6-6,8.2-11.3,13.7-15.7
				c10.9-8.7,24.3-13.5,38.3-13.5c7.3,0,14.6,1.4,21.4,4.1c7.3,2.9,14,7.3,19.7,12.8c5.8,5.6,10.4,12.3,13.5,19.8
				c6,14.8,6,31.3,0,46.1c-3,7.5-7.6,14.2-13.5,19.8c-5.7,5.5-12.4,9.9-19.7,12.8C16236.8-10315.5,16229.5-10314.2,16222.2-10314.2z
				 M16221.2-10316.4c0.3,0,0.7,0,1,0c7.1,0,14-1.3,20.6-3.9c7.1-2.8,13.5-7,19-12.4c5.6-5.3,10-11.8,12.9-19
				c5.8-14.2,5.8-30.1,0-44.4c-2.9-7.2-7.3-13.7-12.9-19c-5.5-5.3-11.9-9.5-19-12.4c-6.6-2.6-13.5-3.9-20.6-3.9h-0.3
				c7,0.2,14,1.8,20.4,4.7c13.6,6.2,24.4,17.2,30.3,31c2.9,6.9,4.4,14.3,4.3,21.8c0.1,7.5-1.3,14.9-4.3,21.8
				c-5.9,13.7-16.7,24.8-30.3,30.9C16235.6-10318.1,16228.4-10316.5,16221.2-10316.4L16221.2-10316.4z M16164.9-10364.5
				c2.3,12.7,8.9,24.2,18.7,32.5c9.8,8.5,22.2,13.2,35.2,13.3c0.6,0,1.1,0,1.7,0l0,0c7.2,0,14.3-1.6,20.9-4.5
				c13.1-5.9,23.5-16.5,29.2-29.8c2.8-6.6,4.2-13.7,4.1-20.9l0,0c0.1-7.2-1.3-14.3-4.1-20.9c-5.6-13.2-16-23.8-29.1-29.8
				c-6.6-3-13.7-4.5-20.9-4.5l0,0c-0.6,0-1.1,0-1.7,0c-12.9,0.1-25.3,4.8-35.1,13.2c-9.8,8.3-16.4,19.7-18.7,32.3
				c-0.5,3.2-0.8,6.4-0.8,9.7l0,0C16164.2-10370.7,16164.4-10367.6,16164.9-10364.5z"/>
			<path id="パス_104940" d="M16254.6-10419.1c1.8-6.6,3.2-14.3,9-18.6c4.6-3.1,10.1-2.6,15.2-4.2c4.6-0.6,8.8,2.7,9.3,7.2
				c0.1,0.6,0.1,1.3,0,1.9c-0.1,0.9-0.3,1.8-0.4,2.6c-0.6,3.2-1.2,7.6-3.1,10.3c-3.9,6-11.6,8.1-18,10.6l-0.2-0.4
				c3.6-3.5,7.8-6.1,11.5-9.3c3.7-3.3,4.7-8.8,6-13.3c1.3-2.9,0-6.2-2.8-7.5c-0.7-0.3-1.4-0.5-2.2-0.5c-3.2,0.4-6.4,1.3-9.4,2.7
				c-3.9,2.5-6.9,6.1-8.8,10.3c-1.7,3-3.6,5.8-5.7,8.4L16254.6-10419.1z"/>
			<path id="パス_104941" d="M16276.4-10383.8c4.6-0.6,9.2-0.9,13.8-1c5.5-1.1,10.8,2.5,11.8,8c0,0.2,0.1,0.5,0.1,0.7
				c0.4,4.3-2,8.4-6.1,10.1c-5.9,1.8-12.2,1.6-18-0.7c4.5-1,9.1-1.7,13.8-1.8c3.6,0.2,6.7-2.5,6.9-6.1s-2.5-6.7-6.1-6.9
				c-0.7,0-1.5,0-2.2,0.2C16285.6-10380.6,16280.7-10381.4,16276.4-10383.8"/>
			<path id="パス_104942" d="M16229.2-10430.9c-2.3-4.3-3.1-9.2-2.4-14.1c1-3.5-1.1-7.1-4.6-8.1s-7.1,1.1-8.1,4.6
				c-0.2,0.7-0.3,1.4-0.2,2.2c-0.2,4.6-0.8,9.2-1.8,13.8c-2.3-5.7-2.5-12.1-0.7-18c1.7-4,5.8-6.5,10.1-6.1c5.5,0.7,9.4,5.7,8.8,11.2
				c0,0.2-0.1,0.5-0.1,0.7C16230.1-10440.1,16229.8-10435.5,16229.2-10430.9"/>
			<path id="パス_104943" d="M16211.7-10319.1c2.3,4.3,3.1,9.2,2.4,14c-1,3.5,1.1,7.1,4.5,8.1c3.5,1,7.1-1.1,8.1-4.5
				c0.2-0.7,0.3-1.4,0.2-2.2c0.2-4.6,0.8-9.2,1.8-13.8c2.3,5.7,2.5,12.1,0.7,18c-1.7,4-5.8,6.5-10.1,6.1c-5.5-0.7-9.4-5.7-8.8-11.2
				c0-0.2,0.1-0.5,0.1-0.7C16210.8-10310,16211.1-10314.6,16211.7-10319.1"/>
			<path id="パス_104944" d="M16164.5-10366.3c-4.6,0.6-9.2,0.9-13.8,1c-5.5,1.1-10.8-2.5-11.8-8c0-0.2-0.1-0.5-0.1-0.7
				c-0.4-4.3,2-8.4,6.1-10.1c5.9-1.8,12.2-1.6,18,0.7c-4.5,1-9.1,1.7-13.8,1.8c-3.6-0.2-6.7,2.5-6.9,6.1s2.5,6.7,6.1,6.9
				c0.7,0,1.5,0,2.2-0.2C16155.3-10369.5,16160.2-10368.6,16164.5-10366.3"/>
			<path id="パス_104945" d="M16176.7-10336.3c-0.5,3-1.6,5.9-3.3,8.5l-4.3,8l-1.6-1.5c4.6-2.4,10.5-6.8,15.7-7.7
				c-3.3,4-10.2,6.9-14.5,9.7c-0.5,0.3-1.2,0.1-1.5-0.4c-0.2-0.3-0.2-0.7,0-1.1l4.3-8
				C16172.7-10331.6,16174.5-10334.1,16176.7-10336.3"/>
			<path id="合体_10" d="M16193.4-10367.3l7.5-28.1l28.1-7.5l20.6,20.6l-7.5,28.1l-28.1,7.5L16193.4-10367.3z"/>
			<path id="合体_10_-_アウトライン" d="M16213.6-10345.5l-21.5-21.5l7.9-29.3l29.3-7.9l21.5,21.5l-7.9,29.3
				L16213.6-10345.5z M16194.7-10367.7l19.6,19.6l26.8-7.2l7.2-26.8l-19.6-19.6l-26.8,7.2L16194.7-10367.7z"/>
			<path id="パス_104948" d="M16213-10343l-0.7-0.7c-1.1,3-2.2,6-3.2,9.1c-2.3,4.8-3.2,10.2-2.4,15.5l0.4,0.1
				c3.3-4.2,5.2-9.4,5.4-14.7c0.6-3.2,1.1-6.4,1.5-9.5L16213-10343z"/>
			<path id="パス_104949" d="M16189.6-10366.3l0.3-1c-3.3,0.5-6.6,1.1-9.8,1.8c-5.5,0.4-10.7,2.4-15,5.8l0.1,0.4
				c5.4,0.7,11-0.3,15.8-2.7c3.2-1.1,6.3-2.3,9.4-3.5L16189.6-10366.3z"/>
			<path id="パス_104950" d="M16197.9-10397.1l0.3-1l1-0.3c-1.9-2.4-3.8-4.7-5.8-7c-2.8-4.3-6.9-7.7-11.8-9.6l-0.3,0.3
				c1.9,4.8,5.2,9,9.6,11.8C16193.1-10401,16195.5-10399,16197.9-10397.1"/>
			<path id="パス_104951" d="M16230-10406.7l0.8,0.8c1.1-2.8,2.1-5.5,3.1-8.3c2.3-4.5,3.2-9.7,2.3-14.7l-0.4-0.1
				c-3.2,3.9-5.1,8.8-5.4,13.9c-0.6,2.9-1,5.8-1.5,8.8L16230-10406.7z"/>
			<path id="パス_104952" d="M16274.5-10389.1c-4.8-0.9-9.8-0.2-14.1,2c-2.6,0.9-5.2,1.9-7.7,2.9l0.8,0.8l-0.3,1.1
				c2.7-0.4,5.5-0.8,8.2-1.3c4.9-0.2,9.6-1.9,13.4-5.1L16274.5-10389.1"/>
			<path id="パス_104953" d="M16252-10346.9c-2.3-1.9-4.6-3.8-6.9-5.7l-0.3,1.1l-1.1,0.3c1.9,2.3,3.7,4.6,5.7,6.9
				c2.8,4.3,6.9,7.6,11.6,9.4l0.3-0.3C16259.6-10340,16256.3-10344.1,16252-10346.9"/>
		</g>
	</g>
</g>
<g id="グループ_56397_00000176728754093775902900000015200100468057489548_" transform="translate(-16120 10476)">
	<path id="パス_104938_00000083072761095935311800000011910922667641820077_" d="M16264.5-10331.2
		c-32.8,33.2-88.9,24.4-105.9-20.4c-20.2-54.1,31.1-108.4,86-86.6C16288.8-10420.3,16298-10364.1,16264.5-10331.2 M16264.2-10331.6
		c38.2-39,9-106.4-45.1-106.8c-56.1-0.2-84.9,66-43.8,105.5C16198.6-10309.6,16240.6-10307.2,16264.2-10331.6"/>
	<path id="パス_104939_00000058582223204552195950000004131745884675209393_" d="M16155-10376.7c0.1-57.4,69.3-86.9,110.9-46.8
		c26.1,24.8,26.1,68.8,0,93.6C16224.4-10289.8,16155.1-10319.3,16155-10376.7 M16155-10376.7c-0.4,34.6,29.6,63.9,64,62.8
		c33.4,0,62.2-29.6,61.5-62.8c0.7-33.2-28.2-62.8-61.5-62.8C16184.6-10440.6,16154.6-10411.3,16155-10376.7"/>
	<path id="パス_104939_-_アウトライン_00000073718031790077155030000004349179619602589375_" d="M16220.9-10310.2
		c-15.6,0-30.6-5.4-42.8-15.2c-6.1-4.9-11.3-10.8-15.3-17.6c-4.2-7.1-7-14.8-8.3-23c-0.6-3.6-0.9-7.2-0.9-10.9
		c0-3.8,0.3-7.5,0.9-11.2c1.3-8.1,4.1-15.8,8.3-22.8c4-6.7,9.2-12.6,15.2-17.4c12.1-9.7,27.1-15,42.6-15.1c8.2,0,16.3,1.5,23.9,4.5
		c8.2,3.3,15.6,8.1,22,14.3c6.5,6.2,11.6,13.7,15,22.1c6.7,16.5,6.7,34.9,0,51.3c-3.4,8.3-8.5,15.8-15,22
		c-6.3,6.2-13.8,11-21.9,14.3C16237.2-10311.7,16229.1-10310.2,16220.9-10310.2z M16219.8-10312.7c0.4,0,0.7,0,1.1,0
		c7.9,0,15.7-1.5,23-4.4c7.9-3.2,15.1-7.8,21.1-13.8c6.3-6,11.2-13.2,14.4-21.2c6.4-15.9,6.4-33.6,0-49.4c-3.2-8-8.1-15.2-14.4-21.2
		c-6.1-5.9-13.3-10.6-21.1-13.8c-7.3-2.9-15.1-4.4-23-4.4h-0.3c7.8,0.2,15.6,2,22.7,5.2c15.2,6.9,27.2,19.2,33.8,34.5
		c3.3,7.7,4.9,16,4.8,24.3c0.1,8.3-1.5,16.6-4.8,24.3c-6.5,15.3-18.6,27.6-33.8,34.5
		C16235.9-10314.6,16227.9-10312.8,16219.8-10312.7L16219.8-10312.7z M16157.1-10366.2c2.5,14.1,9.9,26.9,20.8,36.2
		c10.9,9.5,24.8,14.7,39.2,14.9c0.6,0,1.3,0,1.9,0h0c8,0,15.9-1.7,23.2-5c14.6-6.6,26.2-18.4,32.5-33.2c3.1-7.4,4.7-15.3,4.6-23.3v0
		c0.1-8-1.4-16-4.6-23.3c-6.3-14.7-17.9-26.6-32.5-33.2c-7.3-3.3-15.2-5-23.2-5h0c-0.6,0-1.3,0-1.9,0c-14.4,0.1-28.2,5.3-39.1,14.8
		c-10.9,9.2-18.3,22-20.9,36c-0.6,3.6-0.9,7.2-0.9,10.8v0C16156.3-10373.2,16156.5-10369.7,16157.1-10366.2z"/>
	<path id="パス_104940_00000114752444476314369150000018205631892838791091_" d="M16257-10427.1c2-7.3,3.6-15.9,10-20.7
		c5.1-3.4,11.3-3,16.9-4.6c5.1-0.7,9.8,3,10.4,8.1c0.1,0.7,0.1,1.4,0,2.1c-0.1,1-0.3,2-0.5,2.9c-0.7,3.6-1.3,8.4-3.5,11.4
		c-4.3,6.7-13,9-20.1,11.8l-0.2-0.4c4-3.9,8.7-6.8,12.9-10.4c4.1-3.7,5.2-9.8,6.7-14.8c1.4-3.2,0-7-3.2-8.4
		c-0.8-0.3-1.6-0.5-2.4-0.6c-3.6,0.4-7.1,1.5-10.4,3.1c-4.3,2.8-7.7,6.8-9.8,11.5c-1.8,3.3-4,6.4-6.3,9.4L16257-10427.1z"/>
	<path id="パス_104941_00000176735219108884097720000018268192535668419973_" d="M16281.3-10387.7c5.1-0.7,10.2-1,15.3-1.1
		c6.1-1.2,12,2.8,13.2,8.9c0.1,0.3,0.1,0.5,0.1,0.8c0.5,4.8-2.3,9.4-6.8,11.3c-6.6,2-13.6,1.8-20-0.8c5-1.2,10.2-1.8,15.3-2
		c4,0.2,7.5-2.8,7.7-6.8s-2.8-7.5-6.8-7.7c-0.8,0-1.6,0-2.4,0.3C16291.6-10384.2,16286.1-10385.1,16281.3-10387.7"/>
	<path id="パス_104942_00000071527899185715029750000004759973843021333688_" d="M16228.7-10440.3c-2.6-4.8-3.5-10.3-2.6-15.7
		c1.1-3.9-1.2-7.9-5.1-9c-3.9-1.1-7.9,1.2-9,5.1c-0.2,0.8-0.3,1.6-0.3,2.4c-0.2,5.2-0.9,10.3-2,15.3c-2.5-6.4-2.8-13.5-0.8-20
		c1.9-4.5,6.4-7.2,11.3-6.8c6.2,0.8,10.5,6.4,9.8,12.5c0,0.3-0.1,0.5-0.1,0.8C16229.8-10450.5,16229.4-10445.4,16228.7-10440.3"/>
	<path id="パス_104943_00000035513954798562510300000009816261935650330781_" d="M16209.3-10315.7c2.6,4.8,3.5,10.3,2.6,15.7
		c-1.1,3.9,1.2,7.9,5.1,9c3.9,1.1,7.9-1.2,9-5.1c0.2-0.8,0.3-1.6,0.3-2.4c0.2-5.2,0.9-10.3,2-15.3c2.5,6.4,2.8,13.5,0.8,20
		c-1.9,4.5-6.4,7.2-11.3,6.8c-6.2-0.8-10.5-6.4-9.8-12.5c0-0.3,0.1-0.5,0.1-0.8C16208.2-10305.5,16208.6-10310.6,16209.3-10315.7"/>
	<path id="パス_104944_00000122721124225290011660000008457855502973201053_" d="M16156.7-10368.3c-5.1,0.7-10.2,1-15.3,1.1
		c-6.1,1.2-12-2.8-13.2-8.9c0-0.3-0.1-0.5-0.1-0.8c-0.5-4.8,2.3-9.4,6.8-11.3c6.6-2,13.6-1.8,20,0.8c-5,1.2-10.2,1.8-15.3,2
		c-4-0.2-7.5,2.8-7.7,6.8c-0.2,4,2.8,7.5,6.8,7.7c0.8,0,1.6,0,2.4-0.3C16146.4-10371.8,16151.9-10370.9,16156.7-10368.3"/>
	<path id="パス_104945_00000166667824225776917830000006120574443756549795_" d="M16170.3-10334.8c-0.6,3.4-1.8,6.6-3.7,9.5
		l-4.8,8.9l-1.7-1.7c5.1-2.7,11.7-7.6,17.4-8.6c-3.7,4.5-11.3,7.7-16.2,10.8c-0.6,0.3-1.4,0.1-1.7-0.5c-0.2-0.4-0.2-0.8,0-1.2
		l4.8-8.9C16165.8-10329.6,16167.8-10332.4,16170.3-10334.8"/>
	<path id="合体_10_00000048500856678039919040000004823037227178495410_" d="M16188.9-10369.4l8.4-31.3l31.3-8.4l22.9,22.9
		l-8.4,31.3l-31.3,8.4L16188.9-10369.4z"/>
	<path id="合体_10_-_アウトライン_00000039856475077854680090000002148601006913425034_" d="M16211.4-10345.1l-23.9-23.9
		l8.8-32.7l32.7-8.8l23.9,23.9l-8.8,32.7L16211.4-10345.1z M16190.3-10369.8l21.9,21.9l29.9-8l8-29.9l-21.9-21.9l-29.9,8
		L16190.3-10369.8z"/>
	<path id="パス_104948_00000169525684539339138940000002918610829683955343_" d="M16210.6-10342.3l-0.8-0.8
		c-1.3,3.3-2.5,6.7-3.6,10.1c-2.6,5.4-3.5,11.4-2.6,17.3l0.5,0.1c3.6-4.7,5.7-10.5,6-16.4c0.6-3.5,1.2-7.1,1.7-10.6L16210.6-10342.3
		z"/>
	<path id="パス_104949_00000145043050351752553650000014382548530283556486_" d="M16184.6-10368.3l0.3-1.1c-3.7,0.6-7.3,1.3-11,2
		c-6.1,0.4-11.9,2.7-16.7,6.4l0.1,0.5c6.1,0.8,12.2-0.3,17.7-3.1c3.5-1.3,7-2.6,10.5-3.9L16184.6-10368.3z"/>
	<path id="パス_104950_00000047035032845989096070000004444097699263824045_" d="M16193.8-10402.6l0.3-1.2l1.2-0.3
		c-2.1-2.6-4.3-5.3-6.5-7.8c-3.1-4.8-7.7-8.6-13.1-10.6l-0.4,0.4c2.1,5.4,5.8,10,10.6,13.1
		C16188.6-10406.9,16191.2-10404.8,16193.8-10402.6"/>
	<path id="パス_104951_00000172428705404097905640000014909807157188027037_" d="M16229.7-10413.3l0.9,0.9
		c1.2-3.1,2.4-6.2,3.5-9.3c2.6-5.1,3.5-10.8,2.6-16.4l-0.5-0.1c-3.6,4.4-5.7,9.8-6,15.5c-0.6,3.3-1.2,6.5-1.7,9.8L16229.7-10413.3z"
		/>
	<path id="パス_104952_00000044864682098900426300000008600173226607553943_" d="M16279.2-10393.6c-5.4-1-10.9-0.2-15.8,2.3
		c-2.9,1-5.8,2.1-8.6,3.2l0.8,0.8l-0.3,1.3c3-0.4,6.1-0.9,9.1-1.4c5.5-0.2,10.7-2.2,14.9-5.7L16279.2-10393.6"/>
	<path id="パス_104953_00000049206232542202179320000006078682370056460172_" d="M16254.2-10346.6c-2.5-2.2-5.1-4.3-7.7-6.3
		l-0.3,1.2l-1.2,0.3c2.1,2.6,4.2,5.2,6.3,7.7c3.1,4.8,7.6,8.5,13,10.5l0.4-0.4C16262.6-10339,16259-10343.5,16254.2-10346.6"/>
</g>
</svg>
