<?xml version="1.0" encoding="utf-8"?>
<!-- Generator: Adobe Illustrator 27.4.0, SVG Export Plug-In . SVG Version: 6.00 Build 0)  -->
<svg version="1.1" id="レイヤー_1" xmlns="http://www.w3.org/2000/svg" xmlns:xlink="http://www.w3.org/1999/xlink" x="0px"
	 y="0px" viewBox="0 0 200 200" style="enable-background:new 0 0 200 200;" xml:space="preserve">
<style type="text/css">
	.st0{clip-path:url(#SVGID_00000067932163649615218950000015219868289312724142_);}
	.st1{fill:#4AB223;}
	.st2{fill:#2A3356;}
</style>
<g>
	<g>
		<g>
			<g>
				<g>
					<defs>
						<rect id="SVGID_1_" x="-64480" y="41904" width="200" height="200"/>
					</defs>
					<clipPath id="SVGID_00000110431335441733236610000016843966671562831760_">
						<use xlink:href="#SVGID_1_"  style="overflow:visible;"/>
					</clipPath>
					
						<g id="グループ_56397" transform="translate(-16120 10476)" style="clip-path:url(#SVGID_00000110431335441733236610000016843966671562831760_);">
						<path id="パス_104938" d="M16261.3-10333.1c-29.4,29.8-79.7,21.9-95-18.3c-18.1-48.5,27.9-97.2,77.1-77.7
							C16283.1-10413,16291.3-10362.5,16261.3-10333.1 M16261-10333.4c34.3-35,8-95.4-40.5-95.8c-50.3-0.2-76.2,59.3-39.3,94.7
							C16202.2-10313.6,16239.8-10311.5,16261-10333.4"/>
						<path id="パス_104939" d="M16163-10373.9c0.1-51.5,62.2-78,99.5-42c23.4,22.3,23.5,61.7,0,84
							C16225.3-10295.9,16163.1-10322.3,16163-10373.9 M16163-10373.9c-0.4,31,26.6,57.4,57.5,56.3c29.9,0,55.8-26.6,55.2-56.3
							c0.6-29.7-25.3-56.3-55.2-56.3C16189.6-10431.2,16162.7-10404.9,16163-10373.9"/>
						<path id="パス_104939_-_アウトライン" d="M16222.2-10314.2c-14,0-27.5-4.8-38.4-13.6c-5.5-4.4-10.1-9.7-13.7-15.8
							c-3.8-6.3-6.3-13.3-7.4-20.6c-0.6-3.2-0.8-6.5-0.8-9.8c0-3.4,0.2-6.7,0.8-10c1.2-7.2,3.7-14.2,7.5-20.5
							c3.6-6,8.2-11.3,13.7-15.7c10.9-8.7,24.3-13.5,38.3-13.5c7.3,0,14.6,1.4,21.4,4.1c7.3,2.9,14,7.3,19.7,12.8
							c5.8,5.6,10.4,12.3,13.5,19.8c6,14.8,6,31.3,0,46.1c-3,7.5-7.6,14.2-13.5,19.8c-5.7,5.5-12.4,9.9-19.7,12.8
							C16236.8-10315.5,16229.5-10314.2,16222.2-10314.2z M16221.2-10316.4c0.3,0,0.7,0,1,0c7.1,0,14-1.3,20.6-3.9
							c7.1-2.8,13.5-7,19-12.4c5.6-5.3,10-11.8,12.9-19c5.8-14.2,5.8-30.1,0-44.4c-2.9-7.2-7.3-13.7-12.9-19
							c-5.5-5.3-11.9-9.5-19-12.4c-6.6-2.6-13.5-3.9-20.6-3.9h-0.3c7,0.2,14,1.8,20.4,4.7c13.6,6.2,24.4,17.2,30.3,31
							c2.9,6.9,4.4,14.3,4.3,21.8c0.1,7.5-1.3,14.9-4.3,21.8c-5.9,13.7-16.7,24.8-30.3,30.9
							C16235.6-10318.1,16228.4-10316.5,16221.2-10316.4L16221.2-10316.4z M16164.9-10364.5c2.3,12.7,8.9,24.2,18.7,32.5
							c9.8,8.5,22.2,13.2,35.2,13.3c0.6,0,1.1,0,1.7,0l0,0c7.2,0,14.3-1.6,20.9-4.5c13.1-5.9,23.5-16.5,29.2-29.8
							c2.8-6.6,4.2-13.7,4.1-20.9l0,0c0.1-7.2-1.3-14.3-4.1-20.9c-5.6-13.2-16-23.8-29.1-29.8c-6.6-3-13.7-4.5-20.9-4.5l0,0
							c-0.6,0-1.1,0-1.7,0c-12.9,0.1-25.3,4.8-35.1,13.2c-9.8,8.3-16.4,19.7-18.7,32.3c-0.5,3.2-0.8,6.4-0.8,9.7l0,0
							C16164.2-10370.7,16164.4-10367.6,16164.9-10364.5z"/>
						<path id="パス_104940" d="M16254.6-10419.1c1.8-6.6,3.2-14.3,9-18.6c4.6-3.1,10.1-2.6,15.2-4.2c4.6-0.6,8.8,2.7,9.3,7.2
							c0.1,0.6,0.1,1.3,0,1.9c-0.1,0.9-0.3,1.8-0.4,2.6c-0.6,3.2-1.2,7.6-3.1,10.3c-3.9,6-11.6,8.1-18,10.6l-0.2-0.4
							c3.6-3.5,7.8-6.1,11.5-9.3c3.7-3.3,4.7-8.8,6-13.3c1.3-2.9,0-6.2-2.8-7.5c-0.7-0.3-1.4-0.5-2.2-0.5c-3.2,0.4-6.4,1.3-9.4,2.7
							c-3.9,2.5-6.9,6.1-8.8,10.3c-1.7,3-3.6,5.8-5.7,8.4L16254.6-10419.1z"/>
						<path id="パス_104941" d="M16276.4-10383.8c4.6-0.6,9.2-0.9,13.8-1c5.5-1.1,10.8,2.5,11.8,8c0,0.2,0.1,0.5,0.1,0.7
							c0.4,4.3-2,8.4-6.1,10.1c-5.9,1.8-12.2,1.6-18-0.7c4.5-1,9.1-1.7,13.8-1.8c3.6,0.2,6.7-2.5,6.9-6.1s-2.5-6.7-6.1-6.9
							c-0.7,0-1.5,0-2.2,0.2C16285.6-10380.6,16280.7-10381.4,16276.4-10383.8"/>
						<path id="パス_104942" d="M16229.2-10430.9c-2.3-4.3-3.1-9.2-2.4-14.1c1-3.5-1.1-7.1-4.6-8.1s-7.1,1.1-8.1,4.6
							c-0.2,0.7-0.3,1.4-0.2,2.2c-0.2,4.6-0.8,9.2-1.8,13.8c-2.3-5.7-2.5-12.1-0.7-18c1.7-4,5.8-6.5,10.1-6.1
							c5.5,0.7,9.4,5.7,8.8,11.2c0,0.2-0.1,0.5-0.1,0.7C16230.1-10440.1,16229.8-10435.5,16229.2-10430.9"/>
						<path id="パス_104943" d="M16211.7-10319.1c2.3,4.3,3.1,9.2,2.4,14c-1,3.5,1.1,7.1,4.5,8.1c3.5,1,7.1-1.1,8.1-4.5
							c0.2-0.7,0.3-1.4,0.2-2.2c0.2-4.6,0.8-9.2,1.8-13.8c2.3,5.7,2.5,12.1,0.7,18c-1.7,4-5.8,6.5-10.1,6.1
							c-5.5-0.7-9.4-5.7-8.8-11.2c0-0.2,0.1-0.5,0.1-0.7C16210.8-10310,16211.1-10314.6,16211.7-10319.1"/>
						<path id="パス_104944" d="M16164.5-10366.3c-4.6,0.6-9.2,0.9-13.8,1c-5.5,1.1-10.8-2.5-11.8-8c0-0.2-0.1-0.5-0.1-0.7
							c-0.4-4.3,2-8.4,6.1-10.1c5.9-1.8,12.2-1.6,18,0.7c-4.5,1-9.1,1.7-13.8,1.8c-3.6-0.2-6.7,2.5-6.9,6.1s2.5,6.7,6.1,6.9
							c0.7,0,1.5,0,2.2-0.2C16155.3-10369.5,16160.2-10368.6,16164.5-10366.3"/>
						<path id="パス_104945" d="M16176.7-10336.3c-0.5,3-1.6,5.9-3.3,8.5l-4.3,8l-1.6-1.5c4.6-2.4,10.5-6.8,15.7-7.7
							c-3.3,4-10.2,6.9-14.5,9.7c-0.5,0.3-1.2,0.1-1.5-0.4c-0.2-0.3-0.2-0.7,0-1.1l4.3-8
							C16172.7-10331.6,16174.5-10334.1,16176.7-10336.3"/>
						<path id="合体_10" d="M16193.4-10367.3l7.5-28.1l28.1-7.5l20.6,20.6l-7.5,28.1l-28.1,7.5L16193.4-10367.3z"/>
						<path id="合体_10_-_アウトライン" d="M16213.6-10345.5l-21.5-21.5l7.9-29.3l29.3-7.9l21.5,21.5l-7.9,29.3
							L16213.6-10345.5z M16194.7-10367.7l19.6,19.6l26.8-7.2l7.2-26.8l-19.6-19.6l-26.8,7.2L16194.7-10367.7z"/>
						<path id="パス_104948" d="M16213-10343l-0.7-0.7c-1.1,3-2.2,6-3.2,9.1c-2.3,4.8-3.2,10.2-2.4,15.5l0.4,0.1
							c3.3-4.2,5.2-9.4,5.4-14.7c0.6-3.2,1.1-6.4,1.5-9.5L16213-10343z"/>
						<path id="パス_104949" d="M16189.6-10366.3l0.3-1c-3.3,0.5-6.6,1.1-9.8,1.8c-5.5,0.4-10.7,2.4-15,5.8l0.1,0.4
							c5.4,0.7,11-0.3,15.8-2.7c3.2-1.1,6.3-2.3,9.4-3.5L16189.6-10366.3z"/>
						<path id="パス_104950" d="M16197.9-10397.1l0.3-1l1-0.3c-1.9-2.4-3.8-4.7-5.8-7c-2.8-4.3-6.9-7.7-11.8-9.6l-0.3,0.3
							c1.9,4.8,5.2,9,9.6,11.8C16193.1-10401,16195.5-10399,16197.9-10397.1"/>
						<path id="パス_104951" d="M16230-10406.7l0.8,0.8c1.1-2.8,2.1-5.5,3.1-8.3c2.3-4.5,3.2-9.7,2.3-14.7l-0.4-0.1
							c-3.2,3.9-5.1,8.8-5.4,13.9c-0.6,2.9-1,5.8-1.5,8.8L16230-10406.7z"/>
						<path id="パス_104952" d="M16274.5-10389.1c-4.8-0.9-9.8-0.2-14.1,2c-2.6,0.9-5.2,1.9-7.7,2.9l0.8,0.8l-0.3,1.1
							c2.7-0.4,5.5-0.8,8.2-1.3c4.9-0.2,9.6-1.9,13.4-5.1L16274.5-10389.1"/>
						<path id="パス_104953" d="M16252-10346.9c-2.3-1.9-4.6-3.8-6.9-5.7l-0.3,1.1l-1.1,0.3c1.9,2.3,3.7,4.6,5.7,6.9
							c2.8,4.3,6.9,7.6,11.6,9.4l0.3-0.3C16259.6-10340,16256.3-10344.1,16252-10346.9"/>
					</g>
				</g>
			</g>
		</g>
	</g>
</g>
<g>
	<path id="パス_105473_00000006708812304069632180000006950356396596842429_" class="st1" d="M40.2,95.5
		c-0.8-12.6-8.8-15.7-8.8-15.7c-10.1,13.6-12.5,29.5-8.3,41.8c0.2,1,0.6,1.4,1.6,2.2c1.3,1,3.1,2.1,4.5,2.6
		C40.5,130.6,40.2,95.5,40.2,95.5"/>
	<path id="パス_105474_00000153683794539459767940000000315338267767139216_" class="st1" d="M105.5,107.5
		c4.8,9.6,21.3-3.6,29.6-16.2c2.1-3.1,1.5-7.1-1.9-9.2c-0.3-0.2-0.6-0.4-1.2-0.8l-14.6-8.9c-2.6-1-5-0.4-6.9,1.6L99.3,86.5
		c-1.9,2-2.1,6.5,0.2,11.1L105.5,107.5z"/>
	<path id="パス_105475_00000003798656127266382210000013437214425549770165_" class="st1" d="M79.6,79.1
		C91,75.4,98.5,64,101.2,51.9l1.7-13.9c-9.9,0.2-20.8,3.5-33.9,8.6c-12.1,5.1-19.5,11.3-27.6,20.4C41.7,67,59.5,85.6,79.6,79.1"/>
	<path id="パス_105476_00000118366064688746460430000017357711044954611380_" class="st1" d="M126.9,58.5l11.9,8.5
		c10,6.3,15.4-6.7,11.5-18.8c-8.1-6.7-18.3-10.4-30.7-10.9C118.6,41.7,118.7,52.3,126.9,58.5"/>
	<path id="パス_105477_00000048503438798796595200000000937756869678701961_" class="st1" d="M57.2,129.9c0,0,18.9-0.5,28-7.3
		c8-6,0.1-21.1,0.1-21.1c-4.8-8.3-21.9-3.3-21.9-3.3C51.8,101.7,46,129.8,57.2,129.9"/>
	<path id="パス_105478_00000155118951587378998730000002529906600656696461_" class="st2" d="M196.2,46.1
		c6.9-16.4-18.4-21-28.9-16.8c-5.5,2.3-11.7,10-12.9,17.3c-0.6,4.3,0.7,14.4,0,18c-1.6,5.6-9.9,10.1-15.6,6.7l-12.7-8.8
		c-10.6-8.5-11.7-19.2-10.3-25.5l-8.5,0.4c-0.2,0.3-2.9,15.5-2.9,15.5C101.6,67,93.7,80.5,80.7,83.8c-24.7,6-43-13.5-43-13.5
		c-1.2,1.6-2.8,3.5-4,5.3l4.3,4c10.7,9,4.6,56-7.4,51.2c-2.9-1.4-5.1-3-7.6-4.7L3.7,145.9c-1.2,1.6-0.7,3.8,1.3,3.3
		c8.7-0.7,22.1-2.5,34.5-3l0,0c-4,10.8-20.2,11.7-20.9,32.4c0.2,6.5,36.5-12.1,46.7-27.7c21.4-3.4,57.4-17.5,74.5-30.5
		c0.7,7.4,1.4,20.5-0.8,31.4c-0.7,3.6,1.8,5.6,4.4,3.2c16.7-13.3,48.8-42.5,39.1-56c-2.5-3.9-6.1-7.4-10.2-10.2
		C172.5,87.8,189.6,61.4,196.2,46.1 M24.9,127.4L24.9,127.4L24.9,127.4 M89,125.4c-3.9,2.2-8.6,4.3-13.1,5.4
		c-1,0.2-14.6,3.4-23.5,3.1c-4.1-0.6-5.6-5-5.2-10c0,0,0-25.8,14.8-29.5c0,0,23.9-5.8,27.3,4.4C89.2,99,99.7,118.5,89,125.4
		 M113.4,114.8c-3.7,1.9-8.2,0.6-10.7-3.3l-0.1-0.2l-6.4-12.1c-3.9-5.6-2.8-11.1-0.6-13.7l13.9-15.5c2.1-2.1,5.6-2.9,8.5-1.7
		l18,11.2c4.2,2.4,6.4,8.7,3.7,12.4C127.1,108.5,113.4,114.8,113.4,114.8"/>
</g>
</svg>
