<?xml version="1.0" encoding="utf-8"?>
<!-- Generator: Adobe Illustrator 27.5.0, SVG Export Plug-In . SVG Version: 6.00 Build 0)  -->
<svg version="1.1" id="レイヤー_1" xmlns="http://www.w3.org/2000/svg" xmlns:xlink="http://www.w3.org/1999/xlink" x="0px"
	 y="0px" viewBox="0 0 353.2 61.2" style="enable-background:new 0 0 353.2 61.2;" xml:space="preserve">
<style type="text/css">
	.st0{fill:#4AB223;}
	.st1{fill:#2A3356;}
	.st2{enable-background:new    ;}
</style>
<g>
	<path id="パス_105473" class="st0" d="M20.1,27.5c0-5.1-3.3-6.5-3.3-6.5c-4.4,5.2-5.6,11.5-4.2,16.6c0.1,0.4,0.2,0.6,0.6,0.9
		c0.5,0.4,1.1,1,1.7,1.1C19.6,41.6,20.1,27.5,20.1,27.5"/>
	<path id="パス_105474" class="st0" d="M46.1,33.7c1.7,3.9,8.7-1,12.2-5.8c1-1.1,0.8-2.9-0.6-3.7c-0.1-0.1-0.2-0.2-0.5-0.3
		L51.6,20c-1-0.5-2-0.3-2.8,0.4L44,25.2c-0.8,0.8-1,2.5-0.1,4.5L46.1,33.7z"/>
	<path id="パス_105475" class="st0" d="M36.3,21.8c4.7-1.2,7.9-5.7,9.3-10.4l1-5.6c-4-0.1-8.5,0.9-13.8,2.8c-5,1.8-8,4.1-11.5,7.6
		C21.3,16.2,28.1,24,36.3,21.8"/>
	<path id="パス_105476" class="st0" d="M55.8,14.5l4.6,3.7c3.9,2.7,6.3-2.4,5-7.3c-3-2.9-7.1-4.5-12.1-5
		C52.8,7.7,52.6,11.9,55.8,14.5"/>
	<path id="パス_105477" class="st0" d="M26.3,41.7c0,0,7.6,0.2,11.4-2.3c3.3-2.2,0.5-8.5,0.5-8.5c-1.7-3.4-8.7-1.8-8.7-1.8
		C24.7,30.3,21.8,41.4,26.3,41.7"/>
	<path id="パス_105478" class="st1" d="M83.9,11C87,4.6,77,2.3,72.7,3.7c-2.2,0.8-4.9,3.7-5.6,6.7c-0.3,1.7,0,5.8-0.4,7.2
		c-0.7,2.2-4.2,3.9-6.4,2.4l-4.9-3.8c-4-3.6-4.3-7.9-3.6-10.4h-3.4c-0.1,0.1-1.5,6.1-1.5,6.1c-1.4,5.5-4.9,10.8-10.2,11.9
		c-10,1.8-16.9-6.4-16.9-6.4c-0.5,0.6-1.2,1.3-1.7,2l1.6,1.7c4.1,3.8,0.7,22.6-4.1,20.4c-1.2-0.7-2-1.3-3-2.1L4.3,47
		c-0.4,0.6-0.3,1.5,0.5,1.3c3.5-0.1,8.9-0.5,13.9-0.4l0,0c-1.8,4.3-8.3,4.3-9.1,12.5c0,2.6,14.9-4.1,19.4-10.2
		c8.7-0.9,23.4-5.7,30.5-10.7c0.1,3,0.1,8.2-1,12.6c-0.4,1.4,0.6,2.2,1.7,1.4C67.1,48.7,80.6,37.6,77,32c-0.9-1.7-2.3-3.1-3.9-4.3
		C73.4,27.3,80.9,17.1,83.9,11 M13.3,40L13.3,40L13.3,40 M39.1,40.6c-1.6,0.8-3.6,1.5-5.4,1.9c-0.4,0.1-6,1.1-9.5,0.7
		c-1.6-0.4-2.1-2.1-1.9-4.1c0,0,0.6-10.4,6.5-11.5c0,0,9.7-1.8,10.9,2.4C39.7,30,43.6,38,39.1,40.6 M49.2,36.8
		c-1.5,0.7-3.3,0-4.2-1.5v-0.1l-2.3-4.9c-1.5-2.4-0.9-4.5,0.1-5.5l5.9-5.9c0.9-0.8,2.3-1,3.4-0.5l6.9,4.9c1.6,1.1,2.4,3.6,1.2,5.1
		C54.8,34.6,49.2,36.8,49.2,36.8"/>
</g>
<g id="グループ_56575" transform="translate(135.559 3.99)">
	<g class="st2">
		<path class="st1" d="M-40.9,13.4V-3h6c1.1,0,1.9,0.1,2.6,0.4s1.3,0.5,1.7,1c0.4,0.4,0.7,0.9,0.8,1.5c0.2,0.5,0.2,1.1,0.2,1.7
			c0,0.9-0.2,1.7-0.6,2.2c-0.3,0.6-0.8,1.1-1.4,1.4c-0.6,0.4-1.2,0.6-2,0.7s-1.5,0.2-2.3,0.2h-3.5v7.2h-1.5V13.4z M-35.8,4.8
			c0.7,0,1.4,0,2-0.1s1.1-0.3,1.5-0.5c0.4-0.2,0.7-0.6,0.9-1s0.3-1,0.3-1.7c0-1-0.3-1.8-1-2.3c-0.7-0.5-1.7-0.8-3.2-0.8h-4v6.5
			L-35.8,4.8L-35.8,4.8z"/>
		<path class="st1" d="M-19.2,1.6h1.4v11.8h-1.4v-1.6c-0.2,0.2-0.4,0.4-0.6,0.7c-0.2,0.2-0.5,0.4-0.8,0.6c-0.3,0.2-0.6,0.3-1,0.5
			c-0.4,0.1-0.8,0.2-1.4,0.2c-0.8,0-1.4-0.1-2-0.3c-0.5-0.2-1-0.5-1.3-0.9s-0.6-0.9-0.7-1.4s-0.2-1.1-0.2-1.7V1.6h1.4v7.7
			c0,1,0.2,1.8,0.7,2.3s1.2,0.8,2.3,0.8c0.6,0,1.1-0.1,1.5-0.3s0.8-0.5,1.1-0.9c0.3-0.4,0.5-0.9,0.7-1.4s0.2-1.1,0.2-1.8L-19.2,1.6
			L-19.2,1.6z"/>
		<path class="st1" d="M-13,13.4h-1.4V-3h1.4v6.5c0.4-0.7,1-1.3,1.8-1.6s1.6-0.6,2.4-0.6c0.9,0,1.7,0.2,2.3,0.5
			c0.7,0.3,1.2,0.8,1.6,1.4s0.8,1.2,1,2C-3.7,6-3.6,6.7-3.6,7.6S-3.7,9.3-3.9,10c-0.2,0.8-0.5,1.4-0.9,2s-1,1-1.6,1.3
			c-0.7,0.3-1.5,0.5-2.4,0.5c-0.4,0-0.8-0.1-1.2-0.2c-0.4-0.1-0.8-0.3-1.1-0.5c-0.4-0.2-0.7-0.4-1-0.7s-0.6-0.6-0.8-1l0,0L-13,13.4
			L-13,13.4z M-13,7.4c0,0.7,0.1,1.4,0.3,2s0.4,1.1,0.8,1.6c0.3,0.4,0.8,0.8,1.2,1.1c0.5,0.3,1.1,0.4,1.7,0.4c0.6,0,1.1-0.1,1.6-0.3
			s0.9-0.5,1.3-0.9c0.4-0.4,0.6-0.9,0.9-1.4s0.3-1.2,0.3-2c0-0.7,0-1.4-0.2-2.1c-0.2-0.6-0.4-1.2-0.7-1.7c-0.4-0.5-0.8-0.9-1.4-1.2
			C-7.7,2.6-8.3,2.5-9,2.5c-0.6,0-1.2,0.1-1.7,0.4s-0.9,0.6-1.2,1.1c-0.3,0.4-0.6,1-0.8,1.6C-12.9,6.1-13,6.8-13,7.4z"/>
		<path class="st1" d="M11.2,1.8c-0.3-1.4-0.9-2.4-1.8-3C8.6-1.8,7.4-2.1,6-2.1c-1,0-1.8,0.2-2.5,0.6S2.2-0.6,1.7,0.1
			s-0.8,1.4-1,2.3S0.4,4.2,0.4,5.1s0.1,1.8,0.3,2.7s0.5,1.7,0.9,2.4s1,1.2,1.8,1.7c0.7,0.4,1.7,0.6,2.8,0.6c0.7,0,1.3-0.1,1.9-0.3
			s1.1-0.5,1.5-0.9s0.8-0.9,1.1-1.4s0.5-1.1,0.7-1.8H13c-0.2,0.8-0.4,1.5-0.8,2.2c-0.3,0.7-0.8,1.3-1.4,1.9c-0.6,0.5-1.3,1-2.1,1.3
			S6.9,14,5.8,14c-1.3,0-2.3-0.2-3.2-0.7S1,12.2,0.4,11.4s-1-1.7-1.2-2.7s-0.4-2.1-0.4-3.3c0-1.6,0.2-2.9,0.6-4s0.9-2,1.6-2.7
			s1.5-1.2,2.4-1.5s1.9-0.5,3-0.5C7.2-3.3,8-3.2,8.7-3s1.4,0.5,1.9,1c0.6,0.4,1,1,1.4,1.6s0.7,1.3,0.8,2.2
			C12.8,1.8,11.2,1.8,11.2,1.8z"/>
		<path class="st1" d="M21.2,6.5c0.3,0,0.6-0.1,0.9-0.1s0.6-0.1,0.9-0.2c0.2-0.2,0.4-0.4,0.4-0.6s0.1-0.5,0.1-0.7
			c0-0.7-0.2-1.3-0.7-1.7c-0.4-0.4-1.2-0.7-2.3-0.7c-0.5,0-0.9,0-1.3,0.1s-0.7,0.2-1,0.4s-0.5,0.5-0.7,0.8s-0.3,0.8-0.4,1.3h-1.4
			c0-0.7,0.2-1.3,0.5-1.8c0.3-0.5,0.6-0.9,1.1-1.2s0.9-0.5,1.5-0.7c0.6-0.1,1.2-0.2,1.8-0.2s1.1,0.1,1.7,0.2c0.5,0.1,1,0.3,1.4,0.6
			s0.7,0.7,0.9,1.1s0.3,1,0.3,1.7v6.4c0,0.5,0.1,0.9,0.3,1s0.6,0.1,1.1-0.1v1.1c-0.1,0-0.3,0.1-0.5,0.1s-0.4,0.1-0.6,0.1
			s-0.4,0-0.6-0.1c-0.2,0-0.4-0.1-0.5-0.2s-0.2-0.2-0.3-0.4c-0.1-0.2-0.1-0.3-0.2-0.5c0-0.2,0-0.4,0-0.6c-0.6,0.6-1.2,1.1-2,1.5
			c-0.7,0.3-1.5,0.5-2.4,0.5c-0.5,0-1-0.1-1.5-0.2s-0.9-0.3-1.3-0.6s-0.7-0.6-0.9-1.1c-0.2-0.4-0.3-0.9-0.3-1.5c0-2,1.4-3.2,4.1-3.5
			L21.2,6.5z M23.5,7.2c-0.6,0.2-1.2,0.4-1.8,0.5s-1.2,0.1-1.8,0.2c-1,0.1-1.9,0.3-2.4,0.7c-0.6,0.4-0.9,1-0.9,1.8
			c0,0.4,0.1,0.7,0.2,0.9c0.1,0.3,0.3,0.5,0.6,0.7c0.2,0.2,0.5,0.3,0.8,0.4c0.3,0.1,0.6,0.1,0.9,0.1c0.5,0,1.1-0.1,1.6-0.2
			c0.5-0.1,1-0.3,1.4-0.6s0.7-0.6,1-1.1c0.2-0.4,0.4-0.9,0.4-1.5C23.5,9.1,23.5,7.2,23.5,7.2z"/>
		<path class="st1" d="M29.2,9.7c0.2,1,0.6,1.7,1.1,2.1c0.6,0.4,1.3,0.6,2.4,0.6c0.5,0,0.9-0.1,1.3-0.2c0.4-0.1,0.7-0.3,0.9-0.5
			s0.4-0.4,0.5-0.7s0.2-0.5,0.2-0.8c0-0.6-0.2-1-0.6-1.3c-0.4-0.3-0.8-0.5-1.4-0.7C33,8,32.4,7.9,31.8,7.8c-0.6-0.1-1.3-0.3-1.8-0.5
			c-0.6-0.2-1-0.6-1.4-1S28,5.3,28,4.5c0-1,0.4-1.8,1.1-2.4s1.7-0.9,3.1-0.9c1.3,0,2.3,0.3,3.1,0.9s1.3,1.5,1.4,2.9h-1.3
			c-0.1-0.9-0.5-1.5-1-1.9s-1.3-0.6-2.1-0.6c-0.9,0-1.5,0.2-2,0.6s-0.7,0.8-0.7,1.4c0,0.5,0.2,0.9,0.6,1.2C30.6,6,31,6.2,31.6,6.4
			c0.6,0.2,1.2,0.3,1.8,0.5c0.7,0.1,1.3,0.3,1.8,0.6c0.6,0.2,1,0.6,1.4,1s0.6,1,0.6,1.8c0,0.6-0.1,1.1-0.4,1.5s-0.6,0.8-1,1.1
			s-0.9,0.5-1.5,0.6s-1.2,0.2-1.9,0.2s-1.3-0.1-1.9-0.3c-0.5-0.2-1-0.5-1.4-0.9s-0.7-0.8-0.9-1.3s-0.3-1-0.4-1.6L29.2,9.7L29.2,9.7z
			"/>
		<path class="st1" d="M40.6,7.8c0,0.6,0.1,1.2,0.2,1.8c0.2,0.6,0.4,1.1,0.7,1.5s0.7,0.8,1.2,1s1.1,0.4,1.7,0.4
			c0.9,0,1.7-0.2,2.3-0.7s1.1-1.1,1.3-2h1.5c-0.2,0.6-0.4,1.1-0.7,1.6s-0.6,0.9-1,1.2c-0.4,0.4-0.9,0.6-1.5,0.8s-1.2,0.3-2,0.3
			c-0.9,0-1.8-0.2-2.4-0.5c-0.7-0.3-1.2-0.8-1.7-1.3s-0.8-1.2-1-2s-0.3-1.6-0.3-2.4c0-0.9,0.1-1.7,0.4-2.4s0.6-1.4,1.1-2
			s1-1,1.7-1.3s1.4-0.5,2.3-0.5c1.6,0,2.9,0.6,3.8,1.7s1.4,2.7,1.4,4.9L40.6,7.8L40.6,7.8z M48.3,6.7c0-0.6-0.1-1.1-0.2-1.6
			c-0.2-0.5-0.4-0.9-0.7-1.3s-0.7-0.7-1.2-0.9s-1-0.3-1.6-0.3S43.5,2.7,43,2.9s-0.9,0.5-1.2,0.9S41.2,4.6,41,5.1s-0.3,1-0.4,1.6
			H48.3z"/>
		<path class="st1" d="M52.5,13.4V-3H63v1.3h-9v5.9h8.2v1.3H54v7.8L52.5,13.4L52.5,13.4z"/>
		<path class="st1" d="M65.2-1v-2h1.5v2H65.2z M65.3,13.4V1.6h1.4v11.8C66.7,13.4,65.3,13.4,65.3,13.4z"/>
		<path class="st1" d="M71.5,13.4h-1.4V1.6h1.4v1.6c0.5-0.6,1.1-1,1.7-1.4s1.3-0.5,2.1-0.5c0.7,0,1.4,0.1,2,0.4s1.1,0.7,1.6,1.3
			c0.3,0.4,0.5,0.9,0.5,1.3c0.1,0.4,0.1,0.9,0.1,1.4v7.7h-1.4V5.7c0-1.1-0.2-1.9-0.7-2.4s-1.2-0.8-2.3-0.8c-0.4,0-0.8,0.1-1.2,0.2
			C73.6,2.8,73.2,3,73,3.2s-0.6,0.5-0.8,0.7c-0.2,0.3-0.3,0.6-0.5,0.9c-0.1,0.4-0.2,0.7-0.2,1.1c0,0.3,0,0.7,0,1.1V13.4z"/>
		<path class="st1" d="M91.8-3h1.4v16.4h-1.4v-2.1l0,0c-0.2,0.4-0.5,0.7-0.8,1s-0.7,0.5-1,0.7c-0.4,0.2-0.8,0.3-1.1,0.5
			c-0.4,0.1-0.8,0.2-1.2,0.2c-1,0-1.8-0.2-2.4-0.5c-0.7-0.3-1.2-0.8-1.6-1.3c-0.4-0.6-0.7-1.2-0.9-2c-0.2-0.8-0.3-1.6-0.3-2.4
			s0.1-1.6,0.3-2.4c0.2-0.8,0.5-1.4,1-2s1-1,1.6-1.4c0.7-0.3,1.4-0.5,2.3-0.5c0.8,0,1.6,0.2,2.4,0.6s1.4,0.9,1.8,1.6V-3
			C91.9-3,91.8-3,91.8-3z M91.8,7.4c0-0.7-0.1-1.3-0.3-1.9c-0.2-0.6-0.4-1.1-0.8-1.6c-0.3-0.4-0.8-0.8-1.2-1.1
			c-0.5-0.3-1-0.4-1.7-0.4S86.5,2.5,86,2.8s-0.9,0.7-1.3,1.1c-0.3,0.5-0.6,1-0.7,1.7c-0.2,0.6-0.2,1.3-0.2,2.1c0,0.7,0.1,1.4,0.3,2
			c0.2,0.6,0.5,1,0.9,1.4s0.8,0.7,1.3,0.9s1,0.3,1.6,0.3s1.2-0.1,1.7-0.4c0.5-0.3,0.9-0.6,1.2-1.1c0.3-0.4,0.6-1,0.8-1.6
			C91.8,8.8,91.8,8.1,91.8,7.4z"/>
		<path class="st1" d="M97.5,7.8c0,0.6,0.1,1.2,0.2,1.8c0.2,0.6,0.4,1.1,0.7,1.5c0.3,0.4,0.7,0.8,1.2,1s1.1,0.4,1.7,0.4
			c0.9,0,1.7-0.2,2.3-0.7s1.1-1.1,1.3-2h1.5c-0.2,0.6-0.4,1.1-0.7,1.6s-0.6,0.9-1,1.2c-0.4,0.4-0.9,0.6-1.5,0.8s-1.2,0.3-2,0.3
			c-0.9,0-1.8-0.2-2.4-0.5c-0.7-0.3-1.2-0.8-1.7-1.3s-0.8-1.2-1-2s-0.3-1.6-0.3-2.4c0-0.9,0.1-1.7,0.4-2.4s0.6-1.4,1.1-2
			s1-1,1.7-1.3s1.4-0.5,2.3-0.5c1.6,0,2.9,0.6,3.8,1.7s1.4,2.7,1.4,4.9L97.5,7.8L97.5,7.8z M105.2,6.7c0-0.6-0.1-1.1-0.2-1.6
			c-0.2-0.5-0.4-0.9-0.7-1.3s-0.7-0.7-1.2-0.9c-0.5-0.2-1-0.3-1.6-0.3s-1.1,0.1-1.6,0.3S99,3.4,98.7,3.8s-0.6,0.8-0.8,1.3
			c-0.2,0.5-0.3,1-0.4,1.6C97.5,6.7,105.2,6.7,105.2,6.7z"/>
		<path class="st1" d="M110.7,13.4h-1.4V1.6h1.4v2.2l0,0c0.4-0.9,0.9-1.6,1.5-2s1.4-0.6,2.4-0.6v1.5c-0.8,0-1.4,0.1-1.9,0.4
			s-0.9,0.6-1.2,1s-0.5,1-0.6,1.6s-0.2,1.2-0.2,1.9C110.7,7.6,110.7,13.4,110.7,13.4z"/>
	</g>
	<g class="st2">
		<path class="st1" d="M-27.9,43.5h-6.8V55h-6.7V22.9h14c3.2,0,5.8,0.8,7.7,2.5s2.9,4.2,2.9,7.7c0,3.8-1,6.5-2.9,8
			S-24.4,43.5-27.9,43.5z M-24.8,36.8c0.9-0.8,1.3-2,1.3-3.7s-0.4-2.9-1.3-3.6s-2.1-1.1-3.7-1.1h-6.2v9.5h6.2
			C-26.9,37.9-25.7,37.5-24.8,36.8z"/>
		<path class="st1" d="M-13.2,33.8c1.6-2.1,4.5-3.1,8.4-3.1c2.6,0,4.9,0.5,6.9,1.5c2,1,3,3,3,5.8v10.9c0,0.8,0,1.7,0,2.7
			c0,0.8,0.2,1.4,0.4,1.7C5.7,53.6,6,53.8,6.4,54v0.9h-6.7c-0.2-0.5-0.3-0.9-0.4-1.3c-0.1-0.4-0.1-0.9-0.2-1.4
			c-0.9,0.9-1.8,1.7-3,2.4c-1.3,0.8-2.8,1.2-4.5,1.2c-2.1,0-3.9-0.6-5.3-1.8s-2.1-3-2.1-5.2c0-2.9,1.1-5,3.4-6.3
			c1.2-0.7,3-1.2,5.4-1.5l2.1-0.3c1.1-0.1,2-0.3,2.5-0.5c0.9-0.4,1.3-1,1.3-1.8c0-1-0.3-1.6-1-2s-1.7-0.6-3-0.6
			c-1.5,0-2.5,0.4-3.1,1.1c-0.4,0.5-0.7,1.3-0.9,2.2h-6C-14.8,36.9-14.2,35.2-13.2,33.8z M-8.6,50.5c0.6,0.5,1.3,0.7,2.1,0.7
			c1.3,0,2.6-0.4,3.7-1.2s1.7-2.2,1.8-4.3v-2.3c-0.4,0.2-0.8,0.4-1.2,0.6c-0.4,0.2-0.9,0.3-1.6,0.4l-1.4,0.3
			c-1.3,0.2-2.2,0.5-2.8,0.8c-1,0.6-1.4,1.4-1.4,2.6C-9.5,49.3-9.2,50-8.6,50.5z"/>
		<path class="st1" d="M20.1,35.9c-2.1,0-3.5,0.9-4.3,2.7c-0.4,0.9-0.6,2.1-0.6,3.6V55H9V31.3h6v3.5c0.8-1.2,1.6-2.1,2.3-2.6
			c1.3-1,2.9-1.4,4.9-1.4c2.5,0,4.5,0.6,6,1.9c1.6,1.3,2.3,3.4,2.3,6.4v16h-6.4V40.6c0-1.2-0.2-2.2-0.5-2.9
			C22.9,36.5,21.8,35.9,20.1,35.9z"/>
		<path class="st1" d="M55.5,48c-0.2,1.4-0.9,2.8-2.2,4.3c-2,2.3-4.9,3.5-8.5,3.5c-3,0-5.7-1-8-2.9s-3.5-5.1-3.5-9.5
			c0-4.1,1-7.2,3.1-9.4s4.8-3.3,8.1-3.3c2,0,3.7,0.4,5.3,1.1c1.6,0.7,2.9,1.9,3.9,3.5c0.9,1.4,1.5,3,1.8,4.9
			c0.2,1.1,0.2,2.7,0.2,4.7H39.6c0.1,2.4,0.8,4,2.2,5c0.9,0.6,1.9,0.9,3.1,0.9c1.3,0,2.3-0.4,3.1-1.1c0.4-0.4,0.8-0.9,1.2-1.6h6.3
			C55.5,48.1,55.5,48,55.5,48z M49.4,40.8c-0.1-1.6-0.6-2.9-1.5-3.7s-2-1.3-3.3-1.3c-1.4,0-2.5,0.4-3.3,1.3
			c-0.8,0.9-1.3,2.1-1.5,3.7H49.4z"/>
		<path class="st1" d="M59.2,22.9h6.2V55h-6.2V22.9z"/>
		<path class="st1" d="M82.6,50.4c1.6,0,2.9-0.2,3.8-0.5c1.9-0.7,2.8-1.9,2.8-3.7c0-1.1-0.5-1.9-1.4-2.5s-2.4-1.1-4.4-1.5L80,41.4
			c-3.3-0.8-5.6-1.6-6.9-2.5c-2.2-1.5-3.2-3.8-3.2-6.9c0-2.9,1-5.3,3.1-7.2c2.1-1.9,5.2-2.8,9.2-2.8c3.4,0,6.3,0.9,8.6,2.7
			c2.4,1.8,3.6,4.4,3.8,7.8h-6.4c-0.1-1.9-1-3.3-2.5-4.1c-1-0.5-2.3-0.8-3.9-0.8c-1.7,0-3.1,0.3-4.1,1s-1.5,1.7-1.5,2.9
			c0,1.1,0.5,2,1.5,2.6c0.7,0.4,2,0.8,4.2,1.3l5.5,1.3c2.4,0.6,4.2,1.4,5.5,2.3c1.9,1.5,2.9,3.7,2.9,6.5c0,2.9-1.1,5.4-3.4,7.3
			s-5.4,2.9-9.5,2.9c-4.2,0-7.5-1-9.9-2.9s-3.6-4.5-3.6-7.9h6.4c0.2,1.5,0.6,2.6,1.2,3.3C78.1,49.7,80,50.4,82.6,50.4z"/>
		<path class="st1" d="M120.5,48c-0.2,1.4-0.9,2.8-2.2,4.3c-2,2.3-4.9,3.5-8.5,3.5c-3,0-5.7-1-8-2.9s-3.5-5.1-3.5-9.5
			c0-4.1,1-7.2,3.1-9.4s4.8-3.3,8.1-3.3c2,0,3.7,0.4,5.3,1.1c1.6,0.7,2.9,1.9,3.9,3.5c0.9,1.4,1.5,3,1.8,4.9
			c0.2,1.1,0.2,2.7,0.2,4.7h-16.2c0.1,2.4,0.8,4,2.2,5c0.9,0.6,1.9,0.9,3.1,0.9c1.3,0,2.3-0.4,3.1-1.1c0.4-0.4,0.8-0.9,1.2-1.6h6.4
			L120.5,48L120.5,48z M114.4,40.8c-0.1-1.6-0.6-2.9-1.5-3.7s-2-1.3-3.3-1.3c-1.4,0-2.5,0.4-3.3,1.3c-0.8,0.9-1.3,2.1-1.5,3.7H114.4
			z"/>
		<path class="st1" d="M125.9,33.8c1.6-2.1,4.5-3.1,8.4-3.1c2.6,0,4.9,0.5,6.9,1.5c2,1,3,3,3,5.8v10.9c0,0.8,0,1.7,0,2.7
			c0,0.8,0.2,1.4,0.4,1.7s0.5,0.5,0.9,0.7v0.9h-6.7c-0.2-0.5-0.3-0.9-0.4-1.3c-0.1-0.4-0.1-0.9-0.2-1.4c-0.9,0.9-1.8,1.7-3,2.4
			c-1.3,0.8-2.8,1.2-4.5,1.2c-2.1,0-3.9-0.6-5.3-1.8c-1.4-1.2-2.1-3-2.1-5.2c0-2.9,1.1-5,3.4-6.3c1.2-0.7,3-1.2,5.4-1.5l2.1-0.3
			c1.1-0.1,2-0.3,2.5-0.5c0.9-0.4,1.3-1,1.3-1.8c0-1-0.3-1.6-1-2s-1.7-0.6-3-0.6c-1.5,0-2.5,0.4-3.1,1.1c-0.4,0.5-0.7,1.3-0.9,2.2
			h-6C124.3,36.9,124.9,35.2,125.9,33.8z M130.5,50.5c0.6,0.5,1.3,0.7,2.1,0.7c1.3,0,2.6-0.4,3.7-1.2s1.7-2.2,1.8-4.3v-2.3
			c-0.4,0.2-0.8,0.4-1.2,0.6c-0.4,0.2-0.9,0.3-1.6,0.4l-1.4,0.3c-1.3,0.2-2.2,0.5-2.8,0.8c-1,0.6-1.4,1.4-1.4,2.6
			C129.6,49.3,129.9,50,130.5,50.5z"/>
		<path class="st1" d="M160.8,37c-2.5,0-4.2,0.8-5,2.4c-0.5,0.9-0.7,2.3-0.7,4.2v11.3h-6.2V31.3h5.9v4.1c1-1.6,1.8-2.7,2.5-3.2
			c1.2-1,2.7-1.5,4.5-1.5c0.1,0,0.2,0,0.3,0s0.3,0,0.5,0v6.4c-0.4,0-0.7-0.1-1-0.1S161,37,160.8,37z"/>
		<path class="st1" d="M184.9,39.8h-6.4c-0.1-0.9-0.4-1.7-0.9-2.4c-0.7-1-1.8-1.4-3.2-1.4c-2.1,0-3.5,1-4.3,3.1
			c-0.4,1.1-0.6,2.6-0.6,4.4c0,1.7,0.2,3.1,0.6,4.2c0.7,2,2.1,3,4.2,3c1.4,0,2.5-0.4,3.1-1.2s1-1.8,1.1-3h6.3
			c-0.1,1.9-0.8,3.7-2,5.4c-1.9,2.7-4.8,4.1-8.6,4.1s-6.6-1.1-8.4-3.4c-1.8-2.3-2.7-5.2-2.7-8.8c0-4.1,1-7.2,3-9.5s4.7-3.4,8.2-3.4
			c3,0,5.4,0.7,7.3,2C183.5,34,184.6,36.4,184.9,39.8z"/>
		<path class="st1" d="M209.7,41.1V55h-6.3V40.6c0-1.3-0.2-2.3-0.7-3.1c-0.6-1.1-1.6-1.7-3.2-1.7c-1.6,0-2.9,0.5-3.7,1.6
			s-1.3,2.7-1.3,4.7v12.8h-6.1v-32h6.2v11.3c0.9-1.4,1.9-2.3,3.1-2.9c1.2-0.5,2.4-0.8,3.7-0.8c1.5,0,2.8,0.3,4,0.8s2.2,1.3,2.9,2.3
			c0.7,0.9,1.1,1.8,1.2,2.7C209.7,37.4,209.7,38.9,209.7,41.1z"/>
	</g>
</g>
</svg>
