<?xml version="1.0" encoding="utf-8"?>
<!-- Generator: Adobe Illustrator 27.4.0, SVG Export Plug-In . SVG Version: 6.00 Build 0)  -->
<svg version="1.1" id="レイヤー_1" xmlns="http://www.w3.org/2000/svg" xmlns:xlink="http://www.w3.org/1999/xlink" x="0px"
	 y="0px" viewBox="0 0 355.6 59.3" style="enable-background:new 0 0 355.6 59.3;" xml:space="preserve">
<style type="text/css">
	.st0{fill:#4AB223;}
	.st1{fill:#2A3356;}
	.st2{enable-background:new    ;}
</style>
<g>
	<g>
		<path id="パス_105473" class="st0" d="M19,22.6c0.8-4.9-2-6.8-2-6.8c-5.1,4.3-7.4,10.2-6.9,15.3c0,0.4,0.1,0.6,0.4,1
			c0.4,0.5,1,1.1,1.5,1.4C16,36.1,19,22.6,19,22.6"/>
		<path id="パス_105474" class="st0" d="M43,33c1,4.1,8.5,0.5,12.8-3.6c1.1-1,1.2-2.6,0.1-3.7c-0.1-0.1-0.2-0.2-0.4-0.4l-4.8-4.7
			c-0.9-0.6-1.9-0.6-2.8,0l-5.4,3.8c-0.9,0.6-1.4,2.3-0.9,4.3L43,33z"/>
		<path id="パス_105475" class="st0" d="M35.6,19.8c4.7-0.4,8.6-4.1,10.7-8.5l1.9-5.2c-3.8-0.8-8.3-0.5-13.8,0.3
			C29.3,7.3,25.9,9,22,11.8C22.1,11.8,27.3,20.5,35.6,19.8"/>
		<path id="パス_105476" class="st0" d="M55.6,16.1l3.8,4.3c3.3,3.3,6.5-1.2,6.1-6.2c-2.5-3.3-6.1-5.6-10.8-6.9
			C53.9,8.9,53,13,55.6,16.1"/>
		<path id="パス_105477" class="st0" d="M22.5,37.3c0,0,7.3,1.5,11.4-0.3c3.6-1.6,1.9-8.1,1.9-8.1c-1.1-3.6-8.1-3.2-8.1-3.2
			C22.9,26,18.2,36.3,22.5,37.3"/>
		<path id="パス_105478" class="st1" d="M83.3,17.5c4.1-5.7-5.2-9.7-9.6-9c-2.3,0.4-5.4,2.8-6.5,5.5c-0.6,1.6-1,5.6-1.6,6.9
			c-1.1,2-4.7,3-6.6,1.2l-4.1-4.5c-3.3-4.2-2.8-8.4-1.7-10.7l-3.3-0.6c-0.1,0.1-2.5,5.7-2.5,5.7c-2.3,5.1-6.5,9.6-11.8,9.7
			c-10,0.1-15.3-9-15.3-9c-0.6,0.5-1.4,1.1-2,1.7l1.3,1.9c3.3,4.4-3.2,21.9-7.4,19c-1-0.8-1.7-1.6-2.5-2.5l-9.2,5.9
			c-0.6,0.5-0.6,1.4,0.2,1.4c3.4,0.5,8.7,1,13.5,1.9l0,0c-2.5,3.8-8.8,2.7-10.9,10.6c-0.5,2.5,15.1-1.4,20.4-6.5
			c8.5,0.6,23.6-1.6,31.3-5.1c-0.4,2.9-1.3,8-3.1,12c-0.6,1.3,0.2,2.3,1.4,1.6c7.6-3.6,22.5-12,20-18c-0.6-1.7-1.7-3.4-3-4.8
			C70.5,31.4,79.4,22.8,83.3,17.5 M10.3,33.5L10.3,33.5L10.3,33.5 M35.1,38.4c-1.7,0.5-3.7,0.9-5.5,0.9c-0.4,0-5.9,0-9.3-0.9
			c-1.5-0.6-1.7-2.4-1.1-4.3c0,0,2.3-9.9,8.3-10c0,0,9.7-0.1,10.1,4.1C37.5,28.3,39.8,36.7,35.1,38.4 M45.4,36.5
			c-1.6,0.4-3.2-0.5-3.8-2.2v-0.1L40.2,29c-1-2.5-0.1-4.5,1-5.3l6.7-4.7c1-0.6,2.4-0.6,3.4,0.1l5.9,5.9c1.4,1.3,1.7,3.9,0.3,5.1
			C51.2,35.3,45.4,36.5,45.4,36.5"/>
	</g>
	<g id="グループ_56575" transform="translate(135.559 3.99)">
		<g class="st2">
			<path class="st1" d="M-38.6,12.7V-3.7h6c1.1,0,1.9,0.1,2.6,0.4s1.3,0.5,1.7,1c0.4,0.4,0.7,0.9,0.8,1.5c0.2,0.5,0.2,1.1,0.2,1.7
				c0,0.9-0.2,1.7-0.6,2.2c-0.3,0.6-0.8,1.1-1.4,1.4c-0.6,0.4-1.2,0.6-2,0.7c-0.8,0.1-1.5,0.2-2.3,0.2h-3.5v7.2h-1.5V12.7z
				 M-33.5,4.1c0.7,0,1.4,0,2-0.1c0.6-0.1,1.1-0.3,1.5-0.5s0.7-0.6,0.9-1s0.3-1,0.3-1.7c0-1-0.3-1.8-1-2.3s-1.7-0.8-3.2-0.8h-4v6.5
				L-33.5,4.1L-33.5,4.1z"/>
			<path class="st1" d="M-16.9,0.9h1.4v11.8h-1.4v-1.6c-0.2,0.2-0.4,0.4-0.6,0.7c-0.2,0.2-0.5,0.4-0.8,0.6c-0.3,0.2-0.6,0.3-1,0.5
				c-0.4,0.1-0.8,0.2-1.4,0.2c-0.8,0-1.4-0.1-2-0.3c-0.5-0.2-1-0.5-1.3-0.9s-0.6-0.9-0.7-1.4s-0.2-1.1-0.2-1.7V0.9h1.4v7.7
				c0,1,0.2,1.8,0.7,2.3s1.2,0.8,2.3,0.8c0.6,0,1.1-0.1,1.5-0.3s0.8-0.5,1.1-0.9c0.3-0.4,0.5-0.9,0.7-1.4S-17,8-17,7.3L-16.9,0.9
				L-16.9,0.9z"/>
			<path class="st1" d="M-10.7,12.7h-1.4V-3.7h1.4v6.5c0.4-0.7,1-1.3,1.8-1.6s1.6-0.6,2.4-0.6c0.9,0,1.7,0.2,2.3,0.5
				C-3.5,1.4-3,1.9-2.6,2.5s0.8,1.2,1,2S-1.3,6-1.3,6.9s-0.1,1.7-0.3,2.4c-0.2,0.8-0.5,1.4-0.9,2s-1,1-1.6,1.3
				c-0.7,0.3-1.5,0.5-2.4,0.5c-0.4,0-0.8-0.1-1.2-0.2c-0.4-0.1-0.8-0.3-1.1-0.5c-0.4-0.2-0.7-0.4-1-0.7s-0.6-0.6-0.8-1l0,0
				L-10.7,12.7L-10.7,12.7z M-10.7,6.7c0,0.7,0.1,1.4,0.3,2s0.4,1.1,0.8,1.6c0.3,0.4,0.8,0.8,1.2,1.1c0.5,0.3,1.1,0.4,1.7,0.4
				s1.1-0.1,1.6-0.3s0.9-0.5,1.3-0.9s0.6-0.9,0.9-1.4s0.3-1.2,0.3-2c0-0.7,0-1.4-0.2-2.1C-3,4.5-3.2,3.9-3.5,3.4
				c-0.4-0.5-0.8-0.9-1.4-1.2C-5.4,1.9-6,1.8-6.7,1.8c-0.6,0-1.2,0.1-1.7,0.4s-0.9,0.6-1.2,1.1c-0.3,0.4-0.6,1-0.8,1.6
				C-10.6,5.4-10.7,6.1-10.7,6.7z"/>
			<path class="st1" d="M13.5,1.1c-0.3-1.4-0.9-2.4-1.8-3c-0.8-0.6-2-0.9-3.4-0.9c-1,0-1.8,0.2-2.5,0.6S4.5-1.3,4-0.6S3.2,0.8,3,1.7
				S2.7,3.5,2.7,4.4S2.8,6.2,3,7.1s0.5,1.7,0.9,2.4s1,1.2,1.8,1.7c0.7,0.4,1.7,0.6,2.8,0.6c0.7,0,1.3-0.1,1.9-0.3s1.1-0.5,1.5-0.9
				s0.8-0.9,1.1-1.4s0.5-1.1,0.7-1.8h1.6c-0.2,0.8-0.4,1.5-0.8,2.2c-0.3,0.7-0.8,1.3-1.4,1.9c-0.6,0.5-1.3,1-2.1,1.3
				s-1.8,0.5-2.9,0.5c-1.3,0-2.3-0.2-3.2-0.7s-1.6-1.1-2.2-1.9C2.1,9.9,1.7,9,1.5,8S1.1,5.9,1.1,4.7c0-1.6,0.2-2.9,0.6-4
				s0.9-2,1.6-2.7s1.5-1.2,2.4-1.5S7.6-4,8.7-4c0.8,0,1.6,0.1,2.3,0.3s1.4,0.5,1.9,1c0.6,0.4,1,1,1.4,1.6s0.7,1.3,0.8,2.2H13.5z"/>
			<path class="st1" d="M23.5,5.8c0.3,0,0.6-0.1,0.9-0.1s0.6-0.1,0.9-0.2c0.2-0.2,0.4-0.4,0.4-0.6s0.1-0.5,0.1-0.7
				c0-0.7-0.2-1.3-0.7-1.7c-0.4-0.4-1.2-0.7-2.3-0.7c-0.5,0-0.9,0-1.3,0.1s-0.7,0.2-1,0.4S20,2.8,19.8,3.1s-0.3,0.8-0.4,1.3H18
				c0-0.7,0.2-1.3,0.5-1.8s0.6-0.9,1.1-1.2s0.9-0.5,1.5-0.7c0.6-0.1,1.2-0.2,1.8-0.2s1.1,0.1,1.7,0.2c0.5,0.1,1,0.3,1.4,0.6
				s0.7,0.7,0.9,1.1s0.3,1,0.3,1.7v6.4c0,0.5,0.1,0.9,0.3,1s0.6,0.1,1.1-0.1v1.1c-0.1,0-0.3,0.1-0.5,0.1s-0.4,0.1-0.6,0.1
				s-0.4,0-0.6-0.1c-0.2,0-0.4-0.1-0.5-0.2s-0.2-0.2-0.3-0.4c-0.1-0.2-0.1-0.3-0.2-0.5c0-0.2,0-0.4,0-0.6c-0.6,0.6-1.2,1.1-2,1.5
				c-0.7,0.3-1.5,0.5-2.4,0.5c-0.5,0-1-0.1-1.5-0.2s-0.9-0.3-1.3-0.6S18,11.5,17.8,11c-0.2-0.4-0.3-0.9-0.3-1.5c0-2,1.4-3.2,4.1-3.5
				L23.5,5.8z M25.8,6.5C25.2,6.7,24.6,6.9,24,7s-1.2,0.1-1.8,0.2c-1,0.1-1.9,0.3-2.4,0.7c-0.6,0.4-0.9,1-0.9,1.8
				c0,0.4,0.1,0.7,0.2,0.9c0.1,0.3,0.3,0.5,0.6,0.7c0.2,0.2,0.5,0.3,0.8,0.4c0.3,0.1,0.6,0.1,0.9,0.1c0.5,0,1.1-0.1,1.6-0.2
				c0.5-0.1,1-0.3,1.4-0.6s0.7-0.6,1-1.1c0.2-0.4,0.4-0.9,0.4-1.5C25.8,8.4,25.8,6.5,25.8,6.5z"/>
			<path class="st1" d="M31.5,9c0.2,1,0.6,1.7,1.1,2.1c0.6,0.4,1.3,0.6,2.4,0.6c0.5,0,0.9-0.1,1.3-0.2c0.4-0.1,0.7-0.3,0.9-0.5
				s0.4-0.4,0.5-0.7s0.2-0.5,0.2-0.8c0-0.6-0.2-1-0.6-1.3c-0.4-0.3-0.8-0.5-1.4-0.7c-0.6-0.2-1.2-0.3-1.8-0.4s-1.3-0.3-1.8-0.5
				c-0.6-0.2-1-0.6-1.4-1s-0.6-1-0.6-1.8c0-1,0.4-1.8,1.1-2.4c0.7-0.6,1.7-0.9,3.1-0.9c1.3,0,2.3,0.3,3.1,0.9s1.3,1.5,1.4,2.9h-1.3
				c-0.1-0.9-0.5-1.5-1-1.9s-1.3-0.6-2.1-0.6c-0.9,0-1.5,0.2-2,0.6s-0.7,0.8-0.7,1.4c0,0.5,0.2,0.9,0.6,1.2c0.4,0.3,0.8,0.5,1.4,0.7
				c0.6,0.2,1.2,0.3,1.8,0.5c0.7,0.1,1.3,0.3,1.8,0.6c0.6,0.2,1,0.6,1.4,1s0.6,1,0.6,1.8c0,0.6-0.1,1.1-0.4,1.5s-0.6,0.8-1,1.1
				s-0.9,0.5-1.5,0.6C36,12.9,35.4,13,34.7,13s-1.3-0.1-1.9-0.3c-0.5-0.2-1-0.5-1.4-0.9s-0.7-0.8-0.9-1.3s-0.3-1-0.4-1.6L31.5,9
				L31.5,9z"/>
			<path class="st1" d="M42.9,7.1c0,0.6,0.1,1.2,0.2,1.8c0.2,0.6,0.4,1.1,0.7,1.5s0.7,0.8,1.2,1s1.1,0.4,1.7,0.4
				c0.9,0,1.7-0.2,2.3-0.7s1.1-1.1,1.3-2h1.5c-0.2,0.6-0.4,1.1-0.7,1.6s-0.6,0.9-1,1.2c-0.4,0.4-0.9,0.6-1.5,0.8s-1.2,0.3-2,0.3
				c-0.9,0-1.8-0.2-2.4-0.5c-0.7-0.3-1.2-0.8-1.7-1.3s-0.8-1.2-1-2s-0.3-1.6-0.3-2.4c0-0.9,0.1-1.7,0.4-2.4s0.6-1.4,1.1-2
				s1-1,1.7-1.3s1.4-0.5,2.3-0.5c1.6,0,2.9,0.6,3.8,1.7s1.4,2.7,1.4,4.9L42.9,7.1L42.9,7.1z M50.6,6c0-0.6-0.1-1.1-0.2-1.6
				c-0.2-0.5-0.4-0.9-0.7-1.3S49,2.4,48.5,2.2s-1-0.3-1.6-0.3S45.8,2,45.3,2.2s-0.9,0.5-1.2,0.9s-0.6,0.8-0.8,1.3S43,5.4,42.9,6
				H50.6z"/>
			<path class="st1" d="M54.8,12.7V-3.7h10.5v1.3h-9v5.9h8.2v1.3h-8.2v7.8L54.8,12.7L54.8,12.7z"/>
			<path class="st1" d="M67.5-1.7v-2H69v2H67.5z M67.6,12.7V0.9H69v11.8H67.6z"/>
			<path class="st1" d="M73.8,12.7h-1.4V0.9h1.4v1.6c0.5-0.6,1.1-1,1.7-1.4s1.3-0.5,2.1-0.5c0.7,0,1.4,0.1,2,0.4s1.1,0.7,1.6,1.3
				c0.3,0.4,0.5,0.9,0.5,1.3C81.8,4,81.8,4.5,81.8,5v7.7h-1.4V5c0-1.1-0.2-1.9-0.7-2.4s-1.2-0.8-2.3-0.8c-0.4,0-0.8,0.1-1.2,0.2
				c-0.3,0.1-0.7,0.3-0.9,0.5S74.7,3,74.5,3.2c-0.2,0.3-0.3,0.6-0.5,0.9c-0.1,0.4-0.2,0.7-0.2,1.1c0,0.3,0,0.7,0,1.1
				C73.8,6.3,73.8,12.7,73.8,12.7z"/>
			<path class="st1" d="M94.1-3.7h1.4v16.4h-1.4v-2.1l0,0c-0.2,0.4-0.5,0.7-0.8,1s-0.7,0.5-1,0.7c-0.4,0.2-0.8,0.3-1.1,0.5
				C90.8,12.9,90.4,13,90,13c-1,0-1.8-0.2-2.4-0.5c-0.7-0.3-1.2-0.8-1.6-1.3c-0.4-0.6-0.7-1.2-0.9-2c-0.2-0.8-0.3-1.6-0.3-2.4
				s0.1-1.6,0.3-2.4c0.2-0.8,0.5-1.4,1-2s1-1,1.6-1.4c0.7-0.3,1.4-0.5,2.3-0.5c0.8,0,1.6,0.2,2.4,0.6s1.4,0.9,1.8,1.6v-6.4
				C94.2-3.7,94.1-3.7,94.1-3.7z M94.1,6.7c0-0.7-0.1-1.3-0.3-1.9c-0.2-0.6-0.4-1.1-0.8-1.6c-0.3-0.4-0.8-0.8-1.2-1.1
				c-0.5-0.3-1-0.4-1.7-0.4s-1.3,0.1-1.8,0.4S87.4,2.8,87,3.2c-0.3,0.5-0.6,1-0.7,1.7c-0.2,0.6-0.2,1.3-0.2,2.1c0,0.7,0.1,1.4,0.3,2
				c0.2,0.6,0.5,1,0.9,1.4s0.8,0.7,1.3,0.9s1,0.3,1.6,0.3s1.2-0.1,1.7-0.4c0.5-0.3,0.9-0.6,1.2-1.1c0.3-0.4,0.6-1,0.8-1.6
				C94.1,8.1,94.1,7.4,94.1,6.7z"/>
			<path class="st1" d="M99.8,7.1c0,0.6,0.1,1.2,0.2,1.8c0.2,0.6,0.4,1.1,0.7,1.5c0.3,0.4,0.7,0.8,1.2,1s1.1,0.4,1.7,0.4
				c0.9,0,1.7-0.2,2.3-0.7s1.1-1.1,1.3-2h1.5c-0.2,0.6-0.4,1.1-0.7,1.6s-0.6,0.9-1,1.2c-0.4,0.4-0.9,0.6-1.5,0.8s-1.2,0.3-2,0.3
				c-0.9,0-1.8-0.2-2.4-0.5c-0.7-0.3-1.2-0.8-1.7-1.3s-0.8-1.2-1-2s-0.3-1.6-0.3-2.4c0-0.9,0.1-1.7,0.4-2.4s0.6-1.4,1.1-2
				s1-1,1.7-1.3s1.4-0.5,2.3-0.5c1.6,0,2.9,0.6,3.8,1.7s1.4,2.7,1.4,4.9L99.8,7.1L99.8,7.1z M107.5,6c0-0.6-0.1-1.1-0.2-1.6
				c-0.2-0.5-0.4-0.9-0.7-1.3s-0.7-0.7-1.2-0.9c-0.5-0.2-1-0.3-1.6-0.3s-1.1,0.1-1.6,0.3s-0.9,0.5-1.2,0.9s-0.6,0.8-0.8,1.3
				c-0.2,0.5-0.3,1-0.4,1.6C99.8,6,107.5,6,107.5,6z"/>
			<path class="st1" d="M113,12.7h-1.4V0.9h1.4v2.2l0,0c0.4-0.9,0.9-1.6,1.5-2s1.4-0.6,2.4-0.6V2c-0.8,0-1.4,0.1-1.9,0.4
				s-0.9,0.6-1.2,1s-0.5,1-0.6,1.6S113,6.2,113,6.9V12.7z"/>
		</g>
		<g class="st2">
			<path class="st1" d="M-25.6,42.8h-6.8v11.5h-6.7V22.2h14c3.2,0,5.8,0.8,7.7,2.5s2.9,4.2,2.9,7.7c0,3.8-1,6.5-2.9,8
				S-22.1,42.8-25.6,42.8z M-22.5,36.1c0.9-0.8,1.3-2,1.3-3.7s-0.4-2.9-1.3-3.6s-2.1-1.1-3.7-1.1h-6.2v9.5h6.2
				C-24.6,37.2-23.4,36.8-22.5,36.1z"/>
			<path class="st1" d="M-10.9,33.1C-9.3,31-6.4,30-2.5,30c2.6,0,4.9,0.5,6.9,1.5s3,3,3,5.8v10.9c0,0.8,0,1.7,0,2.7
				c0,0.8,0.2,1.4,0.4,1.7c0.2,0.3,0.5,0.5,0.9,0.7v0.9H2c-0.2-0.5-0.3-0.9-0.4-1.3c-0.1-0.4-0.1-0.9-0.2-1.4
				c-0.9,0.9-1.8,1.7-3,2.4c-1.3,0.8-2.8,1.2-4.5,1.2c-2.1,0-3.9-0.6-5.3-1.8s-2.1-3-2.1-5.2c0-2.9,1.1-5,3.4-6.3
				c1.2-0.7,3-1.2,5.4-1.5l2.1-0.3c1.1-0.1,2-0.3,2.5-0.5c0.9-0.4,1.3-1,1.3-1.8c0-1-0.3-1.6-1-2s-1.7-0.6-3-0.6
				c-1.5,0-2.5,0.4-3.1,1.1c-0.4,0.5-0.7,1.3-0.9,2.2h-6C-12.5,36.2-11.9,34.5-10.9,33.1z M-6.3,49.8c0.6,0.5,1.3,0.7,2.1,0.7
				c1.3,0,2.6-0.4,3.7-1.2s1.7-2.2,1.8-4.3v-2.3c-0.4,0.2-0.8,0.4-1.2,0.6c-0.4,0.2-0.9,0.3-1.6,0.4L-2.9,44
				c-1.3,0.2-2.2,0.5-2.8,0.8c-1,0.6-1.4,1.4-1.4,2.6C-7.2,48.6-6.9,49.3-6.3,49.8z"/>
			<path class="st1" d="M22.4,35.2c-2.1,0-3.5,0.9-4.3,2.7c-0.4,0.9-0.6,2.1-0.6,3.6v12.8h-6.2V30.6h6v3.5c0.8-1.2,1.6-2.1,2.3-2.6
				c1.3-1,2.9-1.4,4.9-1.4c2.5,0,4.5,0.6,6,1.9c1.6,1.3,2.3,3.4,2.3,6.4v16h-6.4V39.9c0-1.2-0.2-2.2-0.5-2.9
				C25.2,35.8,24.1,35.2,22.4,35.2z"/>
			<path class="st1" d="M57.8,47.3c-0.2,1.4-0.9,2.8-2.2,4.3c-2,2.3-4.9,3.5-8.5,3.5c-3,0-5.7-1-8-2.9s-3.5-5.1-3.5-9.5
				c0-4.1,1-7.2,3.1-9.4s4.8-3.3,8.1-3.3c2,0,3.7,0.4,5.3,1.1S55,33,56,34.6c0.9,1.4,1.5,3,1.8,4.9c0.2,1.1,0.2,2.7,0.2,4.7H41.9
				c0.1,2.4,0.8,4,2.2,5c0.9,0.6,1.9,0.9,3.1,0.9c1.3,0,2.3-0.4,3.1-1.1c0.4-0.4,0.8-0.9,1.2-1.6h6.3C57.8,47.4,57.8,47.3,57.8,47.3
				z M51.7,40.1c-0.1-1.6-0.6-2.9-1.5-3.7s-2-1.3-3.3-1.3c-1.4,0-2.5,0.4-3.3,1.3c-0.8,0.9-1.3,2.1-1.5,3.7H51.7z"/>
			<path class="st1" d="M61.5,22.2h6.2v32.1h-6.2C61.5,54.3,61.5,22.2,61.5,22.2z"/>
			<path class="st1" d="M92.9,49.7c1.6,0,2.9-0.2,3.8-0.5c1.9-0.7,2.8-1.9,2.8-3.7c0-1.1-0.5-1.9-1.4-2.5s-2.4-1.1-4.4-1.5l-3.4-0.8
				c-3.3-0.8-5.6-1.6-6.9-2.5c-2.2-1.5-3.2-3.8-3.2-6.9c0-2.9,1-5.3,3.1-7.2c2.1-1.9,5.2-2.8,9.2-2.8c3.4,0,6.3,0.9,8.6,2.7
				c2.4,1.8,3.6,4.4,3.8,7.8h-6.4c-0.1-1.9-1-3.3-2.5-4.1c-1-0.5-2.3-0.8-3.9-0.8c-1.7,0-3.1,0.3-4.1,1s-1.5,1.7-1.5,2.9
				c0,1.1,0.5,2,1.5,2.6c0.7,0.4,2,0.8,4.2,1.3l5.5,1.3c2.4,0.6,4.2,1.4,5.5,2.3c1.9,1.5,2.9,3.7,2.9,6.5c0,2.9-1.1,5.4-3.4,7.3
				S97.3,55,93.2,55c-4.2,0-7.5-1-9.9-2.9s-3.6-4.5-3.6-7.9h6.4c0.2,1.5,0.6,2.6,1.2,3.3C88.4,49,90.3,49.7,92.9,49.7z"/>
			<path class="st1" d="M130.8,47.3c-0.2,1.4-0.9,2.8-2.2,4.3c-2,2.3-4.9,3.5-8.5,3.5c-3,0-5.7-1-8-2.9s-3.5-5.1-3.5-9.5
				c0-4.1,1-7.2,3.1-9.4s4.8-3.3,8.1-3.3c2,0,3.7,0.4,5.3,1.1c1.6,0.7,2.9,1.9,3.9,3.5c0.9,1.4,1.5,3,1.8,4.9
				c0.2,1.1,0.2,2.7,0.2,4.7h-16.2c0.1,2.4,0.8,4,2.2,5c0.9,0.6,1.9,0.9,3.1,0.9c1.3,0,2.3-0.4,3.1-1.1c0.4-0.4,0.8-0.9,1.2-1.6h6.4
				L130.8,47.3L130.8,47.3z M124.7,40.1c-0.1-1.6-0.6-2.9-1.5-3.7s-2-1.3-3.3-1.3c-1.4,0-2.5,0.4-3.3,1.3c-0.8,0.9-1.3,2.1-1.5,3.7
				H124.7z"/>
			<path class="st1" d="M136.2,33.1c1.6-2.1,4.5-3.1,8.4-3.1c2.6,0,4.9,0.5,6.9,1.5c2,1,3,3,3,5.8v10.9c0,0.8,0,1.7,0,2.7
				c0,0.8,0.2,1.4,0.4,1.7s0.5,0.5,0.9,0.7v0.9h-6.7c-0.2-0.5-0.3-0.9-0.4-1.3c-0.1-0.4-0.1-0.9-0.2-1.4c-0.9,0.9-1.8,1.7-3,2.4
				c-1.3,0.8-2.8,1.2-4.5,1.2c-2.1,0-3.9-0.6-5.3-1.8c-1.4-1.2-2.1-3-2.1-5.2c0-2.9,1.1-5,3.4-6.3c1.2-0.7,3-1.2,5.4-1.5l2.1-0.3
				c1.1-0.1,2-0.3,2.5-0.5c0.9-0.4,1.3-1,1.3-1.8c0-1-0.3-1.6-1-2s-1.7-0.6-3-0.6c-1.5,0-2.5,0.4-3.1,1.1c-0.4,0.5-0.7,1.3-0.9,2.2
				h-6C134.6,36.2,135.2,34.5,136.2,33.1z M140.8,49.8c0.6,0.5,1.3,0.7,2.1,0.7c1.3,0,2.6-0.4,3.7-1.2s1.7-2.2,1.8-4.3v-2.3
				c-0.4,0.2-0.8,0.4-1.2,0.6c-0.4,0.2-0.9,0.3-1.6,0.4l-1.4,0.3c-1.3,0.2-2.2,0.5-2.8,0.8c-1,0.6-1.4,1.4-1.4,2.6
				C139.9,48.6,140.2,49.3,140.8,49.8z"/>
			<path class="st1" d="M171.1,36.3c-2.5,0-4.2,0.8-5,2.4c-0.5,0.9-0.7,2.3-0.7,4.2v11.3h-6.2V30.6h5.9v4.1c1-1.6,1.8-2.7,2.5-3.2
				c1.2-1,2.7-1.5,4.5-1.5c0.1,0,0.2,0,0.3,0s0.3,0,0.5,0v6.4c-0.4,0-0.7-0.1-1-0.1S171.3,36.3,171.1,36.3z"/>
			<path class="st1" d="M195.2,39.1h-6.4c-0.1-0.9-0.4-1.7-0.9-2.4c-0.7-1-1.8-1.4-3.2-1.4c-2.1,0-3.5,1-4.3,3.1
				c-0.4,1.1-0.6,2.6-0.6,4.4c0,1.7,0.2,3.1,0.6,4.2c0.7,2,2.1,3,4.2,3c1.4,0,2.5-0.4,3.1-1.2s1-1.8,1.1-3h6.3
				c-0.1,1.9-0.8,3.7-2,5.4c-1.9,2.7-4.8,4.1-8.6,4.1s-6.6-1.1-8.4-3.4c-1.8-2.3-2.7-5.2-2.7-8.8c0-4.1,1-7.2,3-9.5s4.7-3.4,8.2-3.4
				c3,0,5.4,0.7,7.3,2C193.8,33.3,194.9,35.7,195.2,39.1z"/>
			<path class="st1" d="M220,40.4v13.9h-6.3V39.9c0-1.3-0.2-2.3-0.7-3.1c-0.6-1.1-1.6-1.7-3.2-1.7c-1.6,0-2.9,0.5-3.7,1.6
				s-1.3,2.7-1.3,4.7v12.8h-6.1v-32h6.2v11.3c0.9-1.4,1.9-2.3,3.1-2.9c1.2-0.5,2.4-0.8,3.7-0.8c1.5,0,2.8,0.3,4,0.8s2.2,1.3,2.9,2.3
				c0.7,0.9,1.1,1.8,1.2,2.7C220,36.7,220,38.2,220,40.4z"/>
		</g>
	</g>
</g>
</svg>
