<?xml version="1.0" encoding="utf-8"?>
<!-- Generator: Adobe Illustrator 27.4.0, SVG Export Plug-In . SVG Version: 6.00 Build 0)  -->
<svg version="1.1" id="レイヤー_1" xmlns="http://www.w3.org/2000/svg" xmlns:xlink="http://www.w3.org/1999/xlink" x="0px"
	 y="0px" viewBox="0 0 353.2 61.2" style="enable-background:new 0 0 353.2 61.2;" xml:space="preserve">
<style type="text/css">
	.st0{fill:#4AB223;}
	.st1{fill:#2A3356;}
	.st2{enable-background:new    ;}
</style>
<g>
	<path id="パス_105473" class="st0" d="M14.9,27.2c-0.3-5.1-3.6-6.3-3.6-6.3c-4.1,5.4-5,11.8-3.3,16.8c0.1,0.4,0.2,0.6,0.6,0.9
		c0.5,0.4,1.2,0.9,1.8,1C15.1,41.3,14.9,27.2,14.9,27.2"/>
	<path id="パス_105474" class="st0" d="M41.2,32c1.9,3.8,8.6-1.5,11.9-6.5c0.9-1.2,0.6-2.9-0.8-3.7c-0.1-0.1-0.2-0.2-0.5-0.3
		L46,17.9c-1-0.4-2-0.2-2.8,0.6l-4.5,5c-0.8,0.8-0.9,2.6,0.1,4.5L41.2,32z"/>
	<path id="パス_105475" class="st0" d="M30.8,20.6c4.6-1.5,7.6-6.1,8.7-10.9l0.7-5.6c-4,0.1-8.4,1.4-13.6,3.5
		c-4.9,2.1-7.8,4.5-11.1,8.2C15.5,15.8,22.7,23.2,30.8,20.6"/>
	<path id="パス_105476" class="st0" d="M49.8,12.3l4.8,3.4c4,2.5,6.2-2.7,4.6-7.6C56,5.4,51.9,4,46.9,3.8
		C46.5,5.6,46.5,9.8,49.8,12.3"/>
	<path id="パス_105477" class="st0" d="M21.8,41c0,0,7.6-0.2,11.3-2.9c3.2-2.4,0-8.5,0-8.5c-1.9-3.3-8.8-1.3-8.8-1.3
		C19.6,29.7,17.3,41,21.8,41"/>
	<path id="パス_105478" class="st1" d="M77.7,7.3c2.8-6.6-7.4-8.4-11.6-6.7c-2.2,0.9-4.7,4-5.2,7c-0.2,1.7,0.3,5.8,0,7.2
		c-0.6,2.2-4,4.1-6.3,2.7L49.5,14c-4.2-3.4-4.7-7.7-4.2-10.2l-3.4,0.2c-0.1,0.1-1.2,6.2-1.2,6.2c-1.1,5.6-4.3,11-9.5,12.4
		C21.3,24.9,14,17.1,14,17.1c-0.5,0.6-1.1,1.4-1.6,2.1l1.7,1.6c4.3,3.6,1.9,22.5-3,20.6C9.9,40.8,9,40.2,8,39.5l-7.8,8
		C-0.2,48.1,0,49,0.8,48.8c3.5-0.3,8.9-1,13.9-1.2l0,0c-1.6,4.4-8.1,4.7-8.4,13c0.1,2.6,14.7-4.9,18.8-11.2
		c8.6-1.4,23.1-7,29.9-12.3c0.3,3,0.5,8.2-0.3,12.6c-0.3,1.4,0.7,2.2,1.8,1.3C63.1,45.8,76,34,72.1,28.6c-1-1.6-2.5-3-4.1-4.1
		C68.1,24.1,75,13.5,77.7,7.3 M8.8,40L8.8,40L8.8,40 M34.6,39.2c-1.6,0.9-3.5,1.7-5.3,2.2c-0.4,0.1-5.9,1.4-9.4,1.2
		c-1.6-0.3-2.2-2-2.1-4c0,0,0-10.4,5.9-11.8c0,0,9.6-2.3,11,1.8C34.6,28.6,38.9,36.4,34.6,39.2 M44.4,34.9c-1.5,0.8-3.3,0.2-4.3-1.3
		l0-0.1l-2.6-4.8c-1.6-2.3-1.1-4.4-0.2-5.5l5.6-6.2c0.9-0.8,2.2-1.1,3.4-0.7l7.2,4.5c1.7,1,2.6,3.5,1.5,5
		C49.9,32.4,44.4,34.9,44.4,34.9"/>
</g>
<g id="グループ_56575" transform="translate(135.559 3.99)">
	<g class="st2">
		<path class="st1" d="M-40.9,13.4V-3h6c1.1,0,1.9,0.1,2.6,0.4s1.3,0.5,1.7,1c0.4,0.4,0.7,0.9,0.8,1.5c0.2,0.5,0.2,1.1,0.2,1.7
			c0,0.9-0.2,1.7-0.6,2.2c-0.3,0.6-0.8,1.1-1.4,1.4c-0.6,0.4-1.2,0.6-2,0.7s-1.5,0.2-2.3,0.2h-3.5v7.2h-1.5V13.4z M-35.8,4.8
			c0.7,0,1.4,0,2-0.1s1.1-0.3,1.5-0.5c0.4-0.2,0.7-0.6,0.9-1s0.3-1,0.3-1.7c0-1-0.3-1.8-1-2.3s-1.7-0.8-3.2-0.8h-4v6.5L-35.8,4.8
			L-35.8,4.8z"/>
		<path class="st1" d="M-19.2,1.6h1.4v11.8h-1.4v-1.6c-0.2,0.2-0.4,0.4-0.6,0.7c-0.2,0.2-0.5,0.4-0.8,0.6c-0.3,0.2-0.6,0.3-1,0.5
			c-0.4,0.1-0.8,0.2-1.4,0.2c-0.8,0-1.4-0.1-2-0.3c-0.5-0.2-1-0.5-1.3-0.9s-0.6-0.9-0.7-1.4s-0.2-1.1-0.2-1.7V1.6h1.4v7.7
			c0,1,0.2,1.8,0.7,2.3s1.2,0.8,2.3,0.8c0.6,0,1.1-0.1,1.5-0.3s0.8-0.5,1.1-0.9c0.3-0.4,0.5-0.9,0.7-1.4s0.2-1.1,0.2-1.8L-19.2,1.6
			L-19.2,1.6z"/>
		<path class="st1" d="M-13,13.4h-1.4V-3h1.4v6.5c0.4-0.7,1-1.3,1.8-1.6s1.6-0.6,2.4-0.6c0.9,0,1.7,0.2,2.3,0.5
			c0.7,0.3,1.2,0.8,1.6,1.4s0.8,1.2,1,2s0.3,1.5,0.3,2.4S-3.7,9.3-3.9,10c-0.2,0.8-0.5,1.4-0.9,2s-1,1-1.6,1.3
			c-0.7,0.3-1.5,0.5-2.4,0.5c-0.4,0-0.8-0.1-1.2-0.2c-0.4-0.1-0.8-0.3-1.1-0.5c-0.4-0.2-0.7-0.4-1-0.7s-0.6-0.6-0.8-1l0,0L-13,13.4
			L-13,13.4z M-13,7.4c0,0.7,0.1,1.4,0.3,2s0.4,1.1,0.8,1.6c0.3,0.4,0.8,0.8,1.2,1.1c0.5,0.3,1.1,0.4,1.7,0.4c0.6,0,1.1-0.1,1.6-0.3
			s0.9-0.5,1.3-0.9c0.4-0.4,0.6-0.9,0.9-1.4s0.3-1.2,0.3-2c0-0.7,0-1.4-0.2-2.1c-0.2-0.6-0.4-1.2-0.7-1.7c-0.4-0.5-0.8-0.9-1.4-1.2
			C-7.7,2.6-8.3,2.5-9,2.5c-0.6,0-1.2,0.1-1.7,0.4s-0.9,0.6-1.2,1.1c-0.3,0.4-0.6,1-0.8,1.6C-12.9,6.1-13,6.8-13,7.4z"/>
		<path class="st1" d="M11.2,1.8c-0.3-1.4-0.9-2.4-1.8-3C8.6-1.8,7.4-2.1,6-2.1c-1,0-1.8,0.2-2.5,0.6S2.2-0.6,1.7,0.1
			s-0.8,1.4-1,2.3S0.4,4.2,0.4,5.1s0.1,1.8,0.3,2.7s0.5,1.7,0.9,2.4s1,1.2,1.8,1.7c0.7,0.4,1.7,0.6,2.8,0.6c0.7,0,1.3-0.1,1.9-0.3
			s1.1-0.5,1.5-0.9s0.8-0.9,1.1-1.4s0.5-1.1,0.7-1.8H13c-0.2,0.8-0.4,1.5-0.8,2.2c-0.3,0.7-0.8,1.3-1.4,1.9c-0.6,0.5-1.3,1-2.1,1.3
			S6.9,14,5.8,14c-1.3,0-2.3-0.2-3.2-0.7S1,12.2,0.4,11.4c-0.6-0.8-1-1.7-1.2-2.7s-0.4-2.1-0.4-3.3c0-1.6,0.2-2.9,0.6-4
			s0.9-2,1.6-2.7s1.5-1.2,2.4-1.5s1.9-0.5,3-0.5C7.2-3.3,8-3.2,8.7-3s1.4,0.5,1.9,1c0.6,0.4,1,1,1.4,1.6s0.7,1.3,0.8,2.2H11.2z"/>
		<path class="st1" d="M21.2,6.5c0.3,0,0.6-0.1,0.9-0.1s0.6-0.1,0.9-0.2c0.2-0.2,0.4-0.4,0.4-0.6s0.1-0.5,0.1-0.7
			c0-0.7-0.2-1.3-0.7-1.7c-0.4-0.4-1.2-0.7-2.3-0.7c-0.5,0-0.9,0-1.3,0.1c-0.4,0.1-0.7,0.2-1,0.4s-0.5,0.5-0.7,0.8s-0.3,0.8-0.4,1.3
			h-1.4c0-0.7,0.2-1.3,0.5-1.8s0.6-0.9,1.1-1.2s0.9-0.5,1.5-0.7c0.6-0.1,1.2-0.2,1.8-0.2s1.1,0.1,1.7,0.2c0.5,0.1,1,0.3,1.4,0.6
			s0.7,0.7,0.9,1.1s0.3,1,0.3,1.7v6.4c0,0.5,0.1,0.9,0.3,1s0.6,0.1,1.1-0.1v1.1c-0.1,0-0.3,0.1-0.5,0.1s-0.4,0.1-0.6,0.1
			s-0.4,0-0.6-0.1c-0.2,0-0.4-0.1-0.5-0.2s-0.2-0.2-0.3-0.4c-0.1-0.2-0.1-0.3-0.2-0.5c0-0.2,0-0.4,0-0.6c-0.6,0.6-1.2,1.1-2,1.5
			c-0.7,0.3-1.5,0.5-2.4,0.5c-0.5,0-1-0.1-1.5-0.2s-0.9-0.3-1.3-0.6s-0.7-0.6-0.9-1.1c-0.2-0.4-0.3-0.9-0.3-1.5c0-2,1.4-3.2,4.1-3.5
			L21.2,6.5z M23.5,7.2c-0.6,0.2-1.2,0.4-1.8,0.5s-1.2,0.1-1.8,0.2c-1,0.1-1.9,0.3-2.4,0.7c-0.6,0.4-0.9,1-0.9,1.8
			c0,0.4,0.1,0.7,0.2,0.9c0.1,0.3,0.3,0.5,0.6,0.7c0.2,0.2,0.5,0.3,0.8,0.4c0.3,0.1,0.6,0.1,0.9,0.1c0.5,0,1.1-0.1,1.6-0.2
			c0.5-0.1,1-0.3,1.4-0.6s0.7-0.6,1-1.1c0.2-0.4,0.4-0.9,0.4-1.5C23.5,9.1,23.5,7.2,23.5,7.2z"/>
		<path class="st1" d="M29.2,9.7c0.2,1,0.6,1.7,1.1,2.1c0.6,0.4,1.3,0.6,2.4,0.6c0.5,0,0.9-0.1,1.3-0.2c0.4-0.1,0.7-0.3,0.9-0.5
			s0.4-0.4,0.5-0.7s0.2-0.5,0.2-0.8c0-0.6-0.2-1-0.6-1.3c-0.4-0.3-0.8-0.5-1.4-0.7C33,8,32.4,7.9,31.8,7.8c-0.6-0.1-1.3-0.3-1.8-0.5
			c-0.6-0.2-1-0.6-1.4-1S28,5.3,28,4.5c0-1,0.4-1.8,1.1-2.4c0.7-0.6,1.7-0.9,3.1-0.9c1.3,0,2.3,0.3,3.1,0.9s1.3,1.5,1.4,2.9h-1.3
			c-0.1-0.9-0.5-1.5-1-1.9s-1.3-0.6-2.1-0.6c-0.9,0-1.5,0.2-2,0.6s-0.7,0.8-0.7,1.4c0,0.5,0.2,0.9,0.6,1.2C30.6,6,31,6.2,31.6,6.4
			c0.6,0.2,1.2,0.3,1.8,0.5c0.7,0.1,1.3,0.3,1.8,0.6c0.6,0.2,1,0.6,1.4,1c0.4,0.4,0.6,1,0.6,1.8c0,0.6-0.1,1.1-0.4,1.5
			s-0.6,0.8-1,1.1s-0.9,0.5-1.5,0.6c-0.6,0.1-1.2,0.2-1.9,0.2c-0.7,0-1.3-0.1-1.9-0.3c-0.5-0.2-1-0.5-1.4-0.9s-0.7-0.8-0.9-1.3
			s-0.3-1-0.4-1.6L29.2,9.7L29.2,9.7z"/>
		<path class="st1" d="M40.6,7.8c0,0.6,0.1,1.2,0.2,1.8c0.2,0.6,0.4,1.1,0.7,1.5s0.7,0.8,1.2,1s1.1,0.4,1.7,0.4
			c0.9,0,1.7-0.2,2.3-0.7s1.1-1.1,1.3-2h1.5c-0.2,0.6-0.4,1.1-0.7,1.6s-0.6,0.9-1,1.2c-0.4,0.4-0.9,0.6-1.5,0.8s-1.2,0.3-2,0.3
			c-0.9,0-1.8-0.2-2.4-0.5c-0.7-0.3-1.2-0.8-1.7-1.3s-0.8-1.2-1-2s-0.3-1.6-0.3-2.4c0-0.9,0.1-1.7,0.4-2.4s0.6-1.4,1.1-2
			s1-1,1.7-1.3s1.4-0.5,2.3-0.5c1.6,0,2.9,0.6,3.8,1.7s1.4,2.7,1.4,4.9L40.6,7.8L40.6,7.8z M48.3,6.7c0-0.6-0.1-1.1-0.2-1.6
			c-0.2-0.5-0.4-0.9-0.7-1.3s-0.7-0.7-1.2-0.9s-1-0.3-1.6-0.3S43.5,2.7,43,2.9s-0.9,0.5-1.2,0.9S41.2,4.6,41,5.1s-0.3,1-0.4,1.6
			H48.3z"/>
		<path class="st1" d="M52.5,13.4V-3H63v1.3h-9v5.9h8.2v1.3H54v7.8L52.5,13.4L52.5,13.4z"/>
		<path class="st1" d="M65.2-1v-2h1.5v2H65.2z M65.3,13.4V1.6h1.4v11.8H65.3z"/>
		<path class="st1" d="M71.5,13.4h-1.4V1.6h1.4v1.6c0.5-0.6,1.1-1,1.7-1.4s1.3-0.5,2.1-0.5c0.7,0,1.4,0.1,2,0.4s1.1,0.7,1.6,1.3
			c0.3,0.4,0.5,0.9,0.5,1.3c0.1,0.4,0.1,0.9,0.1,1.4v7.7h-1.4V5.7c0-1.1-0.2-1.9-0.7-2.4s-1.2-0.8-2.3-0.8c-0.4,0-0.8,0.1-1.2,0.2
			C73.6,2.8,73.2,3,73,3.2s-0.6,0.5-0.8,0.7c-0.2,0.3-0.3,0.6-0.5,0.9c-0.1,0.4-0.2,0.7-0.2,1.1c0,0.3,0,0.7,0,1.1
			C71.5,7,71.5,13.4,71.5,13.4z"/>
		<path class="st1" d="M91.8-3h1.4v16.4h-1.4v-2.1l0,0c-0.2,0.4-0.5,0.7-0.8,1s-0.7,0.5-1,0.7c-0.4,0.2-0.8,0.3-1.1,0.5
			c-0.4,0.1-0.8,0.2-1.2,0.2c-1,0-1.8-0.2-2.4-0.5c-0.7-0.3-1.2-0.8-1.6-1.3c-0.4-0.6-0.7-1.2-0.9-2c-0.2-0.8-0.3-1.6-0.3-2.4
			s0.1-1.6,0.3-2.4c0.2-0.8,0.5-1.4,1-2s1-1,1.6-1.4c0.7-0.3,1.4-0.5,2.3-0.5c0.8,0,1.6,0.2,2.4,0.6s1.4,0.9,1.8,1.6V-3
			C91.9-3,91.8-3,91.8-3z M91.8,7.4c0-0.7-0.1-1.3-0.3-1.9c-0.2-0.6-0.4-1.1-0.8-1.6c-0.3-0.4-0.8-0.8-1.2-1.1
			c-0.5-0.3-1-0.4-1.7-0.4S86.5,2.5,86,2.8s-0.9,0.7-1.3,1.1c-0.3,0.5-0.6,1-0.7,1.7c-0.2,0.6-0.2,1.3-0.2,2.1c0,0.7,0.1,1.4,0.3,2
			c0.2,0.6,0.5,1,0.9,1.4s0.8,0.7,1.3,0.9s1,0.3,1.6,0.3s1.2-0.1,1.7-0.4c0.5-0.3,0.9-0.6,1.2-1.1c0.3-0.4,0.6-1,0.8-1.6
			C91.8,8.8,91.8,8.1,91.8,7.4z"/>
		<path class="st1" d="M97.5,7.8c0,0.6,0.1,1.2,0.2,1.8c0.2,0.6,0.4,1.1,0.7,1.5c0.3,0.4,0.7,0.8,1.2,1s1.1,0.4,1.7,0.4
			c0.9,0,1.7-0.2,2.3-0.7s1.1-1.1,1.3-2h1.5c-0.2,0.6-0.4,1.1-0.7,1.6s-0.6,0.9-1,1.2c-0.4,0.4-0.9,0.6-1.5,0.8s-1.2,0.3-2,0.3
			c-0.9,0-1.8-0.2-2.4-0.5c-0.7-0.3-1.2-0.8-1.7-1.3s-0.8-1.2-1-2s-0.3-1.6-0.3-2.4c0-0.9,0.1-1.7,0.4-2.4s0.6-1.4,1.1-2
			s1-1,1.7-1.3s1.4-0.5,2.3-0.5c1.6,0,2.9,0.6,3.8,1.7s1.4,2.7,1.4,4.9L97.5,7.8L97.5,7.8z M105.2,6.7c0-0.6-0.1-1.1-0.2-1.6
			c-0.2-0.5-0.4-0.9-0.7-1.3s-0.7-0.7-1.2-0.9c-0.5-0.2-1-0.3-1.6-0.3s-1.1,0.1-1.6,0.3S99,3.4,98.7,3.8s-0.6,0.8-0.8,1.3
			c-0.2,0.5-0.3,1-0.4,1.6C97.5,6.7,105.2,6.7,105.2,6.7z"/>
		<path class="st1" d="M110.7,13.4h-1.4V1.6h1.4v2.2l0,0c0.4-0.9,0.9-1.6,1.5-2s1.4-0.6,2.4-0.6v1.5c-0.8,0-1.4,0.1-1.9,0.4
			s-0.9,0.6-1.2,1s-0.5,1-0.6,1.6s-0.2,1.2-0.2,1.9V13.4z"/>
	</g>
	<g class="st2">
		<path class="st1" d="M-27.9,43.5h-6.8V55h-6.7V22.9h14c3.2,0,5.8,0.8,7.7,2.5s2.9,4.2,2.9,7.7c0,3.8-1,6.5-2.9,8
			S-24.4,43.5-27.9,43.5z M-24.8,36.8c0.9-0.8,1.3-2,1.3-3.7s-0.4-2.9-1.3-3.6s-2.1-1.1-3.7-1.1h-6.2v9.5h6.2
			C-26.9,37.9-25.7,37.5-24.8,36.8z"/>
		<path class="st1" d="M-13.2,33.8c1.6-2.1,4.5-3.1,8.4-3.1c2.6,0,4.9,0.5,6.9,1.5s3,3,3,5.8v10.9c0,0.8,0,1.7,0,2.7
			c0,0.8,0.2,1.4,0.4,1.7C5.7,53.6,6,53.8,6.4,54v0.9h-6.7c-0.2-0.5-0.3-0.9-0.4-1.3c-0.1-0.4-0.1-0.9-0.2-1.4
			c-0.9,0.9-1.8,1.7-3,2.4c-1.3,0.8-2.8,1.2-4.5,1.2c-2.1,0-3.9-0.6-5.3-1.8s-2.1-3-2.1-5.2c0-2.9,1.1-5,3.4-6.3
			c1.2-0.7,3-1.2,5.4-1.5l2.1-0.3c1.1-0.1,2-0.3,2.5-0.5c0.9-0.4,1.3-1,1.3-1.8c0-1-0.3-1.6-1-2s-1.7-0.6-3-0.6
			c-1.5,0-2.5,0.4-3.1,1.1c-0.4,0.5-0.7,1.3-0.9,2.2h-6C-14.8,36.9-14.2,35.2-13.2,33.8z M-8.6,50.5c0.6,0.5,1.3,0.7,2.1,0.7
			c1.3,0,2.6-0.4,3.7-1.2s1.7-2.2,1.8-4.3v-2.3c-0.4,0.2-0.8,0.4-1.2,0.6c-0.4,0.2-0.9,0.3-1.6,0.4l-1.4,0.3
			c-1.3,0.2-2.2,0.5-2.8,0.8c-1,0.6-1.4,1.4-1.4,2.6C-9.5,49.3-9.2,50-8.6,50.5z"/>
		<path class="st1" d="M20.1,35.9c-2.1,0-3.5,0.9-4.3,2.7c-0.4,0.9-0.6,2.1-0.6,3.6V55H9V31.3h6v3.5c0.8-1.2,1.6-2.1,2.3-2.6
			c1.3-1,2.9-1.4,4.9-1.4c2.5,0,4.5,0.6,6,1.9c1.6,1.3,2.3,3.4,2.3,6.4v16h-6.4V40.6c0-1.2-0.2-2.2-0.5-2.9
			C22.9,36.5,21.8,35.9,20.1,35.9z"/>
		<path class="st1" d="M55.5,48c-0.2,1.4-0.9,2.8-2.2,4.3c-2,2.3-4.9,3.5-8.5,3.5c-3,0-5.7-1-8-2.9s-3.5-5.1-3.5-9.5
			c0-4.1,1-7.2,3.1-9.4s4.8-3.3,8.1-3.3c2,0,3.7,0.4,5.3,1.1c1.6,0.7,2.9,1.9,3.9,3.5c0.9,1.4,1.5,3,1.8,4.9
			c0.2,1.1,0.2,2.7,0.2,4.7H39.6c0.1,2.4,0.8,4,2.2,5c0.9,0.6,1.9,0.9,3.1,0.9c1.3,0,2.3-0.4,3.1-1.1c0.4-0.4,0.8-0.9,1.2-1.6h6.3
			C55.5,48.1,55.5,48,55.5,48z M49.4,40.8c-0.1-1.6-0.6-2.9-1.5-3.7s-2-1.3-3.3-1.3c-1.4,0-2.5,0.4-3.3,1.3
			c-0.8,0.9-1.3,2.1-1.5,3.7H49.4z"/>
		<path class="st1" d="M59.2,22.9h6.2V55h-6.2C59.2,55,59.2,22.9,59.2,22.9z"/>
		<path class="st1" d="M90.6,50.4c1.6,0,2.9-0.2,3.8-0.5c1.9-0.7,2.8-1.9,2.8-3.7c0-1.1-0.5-1.9-1.4-2.5s-2.4-1.1-4.4-1.5L88,41.4
			c-3.3-0.8-5.6-1.6-6.9-2.5c-2.2-1.5-3.2-3.8-3.2-6.9c0-2.9,1-5.3,3.1-7.2c2.1-1.9,5.2-2.8,9.2-2.8c3.4,0,6.3,0.9,8.6,2.7
			c2.4,1.8,3.6,4.4,3.8,7.8h-6.4c-0.1-1.9-1-3.3-2.5-4.1c-1-0.5-2.3-0.8-3.9-0.8c-1.7,0-3.1,0.3-4.1,1s-1.5,1.7-1.5,2.9
			c0,1.1,0.5,2,1.5,2.6c0.7,0.4,2,0.8,4.2,1.3l5.5,1.3c2.4,0.6,4.2,1.4,5.5,2.3c1.9,1.5,2.9,3.7,2.9,6.5c0,2.9-1.1,5.4-3.4,7.3
			s-5.4,2.9-9.5,2.9c-4.2,0-7.5-1-9.9-2.9s-3.6-4.5-3.6-7.9h6.4c0.2,1.5,0.6,2.6,1.2,3.3C86.1,49.7,88,50.4,90.6,50.4z"/>
		<path class="st1" d="M128.5,48c-0.2,1.4-0.9,2.8-2.2,4.3c-2,2.3-4.9,3.5-8.5,3.5c-3,0-5.7-1-8-2.9s-3.5-5.1-3.5-9.5
			c0-4.1,1-7.2,3.1-9.4s4.8-3.3,8.1-3.3c2,0,3.7,0.4,5.3,1.1c1.6,0.7,2.9,1.9,3.9,3.5c0.9,1.4,1.5,3,1.8,4.9
			c0.2,1.1,0.2,2.7,0.2,4.7h-16.2c0.1,2.4,0.8,4,2.2,5c0.9,0.6,1.9,0.9,3.1,0.9c1.3,0,2.3-0.4,3.1-1.1c0.4-0.4,0.8-0.9,1.2-1.6h6.4
			L128.5,48L128.5,48z M122.4,40.8c-0.1-1.6-0.6-2.9-1.5-3.7s-2-1.3-3.3-1.3c-1.4,0-2.5,0.4-3.3,1.3c-0.8,0.9-1.3,2.1-1.5,3.7H122.4
			z"/>
		<path class="st1" d="M133.9,33.8c1.6-2.1,4.5-3.1,8.4-3.1c2.6,0,4.9,0.5,6.9,1.5c2,1,3,3,3,5.8v10.9c0,0.8,0,1.7,0,2.7
			c0,0.8,0.2,1.4,0.4,1.7s0.5,0.5,0.9,0.7v0.9h-6.7c-0.2-0.5-0.3-0.9-0.4-1.3c-0.1-0.4-0.1-0.9-0.2-1.4c-0.9,0.9-1.8,1.7-3,2.4
			c-1.3,0.8-2.8,1.2-4.5,1.2c-2.1,0-3.9-0.6-5.3-1.8c-1.4-1.2-2.1-3-2.1-5.2c0-2.9,1.1-5,3.4-6.3c1.2-0.7,3-1.2,5.4-1.5l2.1-0.3
			c1.1-0.1,2-0.3,2.5-0.5c0.9-0.4,1.3-1,1.3-1.8c0-1-0.3-1.6-1-2s-1.7-0.6-3-0.6c-1.5,0-2.5,0.4-3.1,1.1c-0.4,0.5-0.7,1.3-0.9,2.2
			h-6C132.3,36.9,132.9,35.2,133.9,33.8z M138.5,50.5c0.6,0.5,1.3,0.7,2.1,0.7c1.3,0,2.6-0.4,3.7-1.2s1.7-2.2,1.8-4.3v-2.3
			c-0.4,0.2-0.8,0.4-1.2,0.6c-0.4,0.2-0.9,0.3-1.6,0.4l-1.4,0.3c-1.3,0.2-2.2,0.5-2.8,0.8c-1,0.6-1.4,1.4-1.4,2.6
			C137.6,49.3,137.9,50,138.5,50.5z"/>
		<path class="st1" d="M168.8,37c-2.5,0-4.2,0.8-5,2.4c-0.5,0.9-0.7,2.3-0.7,4.2v11.3h-6.2V31.3h5.9v4.1c1-1.6,1.8-2.7,2.5-3.2
			c1.2-1,2.7-1.5,4.5-1.5c0.1,0,0.2,0,0.3,0s0.3,0,0.5,0v6.4c-0.4,0-0.7-0.1-1-0.1S169,37,168.8,37z"/>
		<path class="st1" d="M192.9,39.8h-6.4c-0.1-0.9-0.4-1.7-0.9-2.4c-0.7-1-1.8-1.4-3.2-1.4c-2.1,0-3.5,1-4.3,3.1
			c-0.4,1.1-0.6,2.6-0.6,4.4c0,1.7,0.2,3.1,0.6,4.2c0.7,2,2.1,3,4.2,3c1.4,0,2.5-0.4,3.1-1.2s1-1.8,1.1-3h6.3
			c-0.1,1.9-0.8,3.7-2,5.4c-1.9,2.7-4.8,4.1-8.6,4.1s-6.6-1.1-8.4-3.4c-1.8-2.3-2.7-5.2-2.7-8.8c0-4.1,1-7.2,3-9.5s4.7-3.4,8.2-3.4
			c3,0,5.4,0.7,7.3,2C191.5,34,192.6,36.4,192.9,39.8z"/>
		<path class="st1" d="M217.7,41.1V55h-6.3V40.6c0-1.3-0.2-2.3-0.7-3.1c-0.6-1.1-1.6-1.7-3.2-1.7c-1.6,0-2.9,0.5-3.7,1.6
			s-1.3,2.7-1.3,4.7v12.8h-6.1v-32h6.2v11.3c0.9-1.4,1.9-2.3,3.1-2.9c1.2-0.5,2.4-0.8,3.7-0.8c1.5,0,2.8,0.3,4,0.8s2.2,1.3,2.9,2.3
			c0.7,0.9,1.1,1.8,1.2,2.7C217.7,37.4,217.7,38.9,217.7,41.1z"/>
	</g>
</g>
</svg>
