<svg xmlns="http://www.w3.org/2000/svg" xmlns:xlink="http://www.w3.org/1999/xlink" width="492" height="85" viewBox="0 0 492 85">
  <defs>
    <clipPath id="clip-logo_CaseSharing">
      <rect width="492" height="85"/>
    </clipPath>
  </defs>
  <g id="logo_CaseSharing" clip-path="url(#clip-logo_CaseSharing)">
    <g id="グループ_56238" data-name="グループ 56238" transform="translate(-11827.957 -6612.707)">
      <g id="グループ_56232" data-name="グループ 56232" transform="translate(11949.498 6624.859)">
        <path id="パス_104437" data-name="パス 104437" d="M18.075.057H10.264V13.285H2.626V-23.5H18.649q5.541,0,8.835,2.845t3.294,8.81q0,6.514-3.294,9.21T18.075.057ZM21.669-7.6a5.322,5.322,0,0,0,1.5-4.193q0-2.87-1.51-4.093a6.553,6.553,0,0,0-4.23-1.223H10.264V-6.282h7.163A6.26,6.26,0,0,0,21.669-7.6ZM53.416,9.442q-.1.125-.5.749a5.011,5.011,0,0,1-.948,1.1,9.9,9.9,0,0,1-3.232,2.047,11.015,11.015,0,0,1-3.656.549q-6.04,0-8.136-4.343a16.617,16.617,0,0,1-1.173-7.063v-16.4h7.288v16.4a8.584,8.584,0,0,0,.549,3.494q.973,2.072,3.819,2.072A4.992,4.992,0,0,0,52.417,5.1a10.661,10.661,0,0,0,.7-4.218v-14.8h7.213v27.2H53.416Zm28.552,4.567a9.706,9.706,0,0,1-5.416-1.348,10.817,10.817,0,0,1-2.646-2.8v3.419H66.943V-23.453h7.088v13.078A10.378,10.378,0,0,1,77-13.27a8.822,8.822,0,0,1,4.892-1.248,10.076,10.076,0,0,1,8.4,3.869A15.705,15.705,0,0,1,93.323-.666,17.554,17.554,0,0,1,90.329,9.841,9.711,9.711,0,0,1,81.968,14.009ZM85.861.082a13.166,13.166,0,0,0-.749-4.792A5.215,5.215,0,0,0,79.871-8.3a5.292,5.292,0,0,0-5.316,3.519A13.208,13.208,0,0,0,73.806.057a10.143,10.143,0,0,0,1.547,5.79,5.3,5.3,0,0,0,4.717,2.3,4.882,4.882,0,0,0,4.268-2.221A10.143,10.143,0,0,0,85.861.082ZM124.945,10.54a15,15,0,0,1-10.532,3.769q-7.937,0-12.479-5.092Q97.392,4.1,97.392-4.809q0-9.634,5.166-14.85A15.394,15.394,0,0,1,113.989-24.2q9.284,0,13.577,6.09a13.184,13.184,0,0,1,2.546,6.864h-7.687a10.383,10.383,0,0,0-1.922-3.993q-2.1-2.4-6.215-2.4a7.7,7.7,0,0,0-6.614,3.382q-2.421,3.382-2.421,9.572t2.558,9.272a8.084,8.084,0,0,0,6.5,3.082,7.436,7.436,0,0,0,6.165-2.646A11.492,11.492,0,0,0,122.424.756h7.612A16.544,16.544,0,0,1,124.945,10.54Zm11.406-21.514q2.82-3.594,9.684-3.594a17.2,17.2,0,0,1,7.937,1.772q3.469,1.772,3.469,6.689V6.372q0,1.3.05,3.145a3.954,3.954,0,0,0,.424,1.9,2.55,2.55,0,0,0,1.048.824v1.048h-7.737a7.925,7.925,0,0,1-.449-1.547q-.125-.724-.2-1.647a14.615,14.615,0,0,1-3.394,2.72,10.21,10.21,0,0,1-5.191,1.323,8.925,8.925,0,0,1-6.1-2.109,7.522,7.522,0,0,1-2.408-5.978q0-5.017,3.868-7.263a17.176,17.176,0,0,1,6.239-1.747l2.421-.3a11.1,11.1,0,0,0,2.82-.624,2.139,2.139,0,0,0,1.522-2.022,2.4,2.4,0,0,0-1.161-2.309,7.25,7.25,0,0,0-3.407-.636A4.438,4.438,0,0,0,142.216-7.6a5.187,5.187,0,0,0-1,2.5h-6.863A10.439,10.439,0,0,1,136.351-10.974Zm5.291,19.118a3.717,3.717,0,0,0,2.446.824,7.244,7.244,0,0,0,4.23-1.348q1.934-1.348,2.009-4.917V.057a7.73,7.73,0,0,1-1.36.686,11.376,11.376,0,0,1-1.884.487l-1.6.3a10.314,10.314,0,0,0-3.22.973,3.262,3.262,0,0,0-1.647,3.02A3.123,3.123,0,0,0,141.642,8.144ZM182.5-12.671q3.195,2.047,3.669,7.038h-7.113A4.208,4.208,0,0,0,178.28-7.8q-1.173-1.448-3.993-1.448a5.738,5.738,0,0,0-3.307.724,2.083,2.083,0,0,0-.986,1.7,1.857,1.857,0,0,0,1.048,1.772,45.377,45.377,0,0,0,7.412,1.972,13.615,13.615,0,0,1,6.364,3.02,6.857,6.857,0,0,1,2.1,5.116,8.267,8.267,0,0,1-3.007,6.6q-3.007,2.558-9.3,2.558-6.414,0-9.472-2.708a8.81,8.81,0,0,1-3.057-6.9H169.3a4.75,4.75,0,0,0,.973,2.7q1.323,1.423,4.892,1.423a7.456,7.456,0,0,0,3.332-.624,2,2,0,0,0,1.235-1.872,2.018,2.018,0,0,0-1-1.822q-1-.624-7.413-2.146Q166.7,1.106,164.8-.616a6.223,6.223,0,0,1-1.9-4.892,8.485,8.485,0,0,1,2.958-6.477q2.957-2.708,8.323-2.708A15.41,15.41,0,0,1,182.5-12.671ZM215.467,5.3a9.023,9.023,0,0,1-2.521,4.917q-3.494,3.968-9.784,3.968A13.8,13.8,0,0,1,194,10.839q-3.968-3.344-3.968-10.882,0-7.063,3.581-10.832a12.245,12.245,0,0,1,9.3-3.769,14.257,14.257,0,0,1,6.115,1.273,10.712,10.712,0,0,1,4.492,4.018,13.71,13.71,0,0,1,2.072,5.616,36.267,36.267,0,0,1,.225,5.391H197.2q.15,4.093,2.571,5.74a6.055,6.055,0,0,0,3.544,1.023,5.1,5.1,0,0,0,3.569-1.248A5.927,5.927,0,0,0,208.2,5.3Zm-7.038-8.336a6.192,6.192,0,0,0-1.71-4.28,5.309,5.309,0,0,0-3.806-1.46,4.831,4.831,0,0,0-3.831,1.547,7.724,7.724,0,0,0-1.71,4.193Zm38.834-13.952H228.82v8.461h16.148v6.389H228.82V13.285h-7.637V-23.453h26.081Zm11.88,3.07v27.2h-7.213v-27.2Zm0-9.809v6.564h-7.213v-6.564ZM278.836-8.653a4.952,4.952,0,0,0-4.967,3.07,10.545,10.545,0,0,0-.7,4.143V13.285h-7.088V-13.869h6.863V-9.9a12.076,12.076,0,0,1,2.6-3.02,9.02,9.02,0,0,1,5.566-1.647,10.5,10.5,0,0,1,6.9,2.209q2.683,2.209,2.683,7.325V13.285H283.4V-3.262a7.551,7.551,0,0,0-.574-3.295Q281.781-8.653,278.836-8.653Zm43.177-14.8V13.285H315.1V9.517a10.033,10.033,0,0,1-3.469,3.519,9.739,9.739,0,0,1-4.842,1.1,10.109,10.109,0,0,1-8.024-3.856,14.808,14.808,0,0,1-3.257-9.9q0-6.963,3.207-10.957a10.434,10.434,0,0,1,8.573-3.993,8.774,8.774,0,0,1,4.393,1.086,8.64,8.64,0,0,1,3.12,3.007V-23.453ZM302.845-.142a10.7,10.7,0,0,0,1.5,6.015,4.985,4.985,0,0,0,4.492,2.271A5.252,5.252,0,0,0,313.427,5.9,9.924,9.924,0,0,0,315,.082q0-4.992-2.521-7.138a5.425,5.425,0,0,0-3.594-1.3A5,5,0,0,0,304.305-6,10.927,10.927,0,0,0,302.845-.142ZM351.763,5.3a9.023,9.023,0,0,1-2.521,4.917q-3.494,3.968-9.784,3.968a13.8,13.8,0,0,1-9.16-3.344Q326.33,7.495,326.331-.042q0-7.063,3.581-10.832a12.245,12.245,0,0,1,9.3-3.769,14.257,14.257,0,0,1,6.115,1.273,10.712,10.712,0,0,1,4.492,4.018,13.71,13.71,0,0,1,2.072,5.616,36.267,36.267,0,0,1,.225,5.391H333.493q.15,4.093,2.571,5.74a6.055,6.055,0,0,0,3.544,1.023,5.1,5.1,0,0,0,3.569-1.248A5.927,5.927,0,0,0,344.5,5.3Zm-7.038-8.336a6.192,6.192,0,0,0-1.71-4.28,5.309,5.309,0,0,0-3.806-1.46,4.831,4.831,0,0,0-3.831,1.547,7.724,7.724,0,0,0-1.71,4.193Zm25.856-4.318q-4.293,0-5.765,2.8a10.875,10.875,0,0,0-.824,4.842v13h-7.163v-27.2h6.789v4.742a15.038,15.038,0,0,1,2.87-3.719,7.813,7.813,0,0,1,5.191-1.672q.2,0,.337.012t.611.037V-7.23q-.674-.075-1.2-.1T370.581-7.355Z" transform="translate(-2.626 24.202)"/>
        <text id="Case_Sharing" data-name="Case Sharing" transform="translate(0.347 66.649)" font-size="26" font-family="Helvetica-Light, Helvetica" font-weight="300"><tspan x="0" y="0">Case Sharing</tspan></text>
      </g>
      <g id="グループ_56233" data-name="グループ 56233" transform="translate(951.067 -759.599)">
        <path id="パス_104491" data-name="パス 104491" d="M340.816,159.141c-9.546,19.481-35.638,22.488-53.145,12.264,3.609.29,7.326,1.032,10.9,1.2,15.258,1.644,30.986-2.552,42.244-13.459" transform="translate(10615.966 7255.452)" fill="#1a1311"/>
        <path id="パス_104492" data-name="パス 104492" d="M350.126,134.142a12.66,12.66,0,0,0-9.855-1.6,14.105,14.105,0,0,0-8.911,7.892c-7.581,15.73-20.419,28.167-34.471,38.3-7.892,5.594-16.53,10.272-26.084,12.319a.24.24,0,0,0-.188.243.237.237,0,0,0,.248.224c4.959-.271,9.738-1.92,14.546-3.18,27.663-7.261,40.137-24.331,49.412-44.212,1.64-3.526,3.671-8.343,8.063-8.652,3.582-.539,6.557.753,9.371,2.832,1.5.968,7.729,5.546,7.729,5.546s-2.387-3.555-9.858-9.711" transform="translate(10606.273 7240.129)" fill="#1a1311"/>
        <path id="パス_104493" data-name="パス 104493" d="M346.988,159.553a19.382,19.382,0,0,1-2.66,5.6,49.807,49.807,0,0,1-4.6,5.809c-15.959,16.9-35.434,14.068-53.956,3.127a67.352,67.352,0,0,0,6.151,5.062c11.315,7.442,26.335,10.363,38.985,4.368,5.089-2.3,7.895-4.725,11.776-9.236a17.51,17.51,0,0,0,4.3-14.731" transform="translate(10614.883 7255.687)" fill="#1a1311"/>
        <path id="パス_104494" data-name="パス 104494" d="M332.813,162.218c-2.144-7.147-10.631-10.33-12.355-16.621-.8-4.993,4.048-5.822,9.284-6.245-3.616-.641-7.4-1.029-10.271,2.254-1.187,1.918-1.142,4.557,1.024,8.146,3.718,5.558,12.024,16.568,10.266,26.234,0,0,4.248-6.444,2.051-13.768" transform="translate(10633.596 7243.96)" fill="#1a1311"/>
        <path id="パス_104495" data-name="パス 104495" d="M306.844,175.485l3.889,10.908-6.675-9.463Z" transform="translate(10625.279 7264.741)" fill="#1a1311"/>
        <path id="パス_104496" data-name="パス 104496" d="M303.745,181.44l14.712,1.568-14.712,1.568Z" transform="translate(10625.1 7268.125)" fill="#1a1311"/>
      </g>
    </g>
  </g>
</svg>
