<?xml version="1.0" encoding="utf-8"?>
<!-- Generator: Adobe Illustrator 27.4.0, SVG Export Plug-In . SVG Version: 6.00 Build 0)  -->
<svg version="1.1" id="レイヤー_1" xmlns="http://www.w3.org/2000/svg" xmlns:xlink="http://www.w3.org/1999/xlink" x="0px"
	 y="0px" viewBox="0 0 381.9 64.3" style="enable-background:new 0 0 381.9 64.3;" xml:space="preserve">
<style type="text/css">
	.st0{fill:#4AB223;}
	.st1{fill:#2A3356;}
	.st2{enable-background:new    ;}
</style>
<g>
	<g>
		<path id="パス_105473" class="st0" d="M25,22.2c1.1-6.4-2.6-8.9-2.6-8.9c-6.7,5.6-9.8,13.4-9.1,20c0,0.5,0.2,0.9,0.5,1.3
			c0.6,0.7,1.2,1.4,2,1.9C21,40,25,22.2,25,22.2"/>
		<path id="パス_105474" class="st0" d="M56.5,35.8c1.2,5.3,11.2,0.7,16.8-4.6c1.4-1.3,1.5-3.4,0.2-4.8c-0.2-0.2-0.3-0.3-0.5-0.5
			l-6.3-6.2c-1.1-0.8-2.5-0.8-3.6,0l-7.1,5c-1.1,0.8-1.9,2.9-1.1,5.6L56.5,35.8z"/>
		<path id="パス_105475" class="st0" d="M46.7,18.5c6.2-0.6,11.3-5.3,13.9-11.2l2.6-6.7C58.3-0.4,52.3-0.1,45.2,1
			C38.6,2.1,34,4.4,29,8.1C29,8.1,35.9,19.5,46.7,18.5"/>
		<path id="パス_105476" class="st0" d="M73,13.7l4.9,5.6c4.4,4.4,8.4-1.5,8-8.2c-3.2-4.3-8.1-7.4-14.1-9
			C70.7,4.2,69.6,9.6,73,13.7"/>
		<path id="パス_105477" class="st0" d="M29.6,41.5c0,0,9.6,2,15-0.4c4.7-2.1,2.6-10.6,2.6-10.6c-1.4-4.6-10.6-4.2-10.6-4.2
			C30,26.7,24,40.2,29.6,41.5"/>
		<path id="パス_105478" class="st1" d="M109.2,15.6c5.3-7.5-6.8-12.7-12.5-11.8c-2.9,0.5-7,3.7-8.5,7.2c-0.9,2.1-1.2,7.4-2.1,9.1
			c-1.4,2.7-6.2,3.9-8.6,1.5l-5.4-5.9c-4.4-5.5-3.7-11-2.3-14l-4.4-0.9c-0.1,0.1-3.2,7.5-3.2,7.5c-3,6.7-8.4,12.6-15.5,12.7
			C33.6,21.1,26.7,9.1,26.7,9.1c-0.9,0.7-1.8,1.4-2.7,2.2l1.7,2.6c4.4,5.8-4.2,28.6-9.8,24.8c-1.2-1-2.3-2.1-3.3-3.3L0.6,43.1
			c-0.9,0.7-0.8,1.8,0.3,1.9c4.5,0.7,11.5,1.3,17.6,2.5v0c-3.2,5.1-11.5,3.7-14.2,13.9C3.6,64.6,24,59.6,31,52.9
			c11.1,0.9,30.9-2.1,41.1-6.6C71.6,50.1,70.4,56.7,68,62c-0.8,1.7,0.3,2.9,1.9,2.1c10-4.7,29.5-15.6,26.2-23.6
			c-0.9-2.3-2.2-4.5-3.9-6.3C92.4,33.7,104.2,22.5,109.2,15.6 M13.5,36.6L13.5,36.6L13.5,36.6 M46.1,42.9c-2.3,0.7-4.8,1.1-7.2,1.1
			c-0.5,0-7.8,0-12.2-1.1c-2-0.9-2.3-3.1-1.4-5.6c0,0,3-13,10.8-13.1c0,0,12.7-0.2,13.3,5.3C49.3,29.6,52.2,40.6,46.1,42.9
			 M59.5,40.4c-2.1,0.6-4.3-0.7-4.9-2.8c0,0,0-0.1,0-0.1l-1.9-6.8c-1.2-3.2-0.2-5.9,1.2-6.9l8.8-6.2c1.3-0.9,3.1-0.9,4.5,0.1
			l7.8,7.7c1.8,1.7,2.2,5.1,0.4,6.7C67.2,38.9,59.6,40.4,59.5,40.4"/>
	</g>
	<g id="グループ_56575" transform="translate(135.559 3.99)">
		<g class="st2">
			<path class="st1" d="M-12.3,16.5V0.1h6c1.1,0,1.9,0.1,2.6,0.4S-2.4,1-2,1.5c0.4,0.4,0.7,0.9,0.8,1.5C-1,3.5-1,4.1-1,4.7
				c0,0.9-0.2,1.7-0.6,2.2C-1.9,7.5-2.4,8-3,8.3C-3.6,8.7-4.2,8.9-5,9c-0.8,0.1-1.5,0.2-2.3,0.2h-3.5v7.2H-12.3z M-7.2,7.9
				c0.7,0,1.4,0,2-0.1c0.6-0.1,1.1-0.3,1.5-0.5c0.4-0.2,0.7-0.6,0.9-1s0.3-1,0.3-1.7c0-1-0.3-1.8-1-2.3c-0.7-0.5-1.7-0.8-3.2-0.8h-4
				v6.5H-7.2z"/>
			<path class="st1" d="M9.4,4.7h1.4v11.8H9.4v-1.6c-0.2,0.2-0.4,0.4-0.6,0.7c-0.2,0.2-0.5,0.4-0.8,0.6c-0.3,0.2-0.6,0.3-1,0.5
				c-0.4,0.1-0.8,0.2-1.4,0.2c-0.8,0-1.4-0.1-2-0.3c-0.5-0.2-1-0.5-1.3-0.9s-0.6-0.9-0.7-1.4s-0.2-1.1-0.2-1.7V4.7h1.4v7.7
				c0,1,0.2,1.8,0.7,2.3c0.5,0.5,1.2,0.8,2.3,0.8c0.6,0,1.1-0.1,1.5-0.3c0.4-0.2,0.8-0.5,1.1-0.9c0.3-0.4,0.5-0.9,0.7-1.4
				c0.2-0.5,0.2-1.1,0.2-1.8V4.7z"/>
			<path class="st1" d="M15.6,16.5h-1.4V0.1h1.4v6.5c0.4-0.7,1-1.3,1.8-1.6s1.6-0.6,2.4-0.6c0.9,0,1.7,0.2,2.3,0.5
				c0.7,0.3,1.2,0.8,1.6,1.4c0.4,0.6,0.8,1.2,1,2c0.2,0.8,0.3,1.5,0.3,2.4c0,0.9-0.1,1.7-0.3,2.4c-0.2,0.8-0.5,1.4-0.9,2
				c-0.4,0.6-1,1-1.6,1.3c-0.7,0.3-1.5,0.5-2.4,0.5c-0.4,0-0.8-0.1-1.2-0.2c-0.4-0.1-0.8-0.3-1.1-0.5c-0.4-0.2-0.7-0.4-1-0.7
				c-0.3-0.3-0.6-0.6-0.8-1h0V16.5z M15.6,10.5c0,0.7,0.1,1.4,0.3,2c0.2,0.6,0.4,1.1,0.8,1.6c0.3,0.4,0.8,0.8,1.2,1.1
				c0.5,0.3,1.1,0.4,1.7,0.4c0.6,0,1.1-0.1,1.6-0.3c0.5-0.2,0.9-0.5,1.3-0.9c0.4-0.4,0.6-0.9,0.9-1.4s0.3-1.2,0.3-2
				c0-0.7,0-1.4-0.2-2.1c-0.2-0.6-0.4-1.2-0.7-1.7C22.4,6.7,22,6.3,21.4,6c-0.5-0.3-1.1-0.4-1.8-0.4c-0.6,0-1.2,0.1-1.7,0.4
				S17,6.6,16.7,7.1c-0.3,0.4-0.6,1-0.8,1.6C15.7,9.2,15.6,9.9,15.6,10.5z"/>
			<path class="st1" d="M39.8,4.9c-0.3-1.4-0.9-2.4-1.8-3C37.2,1.3,36,1,34.6,1c-1,0-1.8,0.2-2.5,0.6c-0.7,0.4-1.3,0.9-1.8,1.6
				c-0.5,0.7-0.8,1.4-1,2.3S29,7.3,29,8.2c0,0.9,0.1,1.8,0.3,2.7c0.2,0.9,0.5,1.7,0.9,2.4c0.4,0.7,1,1.2,1.8,1.7
				c0.7,0.4,1.7,0.6,2.8,0.6c0.7,0,1.3-0.1,1.9-0.3c0.6-0.2,1.1-0.5,1.5-0.9c0.4-0.4,0.8-0.9,1.1-1.4c0.3-0.5,0.5-1.1,0.7-1.8h1.6
				c-0.2,0.8-0.4,1.5-0.8,2.2c-0.3,0.7-0.8,1.3-1.4,1.9c-0.6,0.5-1.3,1-2.1,1.3s-1.8,0.5-2.9,0.5c-1.3,0-2.3-0.2-3.2-0.7
				c-0.9-0.5-1.6-1.1-2.2-1.9c-0.6-0.8-1-1.7-1.2-2.7s-0.4-2.1-0.4-3.3c0-1.6,0.2-2.9,0.6-4s0.9-2,1.6-2.7c0.7-0.7,1.5-1.2,2.4-1.5
				c0.9-0.3,1.9-0.5,3-0.5c0.8,0,1.6,0.1,2.3,0.3s1.4,0.5,1.9,1c0.6,0.4,1,1,1.4,1.6C41,3.3,41.3,4,41.4,4.9H39.8z"/>
			<path class="st1" d="M49.8,9.6c0.3,0,0.6-0.1,0.9-0.1s0.6-0.1,0.9-0.2C51.8,9.1,52,8.9,52,8.7s0.1-0.5,0.1-0.7
				c0-0.7-0.2-1.3-0.7-1.7c-0.4-0.4-1.2-0.7-2.3-0.7c-0.5,0-0.9,0-1.3,0.1c-0.4,0.1-0.7,0.2-1,0.4c-0.3,0.2-0.5,0.5-0.7,0.8
				c-0.2,0.3-0.3,0.8-0.4,1.3h-1.4c0-0.7,0.2-1.3,0.5-1.8c0.3-0.5,0.6-0.9,1.1-1.2s0.9-0.5,1.5-0.7c0.6-0.1,1.2-0.2,1.8-0.2
				c0.6,0,1.1,0.1,1.7,0.2c0.5,0.1,1,0.3,1.4,0.6c0.4,0.3,0.7,0.7,0.9,1.1s0.3,1,0.3,1.7v6.4c0,0.5,0.1,0.9,0.3,1
				c0.2,0.1,0.6,0.1,1.1-0.1v1.1c-0.1,0-0.3,0.1-0.5,0.1s-0.4,0.1-0.6,0.1c-0.2,0-0.4,0-0.6-0.1c-0.2,0-0.4-0.1-0.5-0.2
				c-0.1-0.1-0.2-0.2-0.3-0.4c-0.1-0.2-0.1-0.3-0.2-0.5c0-0.2,0-0.4,0-0.6c-0.6,0.6-1.2,1.1-2,1.5c-0.7,0.3-1.5,0.5-2.4,0.5
				c-0.5,0-1-0.1-1.5-0.2c-0.5-0.1-0.9-0.3-1.3-0.6c-0.4-0.3-0.7-0.6-0.9-1.1c-0.2-0.4-0.3-0.9-0.3-1.5c0-2,1.4-3.2,4.1-3.5
				L49.8,9.6z M52.1,10.3c-0.6,0.2-1.2,0.4-1.8,0.5c-0.6,0.1-1.2,0.1-1.8,0.2c-1,0.1-1.9,0.3-2.4,0.7c-0.6,0.4-0.9,1-0.9,1.8
				c0,0.4,0.1,0.7,0.2,0.9c0.1,0.3,0.3,0.5,0.6,0.7c0.2,0.2,0.5,0.3,0.8,0.4c0.3,0.1,0.6,0.1,0.9,0.1c0.5,0,1.1-0.1,1.6-0.2
				c0.5-0.1,1-0.3,1.4-0.6s0.7-0.6,1-1.1c0.2-0.4,0.4-0.9,0.4-1.5V10.3z"/>
			<path class="st1" d="M57.8,12.8c0.2,1,0.6,1.7,1.1,2.1c0.6,0.4,1.3,0.6,2.4,0.6c0.5,0,0.9-0.1,1.3-0.2s0.7-0.3,0.9-0.5
				c0.2-0.2,0.4-0.4,0.5-0.7c0.1-0.3,0.2-0.5,0.2-0.8c0-0.6-0.2-1-0.6-1.3c-0.4-0.3-0.8-0.5-1.4-0.7s-1.2-0.3-1.8-0.4
				s-1.3-0.3-1.8-0.5c-0.6-0.2-1-0.6-1.4-1c-0.4-0.4-0.6-1-0.6-1.8c0-1,0.4-1.8,1.1-2.4c0.7-0.6,1.7-0.9,3.1-0.9
				c1.3,0,2.3,0.3,3.1,0.9c0.8,0.6,1.3,1.5,1.4,2.9H64c-0.1-0.9-0.5-1.5-1-1.9s-1.3-0.6-2.1-0.6c-0.9,0-1.5,0.2-2,0.6
				S58.2,7,58.2,7.6c0,0.5,0.2,0.9,0.6,1.2c0.4,0.3,0.8,0.5,1.4,0.7c0.6,0.2,1.2,0.3,1.8,0.5c0.7,0.1,1.3,0.3,1.8,0.6
				c0.6,0.2,1,0.6,1.4,1c0.4,0.4,0.6,1,0.6,1.8c0,0.6-0.1,1.1-0.4,1.5s-0.6,0.8-1,1.1c-0.4,0.3-0.9,0.5-1.5,0.6
				c-0.6,0.1-1.2,0.2-1.9,0.2c-0.7,0-1.3-0.1-1.9-0.3c-0.5-0.2-1-0.5-1.4-0.9c-0.4-0.4-0.7-0.8-0.9-1.3c-0.2-0.5-0.3-1-0.4-1.6H57.8
				z"/>
			<path class="st1" d="M69.2,10.9c0,0.6,0.1,1.2,0.2,1.8c0.2,0.6,0.4,1.1,0.7,1.5c0.3,0.4,0.7,0.8,1.2,1c0.5,0.2,1.1,0.4,1.7,0.4
				c0.9,0,1.7-0.2,2.3-0.7c0.6-0.5,1.1-1.1,1.3-2h1.5c-0.2,0.6-0.4,1.1-0.7,1.6c-0.3,0.5-0.6,0.9-1,1.2c-0.4,0.4-0.9,0.6-1.5,0.8
				c-0.6,0.2-1.2,0.3-2,0.3c-0.9,0-1.8-0.2-2.4-0.5c-0.7-0.3-1.2-0.8-1.7-1.3s-0.8-1.2-1-2s-0.3-1.6-0.3-2.4c0-0.9,0.1-1.7,0.4-2.4
				s0.6-1.4,1.1-2s1-1,1.7-1.3c0.7-0.3,1.4-0.5,2.3-0.5c1.6,0,2.9,0.6,3.8,1.7c0.9,1.1,1.4,2.7,1.4,4.9H69.2z M76.9,9.8
				c0-0.6-0.1-1.1-0.2-1.6c-0.2-0.5-0.4-0.9-0.7-1.3s-0.7-0.7-1.2-0.9c-0.5-0.2-1-0.3-1.6-0.3c-0.6,0-1.1,0.1-1.6,0.3
				c-0.5,0.2-0.9,0.5-1.2,0.9s-0.6,0.8-0.8,1.3c-0.2,0.5-0.3,1-0.4,1.6H76.9z"/>
			<path class="st1" d="M81.1,16.5V0.1h10.5v1.3h-9v5.9h8.2v1.3h-8.2v7.8H81.1z"/>
			<path class="st1" d="M93.8,2.1v-2h1.5v2H93.8z M93.9,16.5V4.7h1.4v11.8H93.9z"/>
			<path class="st1" d="M100.1,16.5h-1.4V4.7h1.4v1.6c0.5-0.6,1.1-1,1.7-1.4c0.6-0.4,1.3-0.5,2.1-0.5c0.7,0,1.4,0.1,2,0.4
				s1.1,0.7,1.6,1.3c0.3,0.4,0.5,0.9,0.5,1.3c0.1,0.4,0.1,0.9,0.1,1.4v7.7h-1.4V8.8c0-1.1-0.2-1.9-0.7-2.4s-1.2-0.8-2.3-0.8
				c-0.4,0-0.8,0.1-1.2,0.2c-0.3,0.1-0.7,0.3-0.9,0.5S101,6.8,100.8,7c-0.2,0.3-0.3,0.6-0.5,0.9c-0.1,0.4-0.2,0.7-0.2,1.1
				c0,0.3,0,0.7,0,1.1V16.5z"/>
			<path class="st1" d="M120.4,0.1h1.4v16.4h-1.4v-2.1h0c-0.2,0.4-0.5,0.7-0.8,1c-0.3,0.3-0.7,0.5-1,0.7c-0.4,0.2-0.8,0.3-1.1,0.5
				c-0.4,0.1-0.8,0.2-1.2,0.2c-1,0-1.8-0.2-2.4-0.5c-0.7-0.3-1.2-0.8-1.6-1.3c-0.4-0.6-0.7-1.2-0.9-2c-0.2-0.8-0.3-1.6-0.3-2.4
				c0-0.8,0.1-1.6,0.3-2.4c0.2-0.8,0.5-1.4,1-2s1-1,1.6-1.4c0.7-0.3,1.4-0.5,2.3-0.5c0.8,0,1.6,0.2,2.4,0.6c0.8,0.4,1.4,0.9,1.8,1.6
				V0.1z M120.4,10.5c0-0.7-0.1-1.3-0.3-1.9c-0.2-0.6-0.4-1.1-0.8-1.6c-0.3-0.4-0.8-0.8-1.2-1.1c-0.5-0.3-1-0.4-1.7-0.4
				c-0.7,0-1.3,0.1-1.8,0.4c-0.5,0.3-0.9,0.7-1.3,1.1c-0.3,0.5-0.6,1-0.7,1.7c-0.2,0.6-0.2,1.3-0.2,2.1c0,0.7,0.1,1.4,0.3,2
				c0.2,0.6,0.5,1,0.9,1.4c0.4,0.4,0.8,0.7,1.3,0.9c0.5,0.2,1,0.3,1.6,0.3c0.6,0,1.2-0.1,1.7-0.4c0.5-0.3,0.9-0.6,1.2-1.1
				c0.3-0.4,0.6-1,0.8-1.6C120.4,11.9,120.4,11.2,120.4,10.5z"/>
			<path class="st1" d="M126.1,10.9c0,0.6,0.1,1.2,0.2,1.8c0.2,0.6,0.4,1.1,0.7,1.5c0.3,0.4,0.7,0.8,1.2,1c0.5,0.2,1.1,0.4,1.7,0.4
				c0.9,0,1.7-0.2,2.3-0.7c0.6-0.5,1.1-1.1,1.3-2h1.5c-0.2,0.6-0.4,1.1-0.7,1.6c-0.3,0.5-0.6,0.9-1,1.2c-0.4,0.4-0.9,0.6-1.5,0.8
				c-0.6,0.2-1.2,0.3-2,0.3c-0.9,0-1.8-0.2-2.4-0.5c-0.7-0.3-1.2-0.8-1.7-1.3s-0.8-1.2-1-2s-0.3-1.6-0.3-2.4c0-0.9,0.1-1.7,0.4-2.4
				s0.6-1.4,1.1-2s1-1,1.7-1.3c0.7-0.3,1.4-0.5,2.3-0.5c1.6,0,2.9,0.6,3.8,1.7c0.9,1.1,1.4,2.7,1.4,4.9H126.1z M133.8,9.8
				c0-0.6-0.1-1.1-0.2-1.6c-0.2-0.5-0.4-0.9-0.7-1.3s-0.7-0.7-1.2-0.9c-0.5-0.2-1-0.3-1.6-0.3c-0.6,0-1.1,0.1-1.6,0.3
				c-0.5,0.2-0.9,0.5-1.2,0.9s-0.6,0.8-0.8,1.3c-0.2,0.5-0.3,1-0.4,1.6H133.8z"/>
			<path class="st1" d="M139.3,16.5h-1.4V4.7h1.4v2.2h0c0.4-0.9,0.9-1.6,1.5-2s1.4-0.6,2.4-0.6v1.5c-0.8,0-1.4,0.1-1.9,0.4
				s-0.9,0.6-1.2,1c-0.3,0.4-0.5,1-0.6,1.6c-0.1,0.6-0.2,1.2-0.2,1.9V16.5z"/>
		</g>
		<g class="st2">
			<path class="st1" d="M0.7,46.6h-6.8v11.5h-6.7V26h14c3.2,0,5.8,0.8,7.7,2.5c1.9,1.7,2.9,4.2,2.9,7.7c0,3.8-1,6.5-2.9,8
				S4.2,46.6,0.7,46.6z M3.8,39.9c0.9-0.8,1.3-2,1.3-3.7c0-1.7-0.4-2.9-1.3-3.6c-0.9-0.7-2.1-1.1-3.7-1.1h-6.2V41h6.2
				C1.7,41,2.9,40.6,3.8,39.9z"/>
			<path class="st1" d="M15.4,36.9c1.6-2.1,4.5-3.1,8.4-3.1c2.6,0,4.9,0.5,6.9,1.5s3,3,3,5.8v10.9c0,0.8,0,1.7,0,2.7
				c0,0.8,0.2,1.4,0.4,1.7c0.2,0.3,0.5,0.5,0.9,0.7v0.9h-6.7c-0.2-0.5-0.3-0.9-0.4-1.3c-0.1-0.4-0.1-0.9-0.2-1.4
				c-0.9,0.9-1.8,1.7-3,2.4c-1.3,0.8-2.8,1.2-4.5,1.2c-2.1,0-3.9-0.6-5.3-1.8c-1.4-1.2-2.1-3-2.1-5.2c0-2.9,1.1-5,3.4-6.3
				c1.2-0.7,3-1.2,5.4-1.5l2.1-0.3c1.1-0.1,2-0.3,2.5-0.5c0.9-0.4,1.3-1,1.3-1.8c0-1-0.3-1.6-1-2c-0.7-0.4-1.7-0.6-3-0.6
				c-1.5,0-2.5,0.4-3.1,1.1c-0.4,0.5-0.7,1.3-0.9,2.2h-6C13.8,40,14.4,38.3,15.4,36.9z M20,53.6c0.6,0.5,1.3,0.7,2.1,0.7
				c1.3,0,2.6-0.4,3.7-1.2c1.1-0.8,1.7-2.2,1.8-4.3v-2.3c-0.4,0.2-0.8,0.4-1.2,0.6c-0.4,0.2-0.9,0.3-1.6,0.4l-1.4,0.3
				c-1.3,0.2-2.2,0.5-2.8,0.8c-1,0.6-1.4,1.4-1.4,2.6C19.1,52.4,19.4,53.1,20,53.6z"/>
			<path class="st1" d="M48.7,39c-2.1,0-3.5,0.9-4.3,2.7c-0.4,0.9-0.6,2.1-0.6,3.6v12.8h-6.2V34.4h6v3.5c0.8-1.2,1.6-2.1,2.3-2.6
				c1.3-1,2.9-1.4,4.9-1.4c2.5,0,4.5,0.6,6,1.9c1.6,1.3,2.3,3.4,2.3,6.4v16h-6.4V43.7c0-1.2-0.2-2.2-0.5-2.9
				C51.5,39.6,50.4,39,48.7,39z"/>
			<path class="st1" d="M84.1,51.1c-0.2,1.4-0.9,2.8-2.2,4.3c-2,2.3-4.9,3.5-8.5,3.5c-3,0-5.7-1-8-2.9c-2.3-1.9-3.5-5.1-3.5-9.5
				c0-4.1,1-7.2,3.1-9.4c2.1-2.2,4.8-3.3,8.1-3.3c2,0,3.7,0.4,5.3,1.1c1.6,0.7,2.9,1.9,3.9,3.5c0.9,1.4,1.5,3,1.8,4.9
				c0.2,1.1,0.2,2.7,0.2,4.7H68.2c0.1,2.4,0.8,4,2.2,5c0.9,0.6,1.9,0.9,3.1,0.9c1.3,0,2.3-0.4,3.1-1.1c0.4-0.4,0.8-0.9,1.2-1.6H84.1
				z M78,43.9c-0.1-1.6-0.6-2.9-1.5-3.7c-0.9-0.8-2-1.3-3.3-1.3c-1.4,0-2.5,0.4-3.3,1.3c-0.8,0.9-1.3,2.1-1.5,3.7H78z"/>
			<path class="st1" d="M87.8,26H94v32.1h-6.2V26z"/>
			<path class="st1" d="M119.2,53.5c1.6,0,2.9-0.2,3.8-0.5c1.9-0.7,2.8-1.9,2.8-3.7c0-1.1-0.5-1.9-1.4-2.5c-0.9-0.6-2.4-1.1-4.4-1.5
				l-3.4-0.8c-3.3-0.8-5.6-1.6-6.9-2.5c-2.2-1.5-3.2-3.8-3.2-6.9c0-2.9,1-5.3,3.1-7.2c2.1-1.9,5.2-2.8,9.2-2.8
				c3.4,0,6.3,0.9,8.6,2.7c2.4,1.8,3.6,4.4,3.8,7.8h-6.4c-0.1-1.9-1-3.3-2.5-4.1c-1-0.5-2.3-0.8-3.9-0.8c-1.7,0-3.1,0.3-4.1,1
				c-1,0.7-1.5,1.7-1.5,2.9c0,1.1,0.5,2,1.5,2.6c0.7,0.4,2,0.8,4.2,1.3l5.5,1.3c2.4,0.6,4.2,1.4,5.5,2.3c1.9,1.5,2.9,3.7,2.9,6.5
				c0,2.9-1.1,5.4-3.4,7.3s-5.4,2.9-9.5,2.9c-4.2,0-7.5-1-9.9-2.9c-2.4-1.9-3.6-4.5-3.6-7.9h6.4c0.2,1.5,0.6,2.6,1.2,3.3
				C114.7,52.8,116.6,53.5,119.2,53.5z"/>
			<path class="st1" d="M157.1,51.1c-0.2,1.4-0.9,2.8-2.2,4.3c-2,2.3-4.9,3.5-8.5,3.5c-3,0-5.7-1-8-2.9c-2.3-1.9-3.5-5.1-3.5-9.5
				c0-4.1,1-7.2,3.1-9.4s4.8-3.3,8.1-3.3c2,0,3.7,0.4,5.3,1.1c1.6,0.7,2.9,1.9,3.9,3.5c0.9,1.4,1.5,3,1.8,4.9
				c0.2,1.1,0.2,2.7,0.2,4.7h-16.2c0.1,2.4,0.8,4,2.2,5c0.9,0.6,1.9,0.9,3.1,0.9c1.3,0,2.3-0.4,3.1-1.1c0.4-0.4,0.8-0.9,1.2-1.6
				H157.1z M151,43.9c-0.1-1.6-0.6-2.9-1.5-3.7c-0.9-0.8-2-1.3-3.3-1.3c-1.4,0-2.5,0.4-3.3,1.3c-0.8,0.9-1.3,2.1-1.5,3.7H151z"/>
			<path class="st1" d="M162.5,36.9c1.6-2.1,4.5-3.1,8.4-3.1c2.6,0,4.9,0.5,6.9,1.5s3,3,3,5.8v10.9c0,0.8,0,1.7,0,2.7
				c0,0.8,0.2,1.4,0.4,1.7s0.5,0.5,0.9,0.7v0.9h-6.7c-0.2-0.5-0.3-0.9-0.4-1.3c-0.1-0.4-0.1-0.9-0.2-1.4c-0.9,0.9-1.8,1.7-3,2.4
				c-1.3,0.8-2.8,1.2-4.5,1.2c-2.1,0-3.9-0.6-5.3-1.8c-1.4-1.2-2.1-3-2.1-5.2c0-2.9,1.1-5,3.4-6.3c1.2-0.7,3-1.2,5.4-1.5l2.1-0.3
				c1.1-0.1,2-0.3,2.5-0.5c0.9-0.4,1.3-1,1.3-1.8c0-1-0.3-1.6-1-2c-0.7-0.4-1.7-0.6-3-0.6c-1.5,0-2.5,0.4-3.1,1.1
				c-0.4,0.5-0.7,1.3-0.9,2.2h-6C160.9,40,161.5,38.3,162.5,36.9z M167.1,53.6c0.6,0.5,1.3,0.7,2.1,0.7c1.3,0,2.6-0.4,3.7-1.2
				s1.7-2.2,1.8-4.3v-2.3c-0.4,0.2-0.8,0.4-1.2,0.6c-0.4,0.2-0.9,0.3-1.6,0.4l-1.4,0.3c-1.3,0.2-2.2,0.5-2.8,0.8
				c-1,0.6-1.4,1.4-1.4,2.6C166.2,52.4,166.5,53.1,167.1,53.6z"/>
			<path class="st1" d="M197.4,40.1c-2.5,0-4.2,0.8-5,2.4c-0.5,0.9-0.7,2.3-0.7,4.2v11.3h-6.2V34.4h5.9v4.1c1-1.6,1.8-2.7,2.5-3.2
				c1.2-1,2.7-1.5,4.5-1.5c0.1,0,0.2,0,0.3,0c0.1,0,0.3,0,0.5,0v6.4c-0.4,0-0.7-0.1-1-0.1S197.6,40.1,197.4,40.1z"/>
			<path class="st1" d="M221.5,42.9h-6.4c-0.1-0.9-0.4-1.7-0.9-2.4c-0.7-1-1.8-1.4-3.2-1.4c-2.1,0-3.5,1-4.3,3.1
				c-0.4,1.1-0.6,2.6-0.6,4.4c0,1.7,0.2,3.1,0.6,4.2c0.7,2,2.1,3,4.2,3c1.4,0,2.5-0.4,3.1-1.2c0.6-0.8,1-1.8,1.1-3h6.3
				c-0.1,1.9-0.8,3.7-2,5.4c-1.9,2.7-4.8,4.1-8.6,4.1c-3.8,0-6.6-1.1-8.4-3.4c-1.8-2.3-2.7-5.2-2.7-8.8c0-4.1,1-7.2,3-9.5
				c2-2.3,4.7-3.4,8.2-3.4c3,0,5.4,0.7,7.3,2C220.1,37.1,221.2,39.5,221.5,42.9z"/>
			<path class="st1" d="M246.3,44.2v13.9H240V43.7c0-1.3-0.2-2.3-0.7-3.1c-0.6-1.1-1.6-1.7-3.2-1.7c-1.6,0-2.9,0.5-3.7,1.6
				c-0.8,1.1-1.3,2.7-1.3,4.7v12.8H225v-32h6.2v11.3c0.9-1.4,1.9-2.3,3.1-2.9c1.2-0.5,2.4-0.8,3.7-0.8c1.5,0,2.8,0.3,4,0.8
				c1.2,0.5,2.2,1.3,2.9,2.3c0.7,0.9,1.1,1.8,1.2,2.7C246.3,40.5,246.3,42,246.3,44.2z"/>
		</g>
	</g>
</g>
</svg>
