<?xml version="1.0" encoding="utf-8"?>
<!-- Generator: Adobe Illustrator 27.4.0, SVG Export Plug-In . SVG Version: 6.00 Build 0)  -->
<svg version="1.1" id="レイヤー_1" xmlns="http://www.w3.org/2000/svg" xmlns:xlink="http://www.w3.org/1999/xlink" x="0px"
	 y="0px" viewBox="0 0 409.2 85" style="enable-background:new 0 0 409.2 85;" xml:space="preserve">
<style type="text/css">
	.st0{clip-path:url(#SVGID_00000034052924713216807330000004274766067637836708_);}
	.st1{enable-background:new    ;}
	.st2{fill:#161D55;}
	.st3{fill:#161D55;stroke:#161D55;}
	.st4{fill:#258800;}
</style>
<g>
	<defs>
		<rect id="SVGID_1_" x="-15.3" width="492" height="85"/>
	</defs>
	<clipPath id="SVGID_00000062169234016572356440000018046710911554640521_">
		<use xlink:href="#SVGID_1_"  style="overflow:visible;"/>
	</clipPath>
	<g id="logo_PanelSearch" style="clip-path:url(#SVGID_00000062169234016572356440000018046710911554640521_);">
		<g id="グループ_56238" transform="translate(-11827.957 -6612.707)">
			<g id="グループ_56232" transform="translate(11949.498 6624.859)">
				<g class="st1">
					<path class="st2" d="M-23.8,0h8c1.6,0,2.9,0.4,3.8,1.3c1,0.9,1.5,2.2,1.5,3.8c0,1.4-0.4,2.6-1.3,3.7c-0.9,1-2.2,1.6-4,1.6h-5.6
						V18h-2.4V0z M-14.4,2.5c-0.5-0.3-1.3-0.4-2.2-0.4h-4.8v6.2h4.8c1.1,0,2-0.2,2.6-0.7c0.7-0.5,1-1.3,1-2.5
						C-12.9,3.9-13.4,3-14.4,2.5z"/>
					<path class="st2" d="M-6.4,4.9v8.7c0,0.7,0.1,1.2,0.3,1.6C-5.7,16-5,16.4-4,16.4c1.5,0,2.5-0.7,3-2.1c0.3-0.7,0.4-1.7,0.4-3
						V4.9h2.2V18h-2.1l0-1.9c-0.3,0.5-0.6,0.9-1,1.3c-0.8,0.7-1.8,1-3,1c-1.8,0-3.1-0.6-3.7-1.9c-0.4-0.7-0.5-1.6-0.5-2.7V4.9H-6.4z
						"/>
					<path class="st2" d="M4.6,0h2.1v6.5c0.5-0.6,1.1-1.1,1.7-1.4c0.7-0.3,1.4-0.5,2.2-0.5c1.6,0,3,0.6,4,1.7c1,1.1,1.5,2.8,1.5,5
						c0,2.1-0.5,3.8-1.5,5.2s-2.4,2.1-4.2,2.1c-1,0-1.8-0.2-2.5-0.7c-0.4-0.3-0.8-0.7-1.3-1.4V18h-2V0z M13,15
						c0.6-0.9,0.9-2.2,0.9-3.7c0-1.4-0.3-2.5-0.9-3.4c-0.6-0.9-1.5-1.4-2.6-1.4c-1,0-1.9,0.4-2.6,1.1c-0.8,0.7-1.1,2-1.1,3.7
						c0,1.2,0.2,2.2,0.5,3c0.6,1.4,1.7,2.2,3.2,2.2C11.5,16.5,12.4,16,13,15z"/>
					<path class="st2" d="M32.2,1.4c1.2,1.2,1.9,2.6,2.1,4.1h-2.4c-0.3-1.2-0.8-2.1-1.6-2.7c-0.8-0.7-1.9-1-3.3-1
						c-1.7,0-3.1,0.6-4.2,1.9s-1.6,3.1-1.6,5.7c0,2.1,0.5,3.8,1.4,5.1c1,1.3,2.4,2,4.3,2c1.8,0,3.1-0.7,4-2.1
						c0.5-0.7,0.9-1.7,1.1-2.9h2.4c-0.2,1.9-0.9,3.5-2.1,4.7c-1.4,1.5-3.3,2.3-5.7,2.3c-2.1,0-3.8-0.6-5.2-1.9
						c-1.8-1.7-2.8-4.2-2.8-7.7c0-2.6,0.7-4.8,2.1-6.5c1.5-1.8,3.6-2.8,6.2-2.8C29.2-0.4,30.9,0.2,32.2,1.4z"/>
					<path class="st2" d="M43.7,10.1c0.5-0.1,0.8-0.3,1-0.6c0.1-0.2,0.1-0.5,0.1-0.8c0-0.8-0.3-1.3-0.8-1.6
						c-0.5-0.3-1.3-0.5-2.3-0.5c-1.1,0-2,0.3-2.4,0.9c-0.3,0.3-0.4,0.9-0.5,1.5h-2.1c0-1.6,0.6-2.7,1.6-3.4c1-0.6,2.2-0.9,3.5-0.9
						c1.5,0,2.8,0.3,3.7,0.9C46.6,6.1,47,7,47,8.2v7.5c0,0.2,0,0.4,0.1,0.5c0.1,0.1,0.3,0.2,0.6,0.2c0.1,0,0.2,0,0.3,0
						c0.1,0,0.3,0,0.4-0.1V18c-0.3,0.1-0.6,0.2-0.8,0.2c-0.2,0-0.4,0-0.7,0c-0.8,0-1.3-0.3-1.6-0.8c-0.2-0.3-0.3-0.7-0.4-1.2
						c-0.4,0.6-1.1,1.1-1.9,1.5c-0.8,0.4-1.8,0.6-2.8,0.6c-1.2,0-2.2-0.4-3-1.1c-0.8-0.7-1.2-1.7-1.2-2.8c0-1.2,0.4-2.1,1.1-2.8
						c0.8-0.7,1.7-1.1,3-1.2L43.7,10.1z M39.1,16c0.5,0.4,1,0.5,1.6,0.5c0.8,0,1.5-0.2,2.2-0.5c1.2-0.6,1.8-1.6,1.8-2.9v-1.8
						c-0.3,0.2-0.6,0.3-1,0.4S43,12,42.6,12l-1.3,0.2c-0.8,0.1-1.4,0.3-1.8,0.5c-0.7,0.4-1,1-1,1.8C38.4,15.1,38.6,15.6,39.1,16z"/>
					<path class="st2" d="M51.9,13.9c0.1,0.7,0.3,1.3,0.6,1.7c0.6,0.7,1.5,1.1,2.9,1.1c0.8,0,1.6-0.2,2.2-0.5
						c0.6-0.4,0.9-0.9,0.9-1.6c0-0.6-0.3-1-0.8-1.3c-0.3-0.2-1-0.4-1.9-0.6l-1.8-0.4c-1.1-0.3-2-0.6-2.5-0.9c-1-0.6-1.4-1.4-1.4-2.5
						c0-1.2,0.5-2.2,1.4-3c0.9-0.8,2.1-1.1,3.6-1.1c2,0,3.4,0.6,4.3,1.7c0.6,0.7,0.8,1.5,0.8,2.4h-2.1c0-0.5-0.2-0.9-0.5-1.3
						c-0.5-0.6-1.4-0.9-2.7-0.9c-0.8,0-1.5,0.2-1.9,0.5c-0.4,0.3-0.7,0.7-0.7,1.3c0,0.6,0.3,1,0.9,1.4c0.3,0.2,0.8,0.4,1.5,0.5
						l1.5,0.4c1.6,0.4,2.7,0.8,3.2,1.1c0.9,0.6,1.3,1.4,1.3,2.6c0,1.2-0.4,2.2-1.3,3c-0.9,0.8-2.3,1.3-4.1,1.3c-2,0-3.4-0.4-4.2-1.3
						s-1.3-2-1.3-3.3H51.9z"/>
					<path class="st2" d="M71.7,5.3c0.9,0.4,1.5,1,2,1.7c0.4,0.7,0.7,1.4,0.9,2.3c0.1,0.6,0.2,1.6,0.2,2.9h-9.5
						c0,1.3,0.4,2.4,0.9,3.2c0.6,0.8,1.5,1.2,2.7,1.2c1.1,0,2-0.4,2.7-1.1c0.4-0.4,0.6-1,0.8-1.5h2.2c-0.1,0.5-0.2,1-0.6,1.6
						c-0.3,0.6-0.7,1.1-1.1,1.4c-0.7,0.7-1.5,1.1-2.5,1.3c-0.5,0.1-1.1,0.2-1.8,0.2c-1.6,0-3-0.6-4.1-1.8c-1.1-1.2-1.7-2.8-1.7-5
						c0-2.1,0.6-3.8,1.7-5.1c1.1-1.3,2.6-2,4.4-2C70,4.6,70.8,4.8,71.7,5.3z M72.5,10.4c-0.1-1-0.3-1.7-0.6-2.3
						c-0.6-1.1-1.6-1.6-3-1.6c-1,0-1.8,0.4-2.5,1.1c-0.7,0.7-1,1.7-1.1,2.8H72.5z"/>
					<path class="st2" d="M77.6,0H90v2.2H80v5.4h8.8v2.1H80V18h-2.4V0z"/>
					<path class="st2" d="M92.3,0h2.2v2.5h-2.2V0z M92.3,5h2.2v13h-2.2V5z"/>
					<path class="st2" d="M97.4,4.9h2.1v1.9c0.6-0.8,1.3-1.3,2-1.6c0.7-0.3,1.5-0.5,2.3-0.5c1.9,0,3.1,0.6,3.8,1.9
						c0.4,0.7,0.5,1.7,0.5,3V18h-2.2V9.7c0-0.8-0.1-1.4-0.4-1.9c-0.4-0.8-1.1-1.2-2.1-1.2c-0.5,0-0.9,0.1-1.3,0.2
						c-0.6,0.2-1.1,0.5-1.6,1.1c-0.4,0.4-0.6,0.9-0.7,1.3c-0.1,0.5-0.2,1.1-0.2,2V18h-2.2V4.9z"/>
					<path class="st2" d="M118.5,5.3c0.4,0.2,0.8,0.7,1.3,1.3V0h2.1v18h-2v-1.8c-0.5,0.8-1.1,1.4-1.8,1.7s-1.5,0.5-2.4,0.5
						c-1.5,0-2.7-0.6-3.8-1.8c-1.1-1.2-1.6-2.9-1.6-4.9c0-1.9,0.5-3.6,1.5-5s2.4-2.1,4.2-2.1C116.9,4.7,117.8,4.9,118.5,5.3z
						 M113.5,15.1c0.6,0.9,1.5,1.4,2.8,1.4c1,0,1.8-0.4,2.5-1.3c0.7-0.9,1-2.1,1-3.8c0-1.7-0.3-2.9-1-3.7c-0.7-0.8-1.5-1.2-2.5-1.2
						c-1.1,0-2,0.4-2.7,1.3c-0.7,0.8-1,2.1-1,3.7C112.7,13,113,14.2,113.5,15.1z"/>
					<path class="st2" d="M133.2,5.3c0.9,0.4,1.5,1,2,1.7c0.4,0.7,0.7,1.4,0.9,2.3c0.1,0.6,0.2,1.6,0.2,2.9h-9.5
						c0,1.3,0.4,2.4,0.9,3.2c0.6,0.8,1.5,1.2,2.7,1.2c1.1,0,2-0.4,2.7-1.1c0.4-0.4,0.6-1,0.8-1.5h2.2c-0.1,0.5-0.2,1-0.6,1.6
						c-0.3,0.6-0.7,1.1-1.1,1.4c-0.7,0.7-1.5,1.1-2.5,1.3c-0.5,0.1-1.1,0.2-1.8,0.2c-1.6,0-3-0.6-4.1-1.8c-1.1-1.2-1.7-2.8-1.7-5
						c0-2.1,0.6-3.8,1.7-5.1c1.1-1.3,2.6-2,4.4-2C131.5,4.6,132.4,4.8,133.2,5.3z M134,10.4c-0.1-1-0.3-1.7-0.6-2.3
						c-0.6-1.1-1.6-1.6-3-1.6c-1,0-1.8,0.4-2.5,1.1c-0.7,0.7-1,1.7-1.1,2.8H134z"/>
					<path class="st2" d="M139.1,4.9h2.1v2.3c0.2-0.4,0.6-1,1.3-1.6c0.7-0.6,1.4-0.9,2.3-0.9c0,0,0.1,0,0.2,0s0.3,0,0.5,0V7
						c-0.1,0-0.2,0-0.4,0c-0.1,0-0.2,0-0.4,0c-1.1,0-2,0.4-2.6,1.1c-0.6,0.7-0.9,1.5-0.9,2.5V18h-2.2V4.9z"/>
				</g>
				<g class="st1">
					<path class="st2" d="M-8.8,48.1h-7.8v13.2h-7.6V24.7h16c3.7,0,6.6,0.9,8.8,2.8s3.3,4.8,3.3,8.8c0,4.3-1.1,7.4-3.3,9.2
						C-1.6,47.2-4.8,48.1-8.8,48.1z M-5.2,40.5c1-0.9,1.5-2.3,1.5-4.2c0-1.9-0.5-3.3-1.5-4.1c-1-0.8-2.4-1.2-4.2-1.2h-7.1v10.8h7.1
						C-7.7,41.8-6.2,41.4-5.2,40.5z"/>
					<path class="st2" d="M8,37.2c1.9-2.4,5.1-3.6,9.6-3.6c3,0,5.6,0.6,7.9,1.8c2.3,1.2,3.5,3.4,3.5,6.7v12.4c0,0.9,0,1.9,0,3.1
						c0,0.9,0.2,1.6,0.4,1.9c0.2,0.3,0.6,0.6,1,0.8v1h-7.7c-0.2-0.5-0.4-1.1-0.4-1.5c-0.1-0.5-0.1-1-0.2-1.6c-1,1.1-2.1,2-3.4,2.7
						c-1.5,0.9-3.2,1.3-5.2,1.3c-2.5,0-4.5-0.7-6.1-2.1c-1.6-1.4-2.4-3.4-2.4-6c0-3.3,1.3-5.7,3.9-7.2c1.4-0.8,3.5-1.4,6.2-1.7
						l2.4-0.3c1.3-0.2,2.2-0.4,2.8-0.6c1-0.4,1.5-1.1,1.5-2c0-1.1-0.4-1.9-1.2-2.3c-0.8-0.4-1.9-0.6-3.4-0.6c-1.7,0-2.9,0.4-3.6,1.2
						c-0.5,0.6-0.8,1.4-1,2.5H6C6.2,40.6,6.8,38.7,8,37.2z M13.3,56.2c0.7,0.5,1.5,0.8,2.4,0.8c1.5,0,2.9-0.4,4.2-1.3s2-2.5,2-4.9
						v-2.6c-0.4,0.3-0.9,0.5-1.4,0.7c-0.5,0.2-1.1,0.3-1.9,0.5l-1.6,0.3c-1.5,0.3-2.6,0.6-3.2,1c-1.1,0.6-1.6,1.6-1.6,3
						C12.2,54.8,12.6,55.7,13.3,56.2z"/>
					<path class="st2" d="M47,39.5c-2.4,0-4.1,1-4.9,3.1c-0.5,1.1-0.7,2.5-0.7,4.1v14.7h-7.1v-27h6.8v4c0.9-1.4,1.8-2.4,2.6-3
						c1.5-1.1,3.3-1.6,5.5-1.6c2.8,0,5.1,0.7,6.9,2.2c1.8,1.5,2.7,3.9,2.7,7.3v18.2h-7.3V44.8c0-1.4-0.2-2.5-0.6-3.3
						C50.3,40.2,49,39.5,47,39.5z"/>
					<path class="st2" d="M87.5,53.4c-0.2,1.6-1,3.2-2.5,4.9c-2.3,2.6-5.6,4-9.7,4c-3.4,0-6.5-1.1-9.1-3.3c-2.6-2.2-4-5.8-4-10.8
						c0-4.7,1.2-8.3,3.6-10.8c2.4-2.5,5.5-3.8,9.3-3.8c2.3,0,4.3,0.4,6.1,1.3c1.8,0.8,3.3,2.2,4.5,4c1.1,1.6,1.7,3.5,2.1,5.6
						c0.2,1.2,0.3,3,0.2,5.4H69.3c0.1,2.7,1,4.6,2.6,5.7c1,0.7,2.2,1,3.5,1c1.5,0,2.6-0.4,3.6-1.2c0.5-0.4,0.9-1.1,1.3-1.9H87.5z
						 M80.5,45.1c-0.1-1.9-0.7-3.3-1.7-4.3c-1-1-2.3-1.5-3.8-1.5c-1.6,0-2.9,0.5-3.8,1.5s-1.5,2.4-1.7,4.2H80.5z"/>
					<path class="st2" d="M92.8,24.7h7.1v36.6h-7.1V24.7z"/>
					<path class="st2" d="M131.8,56c1.8,0,3.3-0.2,4.4-0.6c2.1-0.8,3.2-2.2,3.2-4.2c0-1.2-0.5-2.1-1.6-2.8c-1.1-0.6-2.7-1.2-5-1.7
						l-3.9-0.9c-3.8-0.9-6.4-1.8-7.9-2.8c-2.5-1.7-3.7-4.3-3.7-7.9c0-3.3,1.2-6,3.6-8.2c2.4-2.2,5.9-3.3,10.5-3.3
						c3.9,0,7.2,1,9.9,3.1c2.7,2,4.2,5,4.3,8.9h-7.4c-0.1-2.2-1.1-3.8-2.9-4.7c-1.2-0.6-2.7-0.9-4.4-0.9c-2,0-3.5,0.4-4.7,1.2
						c-1.2,0.8-1.8,1.9-1.8,3.3c0,1.3,0.6,2.3,1.7,2.9c0.7,0.4,2.3,0.9,4.8,1.5l6.3,1.5c2.8,0.7,4.9,1.5,6.3,2.7
						c2.2,1.7,3.3,4.2,3.3,7.5c0,3.3-1.3,6.1-3.8,8.3c-2.6,2.2-6.2,3.3-10.8,3.3c-4.8,0-8.5-1.1-11.3-3.3c-2.7-2.2-4.1-5.2-4.1-9
						h7.3c0.2,1.7,0.7,2.9,1.4,3.8C126.6,55.3,128.7,56,131.8,56z"/>
					<path class="st2" d="M174,53.4c-0.2,1.6-1,3.2-2.5,4.9c-2.3,2.6-5.6,4-9.7,4c-3.4,0-6.5-1.1-9.1-3.3s-4-5.8-4-10.8
						c0-4.7,1.2-8.3,3.6-10.8s5.5-3.8,9.3-3.8c2.3,0,4.3,0.4,6.1,1.3c1.8,0.8,3.3,2.2,4.5,4c1.1,1.6,1.7,3.5,2.1,5.6
						c0.2,1.2,0.3,3,0.2,5.4h-18.5c0.1,2.7,1,4.6,2.6,5.7c1,0.7,2.2,1,3.5,1c1.5,0,2.6-0.4,3.6-1.2c0.5-0.4,0.9-1.1,1.3-1.9H174z
						 M167,45.1c-0.1-1.9-0.7-3.3-1.7-4.3c-1-1-2.3-1.5-3.8-1.5c-1.6,0-2.9,0.5-3.8,1.5s-1.5,2.4-1.7,4.2H167z"/>
					<path class="st2" d="M180.2,37.2c1.9-2.4,5.1-3.6,9.6-3.6c3,0,5.6,0.6,7.9,1.8c2.3,1.2,3.5,3.4,3.5,6.7v12.4c0,0.9,0,1.9,0,3.1
						c0,0.9,0.2,1.6,0.4,1.9c0.2,0.3,0.6,0.6,1,0.8v1H195c-0.2-0.5-0.4-1.1-0.4-1.5s-0.1-1-0.2-1.6c-1,1.1-2.1,2-3.4,2.7
						c-1.5,0.9-3.2,1.3-5.2,1.3c-2.5,0-4.5-0.7-6.1-2.1c-1.6-1.4-2.4-3.4-2.4-6c0-3.3,1.3-5.7,3.9-7.2c1.4-0.8,3.5-1.4,6.2-1.7
						l2.4-0.3c1.3-0.2,2.2-0.4,2.8-0.6c1-0.4,1.5-1.1,1.5-2c0-1.1-0.4-1.9-1.2-2.3c-0.8-0.4-1.9-0.6-3.4-0.6c-1.7,0-2.9,0.4-3.6,1.2
						c-0.5,0.6-0.8,1.4-1,2.5h-6.8C178.3,40.6,179,38.7,180.2,37.2z M185.4,56.2c0.7,0.5,1.5,0.8,2.4,0.8c1.5,0,2.9-0.4,4.2-1.3
						s2-2.5,2-4.9v-2.6c-0.4,0.3-0.9,0.5-1.4,0.7c-0.5,0.2-1.1,0.3-1.9,0.5l-1.6,0.3c-1.5,0.3-2.6,0.6-3.2,1c-1.1,0.6-1.6,1.6-1.6,3
						C184.4,54.8,184.7,55.7,185.4,56.2z"/>
					<path class="st2" d="M220.1,40.8c-2.9,0-4.8,0.9-5.7,2.8c-0.5,1-0.8,2.7-0.8,4.8v13h-7.1V34.2h6.8v4.7c1.1-1.8,2-3,2.9-3.7
						c1.3-1.1,3-1.7,5.2-1.7c0.1,0,0.2,0,0.3,0c0.1,0,0.3,0,0.6,0v7.3c-0.4,0-0.8-0.1-1.2-0.1C220.5,40.8,220.3,40.8,220.1,40.8z"/>
					<path class="st2" d="M248.7,43.9h-7.3c-0.1-1-0.5-1.9-1-2.7c-0.8-1.1-2-1.6-3.7-1.6c-2.4,0-4,1.2-4.9,3.6
						c-0.5,1.3-0.7,2.9-0.7,5c0,2,0.2,3.6,0.7,4.8c0.8,2.3,2.4,3.4,4.8,3.4c1.7,0,2.8-0.4,3.5-1.3c0.7-0.9,1.1-2.1,1.3-3.5h7.2
						c-0.2,2.2-0.9,4.2-2.3,6.1c-2.2,3.1-5.5,4.6-9.9,4.6c-4.4,0-7.6-1.3-9.6-3.9s-3.1-5.9-3.1-10.1c0-4.7,1.1-8.3,3.4-10.9
						c2.3-2.6,5.4-3.9,9.4-3.9c3.4,0,6.2,0.8,8.3,2.3C247,37.4,248.3,40.1,248.7,43.9z"/>
					<path class="st2" d="M277,45.4v15.9h-7.2V44.8c0-1.5-0.2-2.6-0.7-3.5c-0.6-1.3-1.9-1.9-3.7-1.9c-1.9,0-3.3,0.6-4.3,1.9
						c-1,1.3-1.5,3-1.5,5.4v14.7h-7.1V24.8h7.1v13c1-1.6,2.2-2.7,3.6-3.3c1.4-0.6,2.8-0.9,4.3-0.9c1.7,0,3.2,0.3,4.6,0.9
						s2.5,1.5,3.4,2.7c0.7,1,1.2,2.1,1.4,3.1C276.9,41.2,277,43,277,45.4z"/>
				</g>
			</g>
		</g>
		<g id="グループ_56396" transform="translate(-16097 10481.66)">
			<path id="パス_104938" class="st2" d="M16159.3-10421c-13.1,13.3-35.5,9.7-42.3-8.2c-8.1-21.6,12.4-43.3,34.3-34.6
				C16168.9-10456.5,16172.6-10434.1,16159.3-10421 M16159.1-10421.1c15.3-15.6,3.6-42.5-18-42.6c-22.4-0.1-33.9,26.4-17.5,42.1
				C16132.9-10412.3,16149.7-10411.4,16159.1-10421.1"/>
			<path id="パス_104939" class="st3" d="M16115.5-10439.1c0-22.9,27.7-34.7,44.3-18.7c10.4,9.9,10.4,27.5,0,37.4
				C16143.2-10404.4,16115.6-10416.2,16115.5-10439.1 M16115.5-10439.1c-0.2,13.8,11.8,25.5,25.6,25.1c13.3,0,24.8-11.8,24.6-25.1
				c0.3-13.2-11.2-25.1-24.6-25.1C16127.3-10464.7,16115.4-10453,16115.5-10439.1"/>
			<path id="パス_104940" class="st2" d="M16156.3-10459.3c0.8-2.9,1.4-6.4,4-8.3c2-1.4,4.5-1.2,6.8-1.9c2-0.3,3.9,1.2,4.2,3.2
				c0,0.3,0,0.6,0,0.8c0,0.4-0.1,0.8-0.2,1.2c-0.3,1.4-0.5,3.4-1.4,4.6c-1.7,2.7-5.2,3.6-8,4.7l-0.1-0.2c1.6-1.6,3.5-2.7,5.1-4.1
				c1.6-1.5,2.1-3.9,2.7-5.9c0.6-1.3,0-2.8-1.3-3.4c-0.3-0.1-0.6-0.2-1-0.2c-1.4,0.2-2.9,0.6-4.2,1.2c-1.7,1.1-3.1,2.7-3.9,4.6
				c-0.7,1.3-1.6,2.6-2.5,3.7L16156.3-10459.3z"/>
			<path id="パス_104941" class="st2" d="M16166-10443.5c2-0.3,4.1-0.4,6.1-0.4c2.4-0.5,4.8,1.1,5.3,3.5c0,0.1,0,0.2,0,0.3
				c0.2,1.9-0.9,3.8-2.7,4.5c-2.6,0.8-5.4,0.7-8-0.3c2-0.5,4.1-0.7,6.1-0.8c1.6,0.1,3-1.1,3.1-2.7c0.1-1.6-1.1-3-2.7-3.1
				c-0.3,0-0.6,0-1,0.1C16170.1-10442.1,16167.9-10442.5,16166-10443.5"/>
			<path id="パス_104942" class="st2" d="M16145-10464.5c-1-1.9-1.4-4.1-1.1-6.3c0.4-1.6-0.5-3.2-2-3.6c-1.6-0.4-3.2,0.5-3.6,2
				c-0.1,0.3-0.1,0.6-0.1,1c-0.1,2.1-0.4,4.1-0.8,6.1c-1-2.6-1.1-5.4-0.3-8c0.7-1.8,2.6-2.9,4.5-2.7c2.5,0.3,4.2,2.5,3.9,5
				c0,0.1,0,0.2,0,0.3C16145.4-10468.6,16145.2-10466.6,16145-10464.5"/>
			<path id="パス_104943" class="st2" d="M16137.2-10414.8c1,1.9,1.4,4.1,1.1,6.3c-0.4,1.6,0.5,3.2,2,3.6c1.6,0.4,3.2-0.5,3.6-2
				c0.1-0.3,0.1-0.6,0.1-1c0.1-2.1,0.4-4.1,0.8-6.1c1,2.6,1.1,5.4,0.3,8c-0.7,1.8-2.6,2.9-4.5,2.7c-2.5-0.3-4.2-2.5-3.9-5
				c0-0.1,0-0.2,0-0.3C16136.8-10410.7,16136.9-10412.8,16137.2-10414.8"/>
			<path id="パス_104944" class="st2" d="M16116.2-10435.8c-2,0.3-4.1,0.4-6.1,0.4c-2.4,0.5-4.8-1.1-5.3-3.5c0-0.1,0-0.2,0-0.3
				c-0.2-1.9,0.9-3.8,2.7-4.5c2.6-0.8,5.4-0.7,8,0.3c-2,0.5-4.1,0.7-6.1,0.8c-1.6-0.1-3,1.1-3.1,2.7c-0.1,1.6,1.1,3,2.7,3.1
				c0.3,0,0.7,0,1-0.1C16112.1-10437.2,16114.3-10436.8,16116.2-10435.8"/>
			<path id="パス_104945" class="st2" d="M16121.6-10422.4c-0.2,1.4-0.7,2.6-1.5,3.8l-1.9,3.6l-0.7-0.7c2-1.1,4.7-3,7-3.4
				c-1.5,1.8-4.5,3.1-6.5,4.3c-0.2,0.1-0.5,0.1-0.7-0.2c-0.1-0.1-0.1-0.3,0-0.5l1.9-3.6
				C16119.8-10420.3,16120.6-10421.5,16121.6-10422.4"/>
			<path id="合体_10" class="st4" d="M16129-10436.2l3.3-12.5l12.5-3.3l9.1,9.1l-3.3,12.5l-12.5,3.3L16129-10436.2z"/>
			<path id="パス_104948" class="st2" d="M16137.7-10425.4l-0.3-0.3c-0.5,1.3-1,2.7-1.4,4c-1,2.1-1.4,4.5-1.1,6.9l0.2,0
				c1.5-1.9,2.3-4.2,2.4-6.6c0.3-1.4,0.5-2.8,0.7-4.2L16137.7-10425.4z"/>
			<path id="パス_104949" class="st2" d="M16127.4-10435.8l0.1-0.4c-1.5,0.2-2.9,0.5-4.4,0.8c-2.4,0.2-4.8,1.1-6.7,2.6l0.1,0.2
				c2.4,0.3,4.9-0.1,7-1.2c1.4-0.5,2.8-1,4.2-1.6L16127.4-10435.8z"/>
			<path id="パス_104950" class="st2" d="M16131-10449.5l0.1-0.5l0.5-0.1c-0.8-1.1-1.7-2.1-2.6-3.1c-1.3-1.9-3.1-3.4-5.2-4.3
				l-0.1,0.1c0.8,2.2,2.3,4,4.3,5.2C16128.9-10451.2,16130-10450.3,16131-10449.5"/>
			<path id="パス_104951" class="st2" d="M16145.3-10453.8l0.3,0.3c0.5-1.2,1-2.5,1.4-3.7c1-2,1.4-4.3,1-6.6l-0.2-0.1
				c-1.4,1.8-2.3,3.9-2.4,6.2c-0.2,1.3-0.5,2.6-0.7,3.9L16145.3-10453.8z"/>
			<path id="パス_104952" class="st2" d="M16165.1-10445.9c-2.1-0.4-4.4-0.1-6.3,0.9c-1.2,0.4-2.3,0.8-3.4,1.3l0.3,0.3l-0.1,0.5
				c1.2-0.2,2.4-0.4,3.6-0.6c2.2-0.1,4.3-0.9,5.9-2.3L16165.1-10445.9"/>
			<path id="パス_104953" class="st2" d="M16155.1-10427.1c-1-0.9-2-1.7-3.1-2.5l-0.1,0.5l-0.5,0.1c0.8,1,1.7,2.1,2.5,3.1
				c1.2,1.9,3,3.4,5.2,4.2l0.1-0.1C16158.5-10424.1,16157-10425.9,16155.1-10427.1"/>
		</g>
	</g>
</g>
</svg>
