<svg xmlns="http://www.w3.org/2000/svg" xmlns:xlink="http://www.w3.org/1999/xlink" width="492" height="85" viewBox="0 0 492 85">
  <defs>
    <clipPath id="clip-logo_PanelSearch">
      <rect width="492" height="85"/>
    </clipPath>
  </defs>
  <g id="logo_PanelSearch" clip-path="url(#clip-logo_PanelSearch)">
    <g id="グループ_56238" data-name="グループ 56238" transform="translate(-11827.957 -6612.707)">
      <g id="グループ_56232" data-name="グループ 56232" transform="translate(11949.498 6624.859)">
        <path id="パス_104437" data-name="パス 104437" d="M18.075.057H10.264V13.285H2.626V-23.5H18.649q5.541,0,8.835,2.845t3.294,8.81q0,6.514-3.294,9.21T18.075.057ZM21.669-7.6a5.322,5.322,0,0,0,1.5-4.193q0-2.87-1.51-4.093a6.553,6.553,0,0,0-4.23-1.223H10.264V-6.282h7.163A6.26,6.26,0,0,0,21.669-7.6ZM53.416,9.442q-.1.125-.5.749a5.011,5.011,0,0,1-.948,1.1,9.9,9.9,0,0,1-3.232,2.047,11.015,11.015,0,0,1-3.656.549q-6.04,0-8.136-4.343a16.617,16.617,0,0,1-1.173-7.063v-16.4h7.288v16.4a8.584,8.584,0,0,0,.549,3.494q.973,2.072,3.819,2.072A4.992,4.992,0,0,0,52.417,5.1a10.661,10.661,0,0,0,.7-4.218v-14.8h7.213v27.2H53.416Zm28.552,4.567a9.706,9.706,0,0,1-5.416-1.348,10.817,10.817,0,0,1-2.646-2.8v3.419H66.943V-23.453h7.088v13.078A10.378,10.378,0,0,1,77-13.27a8.822,8.822,0,0,1,4.892-1.248,10.076,10.076,0,0,1,8.4,3.869A15.705,15.705,0,0,1,93.323-.666,17.554,17.554,0,0,1,90.329,9.841,9.711,9.711,0,0,1,81.968,14.009ZM85.861.082a13.166,13.166,0,0,0-.749-4.792A5.215,5.215,0,0,0,79.871-8.3a5.292,5.292,0,0,0-5.316,3.519A13.208,13.208,0,0,0,73.806.057a10.143,10.143,0,0,0,1.547,5.79,5.3,5.3,0,0,0,4.717,2.3,4.882,4.882,0,0,0,4.268-2.221A10.143,10.143,0,0,0,85.861.082ZM124.945,10.54a15,15,0,0,1-10.532,3.769q-7.937,0-12.479-5.092Q97.392,4.1,97.392-4.809q0-9.634,5.166-14.85A15.394,15.394,0,0,1,113.989-24.2q9.284,0,13.577,6.09a13.184,13.184,0,0,1,2.546,6.864h-7.687a10.383,10.383,0,0,0-1.922-3.993q-2.1-2.4-6.215-2.4a7.7,7.7,0,0,0-6.614,3.382q-2.421,3.382-2.421,9.572t2.558,9.272a8.084,8.084,0,0,0,6.5,3.082,7.436,7.436,0,0,0,6.165-2.646A11.492,11.492,0,0,0,122.424.756h7.612A16.544,16.544,0,0,1,124.945,10.54Zm11.406-21.514q2.82-3.594,9.684-3.594a17.2,17.2,0,0,1,7.937,1.772q3.469,1.772,3.469,6.689V6.372q0,1.3.05,3.145a3.954,3.954,0,0,0,.424,1.9,2.55,2.55,0,0,0,1.048.824v1.048h-7.737a7.925,7.925,0,0,1-.449-1.547q-.125-.724-.2-1.647a14.615,14.615,0,0,1-3.394,2.72,10.21,10.21,0,0,1-5.191,1.323,8.925,8.925,0,0,1-6.1-2.109,7.522,7.522,0,0,1-2.408-5.978q0-5.017,3.868-7.263a17.176,17.176,0,0,1,6.239-1.747l2.421-.3a11.1,11.1,0,0,0,2.82-.624,2.139,2.139,0,0,0,1.522-2.022,2.4,2.4,0,0,0-1.161-2.309,7.25,7.25,0,0,0-3.407-.636A4.438,4.438,0,0,0,142.216-7.6a5.187,5.187,0,0,0-1,2.5h-6.863A10.439,10.439,0,0,1,136.351-10.974Zm5.291,19.118a3.717,3.717,0,0,0,2.446.824,7.244,7.244,0,0,0,4.23-1.348q1.934-1.348,2.009-4.917V.057a7.73,7.73,0,0,1-1.36.686,11.376,11.376,0,0,1-1.884.487l-1.6.3a10.314,10.314,0,0,0-3.22.973,3.262,3.262,0,0,0-1.647,3.02A3.123,3.123,0,0,0,141.642,8.144ZM182.5-12.671q3.195,2.047,3.669,7.038h-7.113A4.208,4.208,0,0,0,178.28-7.8q-1.173-1.448-3.993-1.448a5.738,5.738,0,0,0-3.307.724,2.083,2.083,0,0,0-.986,1.7,1.857,1.857,0,0,0,1.048,1.772,45.377,45.377,0,0,0,7.412,1.972,13.615,13.615,0,0,1,6.364,3.02,6.857,6.857,0,0,1,2.1,5.116,8.267,8.267,0,0,1-3.007,6.6q-3.007,2.558-9.3,2.558-6.414,0-9.472-2.708a8.81,8.81,0,0,1-3.057-6.9H169.3a4.75,4.75,0,0,0,.973,2.7q1.323,1.423,4.892,1.423a7.456,7.456,0,0,0,3.332-.624,2,2,0,0,0,1.235-1.872,2.018,2.018,0,0,0-1-1.822q-1-.624-7.413-2.146Q166.7,1.106,164.8-.616a6.223,6.223,0,0,1-1.9-4.892,8.485,8.485,0,0,1,2.958-6.477q2.957-2.708,8.323-2.708A15.41,15.41,0,0,1,182.5-12.671ZM215.467,5.3a9.023,9.023,0,0,1-2.521,4.917q-3.494,3.968-9.784,3.968A13.8,13.8,0,0,1,194,10.839q-3.968-3.344-3.968-10.882,0-7.063,3.581-10.832a12.245,12.245,0,0,1,9.3-3.769,14.257,14.257,0,0,1,6.115,1.273,10.712,10.712,0,0,1,4.492,4.018,13.71,13.71,0,0,1,2.072,5.616,36.267,36.267,0,0,1,.225,5.391H197.2q.15,4.093,2.571,5.74a6.055,6.055,0,0,0,3.544,1.023,5.1,5.1,0,0,0,3.569-1.248A5.927,5.927,0,0,0,208.2,5.3Zm-7.038-8.336a6.192,6.192,0,0,0-1.71-4.28,5.309,5.309,0,0,0-3.806-1.46,4.831,4.831,0,0,0-3.831,1.547,7.724,7.724,0,0,0-1.71,4.193Zm38.834-13.952H228.82v8.461h16.148v6.389H228.82V13.285h-7.637V-23.453h26.081Zm11.88,3.07v27.2h-7.213v-27.2Zm0-9.809v6.564h-7.213v-6.564ZM278.836-8.653a4.952,4.952,0,0,0-4.967,3.07,10.545,10.545,0,0,0-.7,4.143V13.285h-7.088V-13.869h6.863V-9.9a12.076,12.076,0,0,1,2.6-3.02,9.02,9.02,0,0,1,5.566-1.647,10.5,10.5,0,0,1,6.9,2.209q2.683,2.209,2.683,7.325V13.285H283.4V-3.262a7.551,7.551,0,0,0-.574-3.295Q281.781-8.653,278.836-8.653Zm43.177-14.8V13.285H315.1V9.517a10.033,10.033,0,0,1-3.469,3.519,9.739,9.739,0,0,1-4.842,1.1,10.109,10.109,0,0,1-8.024-3.856,14.808,14.808,0,0,1-3.257-9.9q0-6.963,3.207-10.957a10.434,10.434,0,0,1,8.573-3.993,8.774,8.774,0,0,1,4.393,1.086,8.64,8.64,0,0,1,3.12,3.007V-23.453ZM302.845-.142a10.7,10.7,0,0,0,1.5,6.015,4.985,4.985,0,0,0,4.492,2.271A5.252,5.252,0,0,0,313.427,5.9,9.924,9.924,0,0,0,315,.082q0-4.992-2.521-7.138a5.425,5.425,0,0,0-3.594-1.3A5,5,0,0,0,304.305-6,10.927,10.927,0,0,0,302.845-.142ZM351.763,5.3a9.023,9.023,0,0,1-2.521,4.917q-3.494,3.968-9.784,3.968a13.8,13.8,0,0,1-9.16-3.344Q326.33,7.495,326.331-.042q0-7.063,3.581-10.832a12.245,12.245,0,0,1,9.3-3.769,14.257,14.257,0,0,1,6.115,1.273,10.712,10.712,0,0,1,4.492,4.018,13.71,13.71,0,0,1,2.072,5.616,36.267,36.267,0,0,1,.225,5.391H333.493q.15,4.093,2.571,5.74a6.055,6.055,0,0,0,3.544,1.023,5.1,5.1,0,0,0,3.569-1.248A5.927,5.927,0,0,0,344.5,5.3Zm-7.038-8.336a6.192,6.192,0,0,0-1.71-4.28,5.309,5.309,0,0,0-3.806-1.46,4.831,4.831,0,0,0-3.831,1.547,7.724,7.724,0,0,0-1.71,4.193Zm25.856-4.318q-4.293,0-5.765,2.8a10.875,10.875,0,0,0-.824,4.842v13h-7.163v-27.2h6.789v4.742a15.038,15.038,0,0,1,2.87-3.719,7.813,7.813,0,0,1,5.191-1.672q.2,0,.337.012t.611.037V-7.23q-.674-.075-1.2-.1T370.581-7.355Z" transform="translate(-2.626 24.202)" fill="#161d55"/>
        <text id="Panel_Search" data-name="Panel Search" transform="translate(0.347 66.649)" fill="#161d55" font-size="26" font-family="Helvetica-Light, Helvetica" font-weight="300"><tspan x="0" y="0">Panel Search</tspan></text>
      </g>
    </g>
    <g id="グループ_56396" data-name="グループ 56396" transform="translate(-16097 10481.66)">
      <path id="パス_104938" data-name="パス 104938" d="M54.517,55.008c-13.095,13.267-35.488,9.748-42.294-8.155C4.154,25.268,24.635,3.578,46.548,12.266,64.2,19.462,67.87,41.9,54.517,55.008m-.141-.141C69.632,39.295,57.954,12.4,36.363,12.221c-22.4-.077-33.9,26.371-17.495,42.128,9.332,9.314,26.083,10.254,35.508.518" transform="translate(16120 -10476)" fill="#161d55"/>
      <path id="パス_104939" data-name="パス 104939" d="M10.789,36.854c.044-22.936,27.69-34.692,44.264-18.69,10.433,9.921,10.439,27.462,0,37.383C38.485,71.556,10.827,59.788,10.789,36.854m0,0c-.165,13.817,11.824,25.525,25.574,25.071C49.686,61.917,61.2,50.091,60.937,36.854,61.2,23.616,49.691,11.781,36.363,11.778c-13.752-.451-25.74,11.257-25.574,25.076" transform="translate(16120 -10476)" fill="#161d55" stroke="#161d55" stroke-width="1"/>
      <path id="パス_104940" data-name="パス 104940" d="M51.532,16.745c.8-2.921,1.421-6.355,3.985-8.276,2.034-1.372,4.5-1.179,6.76-1.852a3.716,3.716,0,0,1,4.167,4.065c-.036.417-.137.781-.195,1.162-.274,1.425-.518,3.361-1.381,4.568-1.718,2.692-5.171,3.6-8.019,4.7l-.1-.172c1.588-1.554,3.466-2.721,5.137-4.141,1.644-1.466,2.092-3.9,2.679-5.921a2.535,2.535,0,0,0-2.238-3.581A12.992,12.992,0,0,0,58.165,8.52a10.552,10.552,0,0,0-3.92,4.573,26.828,26.828,0,0,1-2.533,3.738Z" transform="translate(16120 -10476)" fill="#161d55"/>
      <path id="パス_104941" data-name="パス 104941" d="M61.222,32.456a54.954,54.954,0,0,1,6.121-.441,4.485,4.485,0,0,1,5.312,3.851,4.4,4.4,0,0,1-2.7,4.5,12.022,12.022,0,0,1-8-.317,33.011,33.011,0,0,1,6.129-.814,2.918,2.918,0,1,0-.607-5.723,9.855,9.855,0,0,1-6.252-1.054" transform="translate(16120 -10476)" fill="#161d55"/>
      <path id="パス_104942" data-name="パス 104942" d="M40.225,11.459a9.843,9.843,0,0,1-1.053-6.253A2.918,2.918,0,1,0,33.448,4.6a33.011,33.011,0,0,1-.814,6.129,12.022,12.022,0,0,1-.317-8,4.4,4.4,0,0,1,4.5-2.7,4.485,4.485,0,0,1,3.851,5.312,54.954,54.954,0,0,1-.441,6.121" transform="translate(16120 -10476)" fill="#161d55"/>
      <path id="パス_104943" data-name="パス 104943" d="M32.456,61.222a9.841,9.841,0,0,1,1.053,6.252,2.919,2.919,0,1,0,5.724.607,33.011,33.011,0,0,1,.814-6.129,12.022,12.022,0,0,1,.317,8,4.4,4.4,0,0,1-4.5,2.7,4.485,4.485,0,0,1-3.851-5.312,54.954,54.954,0,0,1,.441-6.121" transform="translate(16120 -10476)" fill="#161d55"/>
      <path id="パス_104944" data-name="パス 104944" d="M11.459,40.225a55.2,55.2,0,0,1-6.121.442A4.486,4.486,0,0,1,.026,36.815a4.4,4.4,0,0,1,2.7-4.5,12.015,12.015,0,0,1,8,.316,33.011,33.011,0,0,1-6.129.814,2.918,2.918,0,1,0,.607,5.723,9.855,9.855,0,0,1,6.252,1.054" transform="translate(16120 -10476)" fill="#161d55"/>
      <path id="パス_104945" data-name="パス 104945" d="M16.876,53.589a10.214,10.214,0,0,1-1.461,3.8l-1.9,3.566-.69-.669c2.041-1.076,4.668-3.045,6.966-3.43-1.479,1.787-4.52,3.08-6.468,4.3a.5.5,0,0,1-.69-.669l1.9-3.566a10.209,10.209,0,0,1,2.343-3.331" transform="translate(16120 -10476)" fill="#161d55"/>
      <path id="合体_10" data-name="合体 10" d="M0,15.842,3.347,3.348,15.842,0l9.147,9.146L21.641,21.641,9.147,24.989Z" transform="translate(16144.307 -10452.077)" fill="#258800" stroke="rgba(0,0,0,0)" stroke-miterlimit="10" stroke-width="1"/>
      <path id="パス_104948" data-name="パス 104948" d="M33,50.6l-.311-.311c-.5,1.336-.989,2.677-1.443,4.029a11.685,11.685,0,0,0-1.053,6.9l.193.05a11.684,11.684,0,0,0,2.41-6.552c.256-1.41.479-2.827.685-4.246Z" transform="translate(16120 -10476)" fill="#161d55"/>
      <path id="パス_104949" data-name="パス 104949" d="M22.612,40.218l.113-.423c-1.464.244-2.926.5-4.38.8a12.247,12.247,0,0,0-6.677,2.572l.054.192a12.257,12.257,0,0,0,7.049-1.222c1.405-.5,2.8-1.028,4.184-1.573Z" transform="translate(16120 -10476)" fill="#161d55"/>
      <path id="パス_104950" data-name="パス 104950" d="M26.29,26.5l.124-.465.465-.124c-.847-1.057-1.7-2.1-2.589-3.131a10.941,10.941,0,0,0-5.241-4.252l-.142.142a10.937,10.937,0,0,0,4.252,5.241c1.026.884,2.073,1.742,3.131,2.589" transform="translate(16120 -10476)" fill="#161d55"/>
      <path id="パス_104951" data-name="パス 104951" d="M40.6,22.229l.347.347c.484-1.231.954-2.466,1.393-3.713A10.62,10.62,0,0,0,43.385,12.3l-.193-.052a10.619,10.619,0,0,0-2.4,6.2c-.247,1.3-.461,2.6-.661,3.907Z" transform="translate(16120 -10476)" fill="#161d55"/>
      <path id="パス_104952" data-name="パス 104952" d="M60.389,30.095A9.747,9.747,0,0,0,54.1,31c-1.157.4-2.3.829-3.447,1.271l.339.339-.135.507c1.218-.17,2.434-.354,3.645-.568a9.738,9.738,0,0,0,5.941-2.266l-.05-.193" transform="translate(16120 -10476)" fill="#161d55"/>
      <path id="パス_104953" data-name="パス 104953" d="M50.381,48.866c-1.006-.864-2.032-1.7-3.069-2.532l-.126.469-.469.125c.829,1.037,1.668,2.064,2.533,3.069a10.672,10.672,0,0,0,5.18,4.191l.141-.142a10.669,10.669,0,0,0-4.19-5.18" transform="translate(16120 -10476)" fill="#161d55"/>
    </g>
  </g>
</svg>
