<svg xmlns="http://www.w3.org/2000/svg" xmlns:xlink="http://www.w3.org/1999/xlink" width="300" height="300" viewBox="0 0 300 300">
  <defs>
    <clipPath id="clip-path">
      <rect id="長方形_9025" data-name="長方形 9025" width="275" height="275" fill="none"/>
    </clipPath>
    <clipPath id="clip-step03">
      <rect width="300" height="300"/>
    </clipPath>
  </defs>
  <g id="step03" clip-path="url(#clip-step03)">
    <g id="グループ_56998" data-name="グループ 56998">
      <g id="グループ_56973" data-name="グループ 56973" transform="translate(12 20)" style="isolation: isolate">
        <g id="グループ_56972" data-name="グループ 56972">
          <g id="グループ_56971" data-name="グループ 56971" clip-path="url(#clip-path)">
            <path id="パス_124962" data-name="パス 124962" d="M275,137.5A137.5,137.5,0,1,1,137.5,0,137.5,137.5,0,0,1,275,137.5" transform="translate(0 0)" fill="#dfe2e6"/>
          </g>
        </g>
      </g>
      <g id="グループ_56995" data-name="グループ 56995">
        <path id="パス_124963" data-name="パス 124963" d="M112.529,153.816H50.51a10.239,10.239,0,0,1,0-20.478h62.019a10.239,10.239,0,1,1,0,20.478" transform="translate(26.674 68.582)" fill="#fb7d2e"/>
        <path id="パス_124964" data-name="パス 124964" d="M178.13,153.816H116.111a10.239,10.239,0,0,1,0-20.478H178.13a10.239,10.239,0,1,1,0,20.478" transform="translate(50.574 68.582)" fill="#fb7d2e"/>
        <path id="パス_124965" data-name="パス 124965" d="M73.7,148.5H65.3a.6.6,0,0,1-.595-.595v-9.77a.594.594,0,0,1,1.188,0v9.177H73.7a.594.594,0,1,1,0,1.188" transform="translate(35.576 70.114)" fill="#fff"/>
        <path id="パス_124966" data-name="パス 124966" d="M75.835,146.616h-8.4a.594.594,0,0,1-.593-.594v-9.771a.594.594,0,0,1,.593-.593h5.871a.6.6,0,0,1,.4.157l2.53,2.334a.6.6,0,0,1,.19.437v7.437a.594.594,0,0,1-.593.594m-7.805-1.188H75.24v-6.582l-2.167-2H68.029Z" transform="translate(36.354 69.427)" fill="#fff"/>
        <path id="パス_124967" data-name="パス 124967" d="M135.237,147.822a5.65,5.65,0,1,1,5.651-5.648,5.656,5.656,0,0,1-5.651,5.648m0-9.935a4.285,4.285,0,1,0,4.287,4.287,4.291,4.291,0,0,0-4.287-4.287" transform="translate(59.215 69.742)" fill="#fff"/>
        <path id="パス_124968" data-name="パス 124968" d="M139.433,146.5a.684.684,0,0,1-.469-.187l-2.686-2.545a.683.683,0,0,1,.939-.992l2.686,2.546a.682.682,0,0,1-.469,1.177" transform="translate(61.576 71.952)" fill="#fff"/>
        <path id="パス_124969" data-name="パス 124969" d="M230.333,68.552H29.089a1.364,1.364,0,1,1,0-2.729H230.333a1.364,1.364,0,0,1,0,2.729" transform="translate(22.102 43.982)" fill="#151b3e"/>
        <path id="パス_124970" data-name="パス 124970" d="M79.195,62.9H29.343a1.741,1.741,0,1,1,0-3.482H79.195a1.741,1.741,0,1,1,0,3.482" transform="translate(22.057 41.649)" fill="#b0b5cb"/>
        <path id="パス_124971" data-name="パス 124971" d="M225.48,89.767H33.406a5.458,5.458,0,0,1-5.457-5.457V77.632a5.457,5.457,0,0,1,5.457-5.457H225.48a5.457,5.457,0,0,1,5.457,5.457V84.31a5.458,5.458,0,0,1-5.457,5.457" transform="translate(22.184 46.297)" fill="#fff"/>
        <path id="パス_124972" data-name="パス 124972" d="M225.843,91.5H33.77a6.83,6.83,0,0,1-6.822-6.822V78a6.829,6.829,0,0,1,6.822-6.822H225.843A6.829,6.829,0,0,1,232.665,78v6.678a6.83,6.83,0,0,1-6.822,6.822M33.77,73.9A4.1,4.1,0,0,0,29.677,78v6.678a4.1,4.1,0,0,0,4.093,4.093H225.843a4.1,4.1,0,0,0,4.093-4.093V78a4.1,4.1,0,0,0-4.093-4.093Z" transform="translate(21.818 45.933)" fill="#cbcbcb"/>
        <path id="パス_124973" data-name="パス 124973" d="M171.79,77.507l-2.187,2.74-2.3-2.626" transform="translate(72.959 48.239)" fill="#fff"/>
        <path id="パス_124974" data-name="パス 124974" d="M169.766,81.02a.612.612,0,0,1-.46-.209l-2.3-2.626a.61.61,0,0,1,.92-.8l1.815,2.075,1.731-2.167a.609.609,0,1,1,.954.759l-2.186,2.74a.609.609,0,0,1-.464.229h-.014" transform="translate(72.795 48.076)"/>
        <path id="パス_124975" data-name="パス 124975" d="M57.943,81.806H45.914a2.582,2.582,0,1,1,0-5.164H57.943a2.582,2.582,0,0,1,0,5.164" transform="translate(27.787 47.925)" fill="#b0b5cb"/>
        <path id="パス_124976" data-name="パス 124976" d="M114.961,81.806H60.428a2.582,2.582,0,0,1,0-5.164h54.533a2.582,2.582,0,0,1,0,5.164" transform="translate(33.076 47.925)" fill="#b0b5cb"/>
        <path id="パス_124977" data-name="パス 124977" d="M40.821,77.87H34.16a.682.682,0,1,1,0-1.364h6.661a.682.682,0,1,1,0,1.364" transform="translate(24.197 47.875)" fill="#151b3e"/>
        <path id="パス_124978" data-name="パス 124978" d="M36.6,77.828a.682.682,0,0,1-.682-.682V76.1a.682.682,0,0,1,1.364,0v1.044a.682.682,0,0,1-.682.682" transform="translate(25.088 47.479)" fill="#151b3e"/>
        <path id="パス_124979" data-name="パス 124979" d="M39.134,83.122h-4a.682.682,0,0,1-.682-.682V77.629a.682.682,0,0,1,1.364,0v4.129h2.635v-4.2a.682.682,0,0,1,1.364,0V82.44a.682.682,0,0,1-.682.682" transform="translate(24.553 48.011)" fill="#151b3e"/>
        <path id="パス_124980" data-name="パス 124980" d="M225.48,107.371H33.406a5.458,5.458,0,0,1-5.457-5.457V95.236a5.457,5.457,0,0,1,5.457-5.457H225.48a5.457,5.457,0,0,1,5.457,5.457v6.677a5.458,5.458,0,0,1-5.457,5.457" transform="translate(22.184 52.711)" fill="#fff"/>
        <path id="パス_124981" data-name="パス 124981" d="M225.843,109.1H33.77a6.83,6.83,0,0,1-6.822-6.822V95.6a6.83,6.83,0,0,1,6.822-6.822H225.843a6.83,6.83,0,0,1,6.822,6.822v6.678a6.83,6.83,0,0,1-6.822,6.822M33.77,91.507A4.1,4.1,0,0,0,29.677,95.6v6.678a4.1,4.1,0,0,0,4.093,4.093H225.843a4.1,4.1,0,0,0,4.093-4.093V95.6a4.1,4.1,0,0,0-4.093-4.093Z" transform="translate(21.818 52.347)" fill="#cbcbcb"/>
        <path id="パス_124982" data-name="パス 124982" d="M171.79,95.111,169.6,97.85l-2.3-2.626" transform="translate(72.959 54.653)" fill="#fff"/>
        <path id="パス_124983" data-name="パス 124983" d="M169.766,98.624a.612.612,0,0,1-.46-.209l-2.3-2.626a.61.61,0,0,1,.92-.8l1.815,2.075,1.731-2.167a.609.609,0,1,1,.954.759l-2.186,2.74a.609.609,0,0,1-.464.229h-.014" transform="translate(72.795 54.49)"/>
        <path id="パス_124984" data-name="パス 124984" d="M57.943,99.41H45.914a2.583,2.583,0,1,1,0-5.165H57.943a2.583,2.583,0,0,1,0,5.165" transform="translate(27.787 54.338)" fill="#b0b5cb"/>
        <path id="パス_124985" data-name="パス 124985" d="M114.961,99.41H60.428a2.583,2.583,0,0,1,0-5.165h54.533a2.583,2.583,0,0,1,0,5.165" transform="translate(33.076 54.338)" fill="#b0b5cb"/>
        <path id="パス_124986" data-name="パス 124986" d="M40.821,95.474H34.16a.682.682,0,1,1,0-1.364h6.661a.682.682,0,1,1,0,1.364" transform="translate(24.197 54.289)" fill="#151b3e"/>
        <path id="パス_124987" data-name="パス 124987" d="M36.6,95.431a.682.682,0,0,1-.682-.682V93.705a.682.682,0,1,1,1.364,0v1.044a.682.682,0,0,1-.682.682" transform="translate(25.088 53.893)" fill="#151b3e"/>
        <path id="パス_124988" data-name="パス 124988" d="M39.134,100.726h-4a.682.682,0,0,1-.682-.682V95.233a.682.682,0,0,1,1.364,0v4.129h2.635v-4.2a.682.682,0,0,1,1.364,0v4.879a.682.682,0,0,1-.682.682" transform="translate(24.553 54.425)" fill="#151b3e"/>
        <path id="パス_124989" data-name="パス 124989" d="M225.48,124.975H33.406a5.458,5.458,0,0,1-5.457-5.457V112.84a5.457,5.457,0,0,1,5.457-5.457H225.48a5.457,5.457,0,0,1,5.457,5.457v6.677a5.458,5.458,0,0,1-5.457,5.457" transform="translate(22.184 59.125)" fill="#fff"/>
        <path id="パス_124990" data-name="パス 124990" d="M225.843,126.7H33.77a6.83,6.83,0,0,1-6.822-6.822V113.2a6.829,6.829,0,0,1,6.822-6.822H225.843a6.829,6.829,0,0,1,6.822,6.822v6.679a6.83,6.83,0,0,1-6.822,6.822M33.77,109.111a4.1,4.1,0,0,0-4.093,4.093v6.679a4.1,4.1,0,0,0,4.093,4.093H225.843a4.1,4.1,0,0,0,4.093-4.093V113.2a4.1,4.1,0,0,0-4.093-4.093Z" transform="translate(21.818 58.761)" fill="#cbcbcb"/>
        <path id="パス_124991" data-name="パス 124991" d="M171.79,112.714l-2.187,2.74-2.3-2.626" transform="translate(72.959 61.067)" fill="#fff"/>
        <path id="パス_124992" data-name="パス 124992" d="M169.766,116.227a.612.612,0,0,1-.46-.209l-2.3-2.626a.61.61,0,0,1,.92-.8l1.815,2.075,1.731-2.167a.609.609,0,1,1,.954.759L170.244,116a.609.609,0,0,1-.464.229h-.014" transform="translate(72.795 60.904)"/>
        <path id="パス_124993" data-name="パス 124993" d="M57.943,117.013H45.914a2.582,2.582,0,1,1,0-5.164H57.943a2.582,2.582,0,0,1,0,5.164" transform="translate(27.787 60.752)" fill="#b0b5cb"/>
        <path id="パス_124994" data-name="パス 124994" d="M114.961,117.013H60.428a2.582,2.582,0,0,1,0-5.164h54.533a2.582,2.582,0,0,1,0,5.164" transform="translate(33.076 60.752)" fill="#b0b5cb"/>
        <path id="パス_124995" data-name="パス 124995" d="M40.821,113.077H34.16a.682.682,0,1,1,0-1.364h6.661a.682.682,0,1,1,0,1.364" transform="translate(24.197 60.703)" fill="#151b3e"/>
        <path id="パス_124996" data-name="パス 124996" d="M36.6,113.035a.682.682,0,0,1-.682-.682v-1.044a.682.682,0,1,1,1.364,0v1.044a.682.682,0,0,1-.682.682" transform="translate(25.088 60.307)" fill="#151b3e"/>
        <path id="パス_124997" data-name="パス 124997" d="M39.134,118.329h-4a.682.682,0,0,1-.682-.682v-4.811a.682.682,0,0,1,1.364,0v4.129h2.635v-4.2a.682.682,0,1,1,1.364,0v4.879a.682.682,0,0,1-.682.682" transform="translate(24.553 60.839)" fill="#151b3e"/>
        <path id="パス_124998" data-name="パス 124998" d="M73.928,138.777H71.149v-2.6Z" transform="translate(37.924 69.615)" fill="#fff"/>
        <path id="パス_124999" data-name="パス 124999" d="M74.088,139.53H71.309a.594.594,0,0,1-.594-.594v-2.6a.595.595,0,0,1,1-.434l2.778,2.6a.594.594,0,0,1-.405,1.029M71.9,138.342h.679L71.9,137.7Z" transform="translate(37.766 69.457)" fill="#fff"/>
        <path id="パス_125000" data-name="パス 125000" d="M59.2,142.773l-3.633,17.888a2.58,2.58,0,0,1-4.172,1.475l-12.856-10.62a2.579,2.579,0,0,1,.6-4.35L55.63,139.9a2.581,2.581,0,0,1,3.569,2.875" transform="translate(25.699 70.891)" fill="#151b3e"/>
        <path id="パス_125001" data-name="パス 125001" d="M39.82,163.354a2.729,2.729,0,0,1-2.153-4.4l8.47-10.889a2.728,2.728,0,1,1,4.307,3.349L41.977,162.3a2.731,2.731,0,0,1-2.157,1.053" transform="translate(25.516 73.563)" fill="#151b3e"/>
        <path id="パス_125002" data-name="パス 125002" d="M38.075,148.829a1.365,1.365,0,0,1-.982-.417L28.1,139.079a1.364,1.364,0,1,1,1.965-1.894l8.992,9.332a1.364,1.364,0,0,1-.982,2.311" transform="translate(22.1 69.832)" fill="#fb7d2e"/>
        <path id="パス_125003" data-name="パス 125003" d="M23.056,156.078a1.364,1.364,0,0,1-.192-2.715l12.829-1.842a1.365,1.365,0,0,1,.386,2.7l-12.828,1.84a1.353,1.353,0,0,1-.2.014" transform="translate(19.904 75.201)" fill="#fb7d2e"/>
        <path id="パス_125004" data-name="パス 125004" d="M34.447,150.208a1.338,1.338,0,0,1-.439-.074l-12.267-4.18a1.364,1.364,0,0,1,.88-2.583l12.266,4.182a1.364,1.364,0,0,1-.439,2.655" transform="translate(19.584 72.21)" fill="#fb7d2e"/>
      </g>
      <rect id="長方形_9026" data-name="長方形 9026" width="275" height="275" transform="translate(12 20)" fill="none"/>
      <path id="パス_125013" data-name="パス 125013" d="M17.1.684C27.531.684,32.433-6.9,32.433-19.893S27.531-40.47,17.1-40.47,1.767-32.889,1.767-19.893,6.669.684,17.1.684Zm0-7.239c-4.56,0-6.042-3.534-6.042-9.576v-7.524c0-6.042,1.482-9.576,6.042-9.576s6.042,3.534,6.042,9.576v7.524C23.142-10.089,21.66-6.555,17.1-6.555Zm28.329-17.5v7.125H49.02c4.332,0,6.954,1.653,6.954,4.9v.342c0,3.306-2.28,5.415-6.156,5.415-4.275,0-6.669-2.337-8.379-5.586l-6.327,4.9C37.677-2.907,41.724.684,49.818.684c9.006,0,15.1-4.617,15.1-11.742,0-5.472-3.534-8.721-8.265-9.576v-.342a8.832,8.832,0,0,0,7.581-8.949c0-6.384-5.529-10.545-14.079-10.545-6.84,0-10.716,2.736-13.737,6.669l5.358,5.016a9.711,9.711,0,0,1,8.094-4.731c3.363,0,5.358,1.938,5.358,4.788v.4c0,2.451-1.881,4.275-6.1,4.275Z" transform="translate(12 58)" fill="#161d55"/>
    </g>
  </g>
</svg>
