<svg xmlns="http://www.w3.org/2000/svg" xmlns:xlink="http://www.w3.org/1999/xlink" width="300" height="300" viewBox="0 0 300 300">
  <defs>
    <clipPath id="clip-path">
      <rect id="長方形_9021" data-name="長方形 9021" width="275" height="274.999" fill="none"/>
    </clipPath>
    <clipPath id="clip-step02">
      <rect width="300" height="300"/>
    </clipPath>
  </defs>
  <g id="step02" clip-path="url(#clip-step02)">
    <g id="グループ_56997" data-name="グループ 56997">
      <g id="グループ_56968" data-name="グループ 56968" transform="translate(15 20)" style="isolation: isolate">
        <g id="グループ_56967" data-name="グループ 56967">
          <g id="グループ_56966" data-name="グループ 56966" clip-path="url(#clip-path)">
            <path id="パス_124893" data-name="パス 124893" d="M275,137.5A137.5,137.5,0,1,1,137.5,0,137.5,137.5,0,0,1,275,137.5" transform="translate(0 0)" fill="#dfe2e6"/>
          </g>
        </g>
      </g>
      <g id="グループ_56994" data-name="グループ 56994" transform="translate(0 10)">
        <path id="パス_124894" data-name="パス 124894" d="M140.306,97.871H78.638a10.181,10.181,0,0,1,0-20.361h61.667a10.181,10.181,0,1,1,0,20.361" transform="translate(43.193 48.289)" fill="#fb7d2e"/>
        <g id="グループ_56984" data-name="グループ 56984" transform="translate(176.742 133.701)">
          <path id="パス_124895" data-name="パス 124895" d="M116.261,89.266l3.613,17.786a2.565,2.565,0,0,0,4.147,1.466L136.8,97.959a2.565,2.565,0,0,0-.6-4.325l-16.4-7.227a2.565,2.565,0,0,0-3.548,2.858" transform="translate(-116.207 -82.242)" fill="#151b3e"/>
          <path id="パス_124896" data-name="パス 124896" d="M133.512,109.773a2.711,2.711,0,0,1-2.143-1.047L122.948,97.9a2.713,2.713,0,1,1,4.284-3.33l8.419,10.827a2.713,2.713,0,0,1-2.139,4.379" transform="translate(-114.007 -79.626)" fill="#151b3e"/>
          <path id="パス_124897" data-name="パス 124897" d="M134.725,95.27a1.357,1.357,0,0,1-.977-2.3l8.94-9.279a1.357,1.357,0,0,1,1.955,1.883L135.7,94.855a1.355,1.355,0,0,1-.977.415" transform="translate(-110.088 -83.278)" fill="#fb7d2e"/>
          <path id="パス_124898" data-name="パス 124898" d="M150.695,102.562a1.379,1.379,0,0,1-.2-.014l-12.754-1.831a1.357,1.357,0,0,1,.385-2.687l12.755,1.833a1.357,1.357,0,0,1-.191,2.7" transform="translate(-108.942 -78.023)" fill="#fb7d2e"/>
          <path id="パス_124899" data-name="パス 124899" d="M139.226,96.678a1.356,1.356,0,0,1-.438-2.64l12.2-4.157a1.357,1.357,0,1,1,.876,2.568l-12.2,4.155a1.338,1.338,0,0,1-.438.073" transform="translate(-108.483 -80.95)" fill="#fb7d2e"/>
        </g>
        <path id="パス_124900" data-name="パス 124900" d="M8.56,156.07a1.356,1.356,0,0,1-.6-2.572l11.554-5.7a1.356,1.356,0,1,1,1.2,2.432l-11.556,5.7a1.335,1.335,0,0,1-.6.141" transform="translate(20.568 73.834)" fill="#fb7d2e"/>
        <path id="パス_124901" data-name="パス 124901" d="M19.719,143.436a1.343,1.343,0,0,1-.635-.159L7.7,137.234a1.357,1.357,0,1,1,1.274-2.4l11.379,6.044a1.357,1.357,0,0,1-.638,2.554" transform="translate(20.49 69.104)" fill="#fb7d2e"/>
        <path id="パス_124902" data-name="パス 124902" d="M17.161,146.31h-.024l-12.882-.22a1.357,1.357,0,1,1,.046-2.713l12.884.22a1.357,1.357,0,0,1-.023,2.713" transform="translate(19.041 72.251)" fill="#fb7d2e"/>
        <path id="パス_124903" data-name="パス 124903" d="M225.8,116.619H24.16a1.357,1.357,0,1,1,0-2.713H225.8a1.357,1.357,0,1,1,0,2.713" transform="translate(26.129 61.511)" fill="#151b3e"/>
        <path id="パス_124904" data-name="パス 124904" d="M218.568,86.076H31.062a7.942,7.942,0,0,1-7.972-7.91V35.245a7.941,7.941,0,0,1,7.972-7.91H218.568a7.941,7.941,0,0,1,7.972,7.91v42.92a7.942,7.942,0,0,1-7.972,7.91" transform="translate(26.234 29.748)" fill="#fff"/>
        <path id="パス_124905" data-name="パス 124905" d="M44.754,42a9.014,9.014,0,1,1-9.015-9.015A9.015,9.015,0,0,1,44.754,42" transform="translate(27.531 32.036)" fill="#fff"/>
        <path id="パス_124906" data-name="パス 124906" d="M36.1,52.727a10.371,10.371,0,1,1,10.371-10.37A10.384,10.384,0,0,1,36.1,52.727m0-18.028a7.657,7.657,0,1,0,7.658,7.658A7.667,7.667,0,0,0,36.1,34.7" transform="translate(27.174 31.675)" fill="#cbcbcb"/>
        <path id="パス_124907" data-name="パス 124907" d="M44.754,60.96a9.014,9.014,0,1,1-9.015-9.015,9.015,9.015,0,0,1,9.015,9.015" transform="translate(27.531 38.955)" fill="#fff"/>
        <path id="パス_124908" data-name="パス 124908" d="M36.1,71.687a10.371,10.371,0,1,1,10.371-10.37A10.384,10.384,0,0,1,36.1,71.687m0-18.028a7.657,7.657,0,1,0,7.658,7.658A7.667,7.667,0,0,0,36.1,53.659" transform="translate(27.174 38.595)" fill="#cbcbcb"/>
        <path id="パス_124909" data-name="パス 124909" d="M173.326,42a9.014,9.014,0,1,1-9.016-9.015A9.016,9.016,0,0,1,173.326,42" transform="translate(74.686 32.036)" fill="#fff"/>
        <path id="パス_124910" data-name="パス 124910" d="M164.668,52.727a10.371,10.371,0,1,1,10.371-10.37,10.384,10.384,0,0,1-10.371,10.37m0-18.028a7.657,7.657,0,1,0,7.658,7.658,7.667,7.667,0,0,0-7.658-7.658" transform="translate(74.584 44.465)" fill="#cbcbcb"/>
        <line id="線_1017" data-name="線 1017" y2="58.363" transform="translate(77.748 57.294)" fill="#fff"/>
        <rect id="長方形_9022" data-name="長方形 9022" width="2.713" height="58.363" transform="translate(76.387 57.293)" fill="#cbcbcb"/>
        <line id="線_1018" data-name="線 1018" y2="58.363" transform="translate(224.77 57.294)" fill="#fff"/>
        <rect id="長方形_9023" data-name="長方形 9023" width="2.713" height="58.363" transform="translate(223.418 57.293)" fill="#cbcbcb"/>
        <path id="パス_124913" data-name="パス 124913" d="M96.557,51.319H52.965a3.8,3.8,0,0,1-3.8-3.794V36.046a3.8,3.8,0,0,1,3.8-3.794H96.557a3.794,3.794,0,0,1,3.794,3.794V47.525a3.794,3.794,0,0,1-3.794,3.794" transform="translate(36.023 31.77)" fill="#b0b5cb"/>
        <line id="線_1019" data-name="線 1019" x2="3.58" y2="3.505" transform="translate(89.395 71.979)" fill="#fff"/>
        <path id="パス_124914" data-name="パス 124914" d="M56.07,42.457a.681.681,0,0,1-.475-.194l-3.58-3.505a.678.678,0,1,1,.948-.969l3.581,3.505a.678.678,0,0,1-.475,1.163" transform="translate(36.902 33.703)" fill="#fff"/>
        <line id="線_1020" data-name="線 1020" x1="3.58" y2="3.505" transform="translate(89.395 71.979)" fill="#fff"/>
        <path id="パス_124915" data-name="パス 124915" d="M52.49,42.457a.678.678,0,0,1-.475-1.163L55.6,37.789a.678.678,0,1,1,.948.969l-3.58,3.505a.681.681,0,0,1-.475.194" transform="translate(36.902 33.703)" fill="#fff"/>
        <path id="パス_124916" data-name="パス 124916" d="M82.558,41.877a.679.679,0,0,1-.487-.206L79.538,39.06a.678.678,0,1,1,.974-.943L82.535,40.2l1.926-2.175a.678.678,0,0,1,1.016.9l-2.411,2.723a.679.679,0,0,1-.494.229Z" transform="translate(46.941 33.776)" fill="#fff"/>
        <path id="パス_124917" data-name="パス 124917" d="M76.471,39.066H58.755a1.563,1.563,0,0,1,0-3.127H76.471a1.563,1.563,0,0,1,0,3.127" transform="translate(38.893 32.816)" fill="#fff"/>
        <path id="パス_124918" data-name="パス 124918" d="M83.518,43.611H58.755a1.563,1.563,0,0,1,0-3.127H83.518a1.563,1.563,0,0,1,0,3.127" transform="translate(38.908 34.754)" fill="#fff"/>
        <path id="パス_124919" data-name="パス 124919" d="M96.557,69.2H52.965a3.8,3.8,0,0,1-3.8-3.794V53.931a3.8,3.8,0,0,1,3.8-3.794H96.557a3.794,3.794,0,0,1,3.794,3.794V65.41A3.794,3.794,0,0,1,96.557,69.2" transform="translate(36.023 38.297)" fill="#b0b5cb"/>
        <line id="線_1021" data-name="線 1021" x2="3.58" y2="3.505" transform="translate(89.395 96.382)" fill="#fff"/>
        <path id="パス_124920" data-name="パス 124920" d="M56.07,60.341a.681.681,0,0,1-.475-.194l-3.58-3.5a.678.678,0,1,1,.948-.969l3.581,3.5a.678.678,0,0,1-.475,1.163" transform="translate(36.902 40.222)" fill="#fff"/>
        <line id="線_1022" data-name="線 1022" x1="3.58" y2="3.505" transform="translate(89.395 96.382)" fill="#fff"/>
        <path id="パス_124921" data-name="パス 124921" d="M52.49,60.341a.678.678,0,0,1-.475-1.163l3.581-3.5a.678.678,0,1,1,.948.969l-3.58,3.5a.681.681,0,0,1-.475.194" transform="translate(36.902 40.222)" fill="#fff"/>
        <path id="パス_124922" data-name="パス 124922" d="M82.558,59.763a.679.679,0,0,1-.487-.206l-2.533-2.611A.678.678,0,1,1,80.512,56l2.023,2.085,1.926-2.176a.678.678,0,0,1,1.016.9l-2.411,2.724a.679.679,0,0,1-.494.229Z" transform="translate(46.941 40.294)" fill="#fff"/>
        <path id="パス_124923" data-name="パス 124923" d="M76.471,56.951H58.755a1.563,1.563,0,0,1,0-3.127H76.471a1.563,1.563,0,0,1,0,3.127" transform="translate(38.893 39.615)" fill="#fff"/>
        <path id="パス_124924" data-name="パス 124924" d="M83.518,61.5H58.755a1.563,1.563,0,0,1,0-3.127H83.518a1.563,1.563,0,0,1,0,3.127" transform="translate(38.908 41.272)" fill="#fff"/>
        <path id="パス_124925" data-name="パス 124925" d="M138,51.319H94.412a3.8,3.8,0,0,1-3.8-3.794V36.046a3.8,3.8,0,0,1,3.8-3.794H138a3.794,3.794,0,0,1,3.794,3.794V47.525A3.794,3.794,0,0,1,138,51.319" transform="translate(51.199 31.77)" fill="#b0b5cb"/>
        <line id="線_1023" data-name="線 1023" x2="3.58" y2="3.505" transform="translate(145.947 71.979)" fill="#fff"/>
        <path id="パス_124926" data-name="パス 124926" d="M97.517,42.457a.681.681,0,0,1-.475-.194l-3.58-3.505a.678.678,0,1,1,.948-.969l3.581,3.505a.678.678,0,0,1-.475,1.163" transform="translate(52.01 33.703)" fill="#fff"/>
        <line id="線_1024" data-name="線 1024" x1="3.58" y2="3.505" transform="translate(145.947 71.979)" fill="#fff"/>
        <path id="パス_124927" data-name="パス 124927" d="M93.937,42.457a.678.678,0,0,1-.475-1.163l3.581-3.505a.678.678,0,1,1,.948.969l-3.58,3.505a.681.681,0,0,1-.475.194" transform="translate(52.01 33.703)" fill="#fff"/>
        <path id="パス_124928" data-name="パス 124928" d="M124.005,41.877a.679.679,0,0,1-.487-.206l-2.533-2.611a.678.678,0,1,1,.974-.943l2.023,2.085,1.926-2.175a.678.678,0,0,1,1.016.9l-2.411,2.723a.679.679,0,0,1-.494.229Z" transform="translate(62.051 33.776)" fill="#fff"/>
        <path id="パス_124929" data-name="パス 124929" d="M117.918,39.066H100.2a1.563,1.563,0,0,1,0-3.127h17.716a1.563,1.563,0,0,1,0,3.127" transform="translate(54.021 32.816)" fill="#fff"/>
        <path id="パス_124930" data-name="パス 124930" d="M124.965,43.611H100.2a1.563,1.563,0,0,1,0-3.127h24.764a1.563,1.563,0,0,1,0,3.127" transform="translate(54.045 34.754)" fill="#fff"/>
        <path id="パス_124931" data-name="パス 124931" d="M218.915,87.789H31.428a9.313,9.313,0,0,1-9.338-9.267V35.6a9.312,9.312,0,0,1,9.338-9.267H218.915a9.313,9.313,0,0,1,9.338,9.267v42.92a9.314,9.314,0,0,1-9.338,9.267M31.428,29.048a6.586,6.586,0,0,0-6.6,6.554v42.92a6.586,6.586,0,0,0,6.6,6.554H218.915a6.586,6.586,0,0,0,6.6-6.554V35.6a6.586,6.586,0,0,0-6.6-6.554Z" transform="translate(25.877 29.392)" fill="#cbcbcb"/>
        <path id="パス_124932" data-name="パス 124932" d="M73.97,110.963H24.4a1.731,1.731,0,0,1,0-3.462H73.97a1.731,1.731,0,1,1,0,3.462" transform="translate(26.084 59.179)" fill="#b0b5cb"/>
        <path id="パス_124933" data-name="パス 124933" d="M220.944,137.75H28.484a5.448,5.448,0,0,1-5.468-5.426v-6.639a5.447,5.447,0,0,1,5.468-5.426h192.46a5.447,5.447,0,0,1,5.468,5.426v6.639a5.448,5.448,0,0,1-5.468,5.426" transform="translate(26.207 63.88)" fill="#fff"/>
        <path id="パス_124934" data-name="パス 124934" d="M221.291,139.465H28.851a6.818,6.818,0,0,1-6.835-6.783V126.04a6.817,6.817,0,0,1,6.835-6.783h192.44a6.817,6.817,0,0,1,6.835,6.783v6.642a6.818,6.818,0,0,1-6.835,6.783M28.851,121.97a4.091,4.091,0,0,0-4.1,4.07v6.642a4.091,4.091,0,0,0,4.1,4.07h192.44a4.09,4.09,0,0,0,4.1-4.07V126.04a4.09,4.09,0,0,0-4.1-4.07Z" transform="translate(25.852 63.525)" fill="#cbcbcb"/>
        <path id="パス_124935" data-name="パス 124935" d="M166.832,125.589l-2.175,2.724-2.283-2.611" transform="translate(77.465 65.769)" fill="#fff"/>
        <path id="パス_124936" data-name="パス 124936" d="M164.818,129.08a.606.606,0,0,1-.456-.208l-2.285-2.611a.606.606,0,0,1,.913-.8l1.806,2.065,1.722-2.156a.606.606,0,1,1,.948.754l-2.175,2.724a.6.6,0,0,1-.46.228h-.014" transform="translate(77.305 65.61)"/>
        <path id="パス_124937" data-name="パス 124937" d="M52.928,129.859H40.967a2.567,2.567,0,1,1,0-5.135H52.928a2.567,2.567,0,0,1,0,5.135" transform="translate(32.029 65.462)" fill="#b0b5cb"/>
        <path id="パス_124938" data-name="パス 124938" d="M109.7,129.859H55.481a2.567,2.567,0,0,1,0-5.135H109.7a2.567,2.567,0,0,1,0,5.135" transform="translate(37.414 65.462)" fill="#b0b5cb"/>
        <path id="パス_124939" data-name="パス 124939" d="M35.847,125.946H29.224a.678.678,0,1,1,0-1.357h6.623a.678.678,0,1,1,0,1.357" transform="translate(28.18 65.399)" fill="#151b3e"/>
        <path id="パス_124940" data-name="パス 124940" d="M31.665,125.9a.679.679,0,0,1-.678-.678V124.18a.678.678,0,1,1,1.357,0v1.038a.679.679,0,0,1-.678.678" transform="translate(29.051 65.007)" fill="#151b3e"/>
        <path id="パス_124941" data-name="パス 124941" d="M34.176,131.17H30.2a.679.679,0,0,1-.678-.678v-4.783a.678.678,0,0,1,1.357,0v4.105H33.5V125.64a.678.678,0,1,1,1.357,0v4.851a.679.679,0,0,1-.678.678" transform="translate(28.527 65.553)" fill="#151b3e"/>
        <path id="パス_124942" data-name="パス 124942" d="M220.944,155.354H28.484a5.448,5.448,0,0,1-5.468-5.426v-6.639a5.447,5.447,0,0,1,5.468-5.426h192.46a5.447,5.447,0,0,1,5.468,5.426v6.639a5.448,5.448,0,0,1-5.468,5.426" transform="translate(26.207 70.303)" fill="#fff"/>
        <path id="パス_124943" data-name="パス 124943" d="M221.291,157.068H28.851a6.818,6.818,0,0,1-6.835-6.783v-6.641a6.817,6.817,0,0,1,6.835-6.783h192.44a6.817,6.817,0,0,1,6.835,6.783v6.641a6.818,6.818,0,0,1-6.835,6.783M28.851,139.574a4.09,4.09,0,0,0-4.1,4.07v6.641a4.09,4.09,0,0,0,4.1,4.07h192.44a4.09,4.09,0,0,0,4.1-4.07v-6.641a4.09,4.09,0,0,0-4.1-4.07Z" transform="translate(25.852 69.95)" fill="#cbcbcb"/>
        <path id="パス_124944" data-name="パス 124944" d="M166.832,143.193l-2.175,2.724-2.283-2.611" transform="translate(77.465 72.184)" fill="#fff"/>
        <path id="パス_124945" data-name="パス 124945" d="M164.818,146.683a.606.606,0,0,1-.456-.208l-2.285-2.611a.606.606,0,0,1,.913-.8l1.806,2.065,1.722-2.156a.606.606,0,1,1,.948.754l-2.175,2.724a.6.6,0,0,1-.46.228h-.014" transform="translate(77.305 72.025)"/>
        <path id="パス_124946" data-name="パス 124946" d="M52.928,147.463H40.967a2.567,2.567,0,1,1,0-5.135H52.928a2.567,2.567,0,0,1,0,5.135" transform="translate(32.029 71.879)" fill="#b0b5cb"/>
        <path id="パス_124947" data-name="パス 124947" d="M109.7,147.463H55.481a2.567,2.567,0,0,1,0-5.135H109.7a2.567,2.567,0,0,1,0,5.135" transform="translate(37.414 71.879)" fill="#b0b5cb"/>
        <path id="パス_124948" data-name="パス 124948" d="M35.847,143.549H29.224a.678.678,0,0,1,0-1.357h6.623a.678.678,0,0,1,0,1.357" transform="translate(28.18 71.813)" fill="#151b3e"/>
        <path id="パス_124949" data-name="パス 124949" d="M31.665,143.5a.679.679,0,0,1-.678-.678v-1.038a.678.678,0,0,1,1.357,0v1.038a.679.679,0,0,1-.678.678" transform="translate(29.051 71.422)" fill="#151b3e"/>
        <path id="パス_124950" data-name="パス 124950" d="M34.176,148.773H30.2a.679.679,0,0,1-.678-.678v-4.783a.678.678,0,1,1,1.357,0v4.105H33.5v-4.173a.678.678,0,0,1,1.357,0v4.851a.679.679,0,0,1-.678.678" transform="translate(28.527 71.97)" fill="#151b3e"/>
        <path id="パス_124951" data-name="パス 124951" d="M220.944,172.957H28.484a5.448,5.448,0,0,1-5.468-5.426v-6.639a5.447,5.447,0,0,1,5.468-5.426h192.46a5.447,5.447,0,0,1,5.468,5.426v6.639a5.448,5.448,0,0,1-5.468,5.426" transform="translate(26.207 76.727)" fill="#fff"/>
        <path id="パス_124952" data-name="パス 124952" d="M221.291,174.672H28.851a6.818,6.818,0,0,1-6.835-6.783v-6.641a6.817,6.817,0,0,1,6.835-6.783h192.44a6.817,6.817,0,0,1,6.835,6.783v6.641a6.818,6.818,0,0,1-6.835,6.783M28.851,157.178a4.09,4.09,0,0,0-4.1,4.07v6.641a4.09,4.09,0,0,0,4.1,4.07h192.44a4.09,4.09,0,0,0,4.1-4.07v-6.641a4.09,4.09,0,0,0-4.1-4.07Z" transform="translate(25.852 76.375)" fill="#cbcbcb"/>
        <path id="パス_124953" data-name="パス 124953" d="M166.832,160.8l-2.175,2.724-2.283-2.611" transform="translate(77.465 78.599)" fill="#fff"/>
        <path id="パス_124954" data-name="パス 124954" d="M164.818,164.287a.606.606,0,0,1-.456-.208l-2.285-2.611a.606.606,0,0,1,.913-.8l1.806,2.065,1.722-2.156a.606.606,0,1,1,.948.754l-2.175,2.724a.6.6,0,0,1-.46.228h-.014" transform="translate(77.305 78.441)"/>
        <path id="パス_124955" data-name="パス 124955" d="M52.928,165.067H40.967a2.567,2.567,0,1,1,0-5.135H52.928a2.567,2.567,0,0,1,0,5.135" transform="translate(32.029 78.295)" fill="#b0b5cb"/>
        <path id="パス_124956" data-name="パス 124956" d="M109.7,165.067H55.481a2.567,2.567,0,0,1,0-5.135H109.7a2.567,2.567,0,0,1,0,5.135" transform="translate(37.414 78.295)" fill="#b0b5cb"/>
        <path id="パス_124957" data-name="パス 124957" d="M35.847,161.153H29.224a.678.678,0,1,1,0-1.357h6.623a.678.678,0,1,1,0,1.357" transform="translate(28.18 78.229)" fill="#151b3e"/>
        <path id="パス_124958" data-name="パス 124958" d="M31.665,161.1a.679.679,0,0,1-.678-.678v-1.039a.678.678,0,1,1,1.357,0v1.039a.679.679,0,0,1-.678.678" transform="translate(29.051 77.837)" fill="#151b3e"/>
        <path id="パス_124959" data-name="パス 124959" d="M34.176,166.377H30.2a.679.679,0,0,1-.678-.678v-4.783a.678.678,0,0,1,1.357,0v4.105H33.5v-4.173a.678.678,0,0,1,1.357,0V165.7a.679.679,0,0,1-.678.678" transform="translate(28.527 78.387)" fill="#151b3e"/>
        <path id="パス_124960" data-name="パス 124960" d="M105.212,86.349h-9.8a1.258,1.258,0,1,1,0-2.515h9.8a1.258,1.258,0,0,1,0,2.515" transform="translate(52.355 50.551)" fill="#fff"/>
        <path id="パス_124961" data-name="パス 124961" d="M99.022,92.54a1.258,1.258,0,0,1-1.258-1.258v-9.8a1.258,1.258,0,1,1,2.515,0v9.8a1.258,1.258,0,0,1-1.258,1.258" transform="translate(53.645 49.258)" fill="#fff"/>
      </g>
      <path id="パス_125012" data-name="パス 125012" d="M17.1.684C27.531.684,32.433-6.9,32.433-19.893S27.531-40.47,17.1-40.47,1.767-32.889,1.767-19.893,6.669.684,17.1.684Zm0-7.239c-4.56,0-6.042-3.534-6.042-9.576v-7.524c0-6.042,1.482-9.576,6.042-9.576s6.042,3.534,6.042,9.576v7.524C23.142-10.089,21.66-6.555,17.1-6.555Zm48.507-.627H46.8L54.207-13c5.7-4.5,10.6-8.664,10.6-15.5,0-6.9-4.959-11.97-13.566-11.97-8.265,0-12.882,4.617-14.649,10.146l7.467,2.85c.8-3.021,2.622-5.586,6.384-5.586,2.565,0,5.244,1.539,5.244,4.56v.8c0,3.363-1.539,5.586-5.985,9.4L37.449-7.809V0H65.607Z" transform="translate(15 58)" fill="#161d55"/>
    </g>
  </g>
</svg>
