<svg xmlns="http://www.w3.org/2000/svg" xmlns:xlink="http://www.w3.org/1999/xlink" width="300" height="300" viewBox="0 0 300 300">
  <defs>
    <clipPath id="clip-path">
      <rect id="長方形_9016" data-name="長方形 9016" width="275" height="275" fill="none"/>
    </clipPath>
    <clipPath id="clip-path-2">
      <rect id="長方形_9019" data-name="長方形 9019" width="39.633" height="97.57" fill="none"/>
    </clipPath>
    <clipPath id="clip-step01">
      <rect width="300" height="300"/>
    </clipPath>
  </defs>
  <g id="step01" clip-path="url(#clip-step01)">
    <g id="グループ_56996" data-name="グループ 56996">
      <g id="グループ_56959" data-name="グループ 56959" transform="translate(17.141 20)">
        <g id="グループ_56958" data-name="グループ 56958" clip-path="url(#clip-path)">
          <path id="パス_124831" data-name="パス 124831" d="M283.859,137.5A137.5,137.5,0,1,1,146.36,0a137.5,137.5,0,0,1,137.5,137.5" transform="translate(-8.859 0)" fill="#dfe2e6"/>
        </g>
      </g>
      <path id="パス_124843" data-name="パス 124843" d="M39.621,49.169a9.014,9.014,0,1,1-9.015-9.015,9.015,9.015,0,0,1,9.015,9.015" transform="translate(14.824 41.601)" fill="#fff"/>
      <path id="パス_124847" data-name="パス 124847" d="M168.192,49.169a9.014,9.014,0,1,1-9.015-9.015,9.015,9.015,0,0,1,9.015,9.015" transform="translate(54.182 41.601)" fill="#fff"/>
      <path id="パス_124851" data-name="パス 124851" d="M91.424,58.488H47.832a3.8,3.8,0,0,1-3.8-3.794V43.215a3.8,3.8,0,0,1,3.8-3.794H91.424a3.794,3.794,0,0,1,3.794,3.794V54.694a3.794,3.794,0,0,1-3.794,3.794" transform="translate(20.652 41.31)" fill="#b0b5cb"/>
      <line id="線_1012" data-name="線 1012" y2="15.942" transform="translate(120.902 82.535)" fill="#fff"/>
      <path id="パス_124852" data-name="パス 124852" d="M86.806,58.376a1.356,1.356,0,0,1-1.357-1.357V41.078a1.357,1.357,0,0,1,2.713,0V57.019a1.356,1.356,0,0,1-1.357,1.357" transform="translate(34.104 41.429)" fill="#cbcbcb"/>
      <line id="線_1013" data-name="線 1013" x2="3.58" y2="3.505" transform="translate(69.191 88.819)" fill="#fff"/>
      <path id="パス_124853" data-name="パス 124853" d="M50.937,49.626a.681.681,0,0,1-.475-.194l-3.58-3.505a.678.678,0,1,1,.948-.969l3.581,3.505a.678.678,0,0,1-.475,1.163" transform="translate(21.846 43.364)" fill="#fff"/>
      <line id="線_1014" data-name="線 1014" x1="3.58" y2="3.505" transform="translate(69.191 88.819)" fill="#fff"/>
      <path id="パス_124854" data-name="パス 124854" d="M47.357,49.626a.678.678,0,0,1-.475-1.163l3.581-3.505a.678.678,0,1,1,.948.969l-3.58,3.505a.681.681,0,0,1-.475.194" transform="translate(21.846 43.364)" fill="#fff"/>
      <path id="パス_124855" data-name="パス 124855" d="M77.425,49.048a.679.679,0,0,1-.487-.206L74.405,46.23a.678.678,0,1,1,.974-.943L77.4,47.372,79.328,45.2a.678.678,0,0,1,1.016.9l-2.411,2.724a.679.679,0,0,1-.494.229Z" transform="translate(30.516 43.439)" fill="#fff"/>
      <path id="パス_124856" data-name="パス 124856" d="M71.338,46.235H53.622a1.563,1.563,0,0,1,0-3.127H71.338a1.563,1.563,0,0,1,0,3.127" transform="translate(23.414 42.671)" fill="#fff"/>
      <path id="パス_124857" data-name="パス 124857" d="M78.385,50.78H53.622a1.563,1.563,0,0,1,0-3.127H78.385a1.563,1.563,0,0,1,0,3.127" transform="translate(23.35 44.527)" fill="#fff"/>
      <g id="グループ_56993" data-name="グループ 56993">
        <path id="パス_124832" data-name="パス 124832" d="M211.936,93.245H25.867a7.911,7.911,0,0,1-7.91-7.91V42.414a7.91,7.91,0,0,1,7.91-7.91H211.936a7.91,7.91,0,0,1,7.91,7.91v42.92a7.911,7.911,0,0,1-7.91,7.91" transform="translate(13.527 39.689)" fill="#fff"/>
        <path id="パス_124833" data-name="パス 124833" d="M212.114,94.1H26.047a8.6,8.6,0,0,1-8.589-8.589V42.593A8.6,8.6,0,0,1,26.047,34H212.114a8.6,8.6,0,0,1,8.589,8.589v42.92a8.6,8.6,0,0,1-8.589,8.589M26.047,35.361a7.241,7.241,0,0,0-7.232,7.232v42.92a7.241,7.241,0,0,0,7.232,7.232H212.114a7.24,7.24,0,0,0,7.232-7.232V42.593a7.24,7.24,0,0,0-7.232-7.232Z" transform="translate(13.35 39.494)" fill="#b2b2b2"/>
        <path id="パス_124834" data-name="パス 124834" d="M230.013,205.094H70.273a7.91,7.91,0,0,1-7.91-7.91V96.326a7.91,7.91,0,0,1,7.91-7.91h159.74a7.911,7.911,0,0,1,7.91,7.91V197.183a7.911,7.911,0,0,1-7.91,7.91" transform="translate(20.904 66.423)" fill="#fff"/>
        <path id="パス_124835" data-name="パス 124835" d="M230.013,91.129a5.2,5.2,0,0,1,5.2,5.2V197.183a5.2,5.2,0,0,1-5.2,5.2H70.273a5.2,5.2,0,0,1-5.2-5.2V96.326a5.2,5.2,0,0,1,5.2-5.2Zm0-2.713H70.273a7.91,7.91,0,0,0-7.91,7.91V197.183a7.91,7.91,0,0,0,7.91,7.91h159.74a7.911,7.911,0,0,0,7.91-7.91V96.326a7.911,7.911,0,0,0-7.91-7.91" transform="translate(20.904 66.423)" fill="#cbcbcb"/>
        <path id="パス_124836" data-name="パス 124836" d="M139.71,177.572H74.7a3.872,3.872,0,0,1-3.872-3.872V108.1a3.872,3.872,0,0,1,3.872-3.872H139.71a3.872,3.872,0,0,1,3.872,3.872v65.6a3.872,3.872,0,0,1-3.872,3.872" transform="translate(28.525 69.689)" fill="#fff"/>
        <path id="パス_124837" data-name="パス 124837" d="M140.066,179.284h-65a5.234,5.234,0,0,1-5.228-5.228v-65.6a5.234,5.234,0,0,1,5.228-5.228h65a5.234,5.234,0,0,1,5.228,5.228v65.6a5.234,5.234,0,0,1-5.228,5.228m-65-73.345a2.519,2.519,0,0,0-2.515,2.515v65.6a2.519,2.519,0,0,0,2.515,2.515h65a2.518,2.518,0,0,0,2.515-2.515v-65.6a2.518,2.518,0,0,0-2.515-2.515Z" transform="translate(28.174 69.37)" fill="#cbcbcb"/>
        <path id="パス_124838" data-name="パス 124838" d="M198.46,177.572H133.454a3.872,3.872,0,0,1-3.872-3.872V108.1a3.872,3.872,0,0,1,3.872-3.872H198.46a3.872,3.872,0,0,1,3.872,3.872v65.6a3.872,3.872,0,0,1-3.872,3.872" transform="translate(44.875 69.689)" fill="#fff"/>
        <path id="パス_124839" data-name="パス 124839" d="M198.815,179.284h-65a5.234,5.234,0,0,1-5.228-5.228v-65.6a5.234,5.234,0,0,1,5.228-5.228h65a5.235,5.235,0,0,1,5.23,5.228v65.6a5.235,5.235,0,0,1-5.23,5.228m-65-73.345a2.519,2.519,0,0,0-2.515,2.515v65.6a2.519,2.519,0,0,0,2.515,2.515h65a2.519,2.519,0,0,0,2.517-2.515v-65.6a2.519,2.519,0,0,0-2.517-2.515Z" transform="translate(44.52 69.37)" fill="#cbcbcb"/>
        <path id="パス_124840" data-name="パス 124840" d="M189.5,170.616H160.657a2.712,2.712,0,0,1-2.713-2.713V164.1a2.712,2.712,0,0,1,2.713-2.713H189.5a2.712,2.712,0,0,1,2.713,2.713V167.9a2.712,2.712,0,0,1-2.713,2.713" transform="translate(54.99 92.443)" fill="#fb7d2e"/>
        <path id="パス_124841" data-name="パス 124841" d="M158.369,170.616H142.354a2.712,2.712,0,0,1-2.713-2.713V164.1a2.712,2.712,0,0,1,2.713-2.713h16.015a2.712,2.712,0,0,1,2.713,2.713V167.9a2.712,2.712,0,0,1-2.713,2.713" transform="translate(50.805 92.443)" fill="#cbcbcb"/>
        <path id="パス_124842" data-name="パス 124842" d="M140.15,170.616H124.135a2.712,2.712,0,0,1-2.713-2.713V164.1a2.712,2.712,0,0,1,2.713-2.713H140.15a2.712,2.712,0,0,1,2.713,2.713V167.9a2.712,2.712,0,0,1-2.713,2.713" transform="translate(45.105 92.443)" fill="#cbcbcb"/>
        <path id="パス_124844" data-name="パス 124844" d="M30.964,59.9a10.371,10.371,0,1,1,10.371-10.37A10.384,10.384,0,0,1,30.964,59.9m0-18.028a7.657,7.657,0,1,0,7.658,7.658,7.667,7.667,0,0,0-7.658-7.658" transform="translate(14.467 41.216)" fill="#cbcbcb"/>
        <path id="パス_124845" data-name="パス 124845" d="M39.621,68.129a9.014,9.014,0,1,1-9.015-9.015,9.015,9.015,0,0,1,9.015,9.015" transform="translate(14.824 49.406)" fill="#fff"/>
        <path id="パス_124846" data-name="パス 124846" d="M30.964,78.856a10.371,10.371,0,1,1,10.371-10.37,10.384,10.384,0,0,1-10.371,10.37m0-18.028a7.657,7.657,0,1,0,7.658,7.658,7.667,7.667,0,0,0-7.658-7.658" transform="translate(14.467 49.032)" fill="#cbcbcb"/>
        <path id="パス_124849" data-name="パス 124849" d="M168.192,68.129a9.014,9.014,0,1,1-9.015-9.015,9.015,9.015,0,0,1,9.015,9.015" transform="translate(54.182 49.406)" fill="#fff"/>
        <path id="パス_124850" data-name="パス 124850" d="M159.535,78.856a10.371,10.371,0,1,1,10.371-10.37,10.384,10.384,0,0,1-10.371,10.37m0-18.028a7.657,7.657,0,1,0,7.658,7.658,7.667,7.667,0,0,0-7.658-7.658" transform="translate(53.801 35.49)" fill="#cbcbcb"/>
        <line id="線_1010" data-name="線 1010" y2="58.363" transform="translate(59.551 74.41)" fill="#fff"/>
        <rect id="長方形_9017" data-name="長方形 9017" width="2.713" height="58.363" transform="translate(58.193 74.409)" fill="#cbcbcb"/>
        <line id="線_1011" data-name="線 1011" y2="58.363" transform="translate(199.813 74.41)" fill="#fff"/>
        <rect id="長方形_9018" data-name="長方形 9018" width="2.713" height="58.363" transform="translate(198.439 74.409)" fill="#cbcbcb"/>
        <path id="パス_124858" data-name="パス 124858" d="M104.808,132.759H77.381a1.731,1.731,0,1,1,0-3.462h27.427a1.731,1.731,0,0,1,0,3.462" transform="translate(30.664 77.889)" fill="#b0b5cb"/>
        <path id="パス_124859" data-name="パス 124859" d="M133.668,126.784H77.381a1.731,1.731,0,0,1,0-3.462h56.287a1.731,1.731,0,1,1,0,3.462" transform="translate(30.221 75.447)" fill="#b0b5cb"/>
        <path id="パス_124860" data-name="パス 124860" d="M133.668,120.186H77.381a1.731,1.731,0,0,1,0-3.462h56.287a1.731,1.731,0,1,1,0,3.462" transform="translate(30.221 72.752)" fill="#b0b5cb"/>
        <path id="パス_124861" data-name="パス 124861" d="M133.668,113.588H77.381a1.731,1.731,0,0,1,0-3.462h56.287a1.731,1.731,0,1,1,0,3.462" transform="translate(30.221 70.056)" fill="#b0b5cb"/>
        <path id="パス_124862" data-name="パス 124862" d="M122.722,100.65H72.531a1.731,1.731,0,0,1,0-3.462h50.191a1.731,1.731,0,0,1,0,3.462" transform="translate(28.836 64.77)" fill="#b0b5cb"/>
        <path id="パス_124863" data-name="パス 124863" d="M150.945,111.711h-8.066a1.731,1.731,0,1,1,0-3.462h8.066a1.731,1.731,0,0,1,0,3.462" transform="translate(51.502 69.289)" fill="#b0b5cb"/>
        <path id="パス_124864" data-name="パス 124864" d="M169.206,111.711H152.667a1.731,1.731,0,0,1,0-3.462h16.538a1.731,1.731,0,0,1,0,3.462" transform="translate(54.375 69.289)" fill="#b0b5cb"/>
        <path id="パス_124865" data-name="パス 124865" d="M136.67,113.551a1.347,1.347,0,0,1-.974-.414l-2.017-2.082a1.356,1.356,0,1,1,1.948-1.886l.973,1,2.157-2.561a1.357,1.357,0,0,1,2.076,1.749l-3.124,3.71a1.363,1.363,0,0,1-.99.48h-.047" transform="translate(49.109 68.897)" fill="#151b3e"/>
        <path id="パス_124866" data-name="パス 124866" d="M179.813,107.773a.817.817,0,1,1-.818-.818.818.818,0,0,1,.818.818" transform="translate(62.205 68.721)" fill="#cbcbcb"/>
        <path id="パス_124867" data-name="パス 124867" d="M179.813,109.7a.817.817,0,1,1-.818-.818.818.818,0,0,1,.818.818" transform="translate(62.205 69.508)" fill="#cbcbcb"/>
        <path id="パス_124868" data-name="パス 124868" d="M179.813,111.489a.817.817,0,1,1-.818-.818.818.818,0,0,1,.818.818" transform="translate(62.205 70.237)" fill="#cbcbcb"/>
        <line id="線_1015" data-name="線 1015" x2="72.556" transform="translate(174.465 186.247)" fill="#fff"/>
        <path id="パス_124869" data-name="パス 124869" d="M202.5,116.2H129.945a1.357,1.357,0,0,1,0-2.713H202.5a1.357,1.357,0,0,1,0,2.713" transform="translate(44.521 71.413)" fill="#cbcbcb"/>
        <path id="パス_124870" data-name="パス 124870" d="M150.945,121.693h-8.066a1.731,1.731,0,1,1,0-3.462h8.066a1.731,1.731,0,1,1,0,3.462" transform="translate(51.502 73.367)" fill="#b0b5cb"/>
        <path id="パス_124871" data-name="パス 124871" d="M169.206,121.693H152.667a1.731,1.731,0,1,1,0-3.462h16.538a1.731,1.731,0,1,1,0,3.462" transform="translate(54.375 73.367)" fill="#b0b5cb"/>
        <path id="パス_124872" data-name="パス 124872" d="M136.67,123.533a1.347,1.347,0,0,1-.974-.414l-2.017-2.082a1.356,1.356,0,1,1,1.948-1.886l.973,1,2.157-2.561a1.357,1.357,0,0,1,2.076,1.749l-3.124,3.71a1.363,1.363,0,0,1-.99.48h-.047" transform="translate(49.109 72.981)" fill="#151b3e"/>
        <path id="パス_124873" data-name="パス 124873" d="M179.813,117.755a.817.817,0,1,1-.818-.818.818.818,0,0,1,.818.818" transform="translate(62.205 72.796)" fill="#cbcbcb"/>
        <path id="パス_124874" data-name="パス 124874" d="M179.813,119.683a.817.817,0,1,1-.818-.818.818.818,0,0,1,.818.818" transform="translate(62.205 73.582)" fill="#cbcbcb"/>
        <path id="パス_124875" data-name="パス 124875" d="M179.813,121.472a.817.817,0,1,1-.818-.818.817.817,0,0,1,.818.818" transform="translate(62.205 74.313)" fill="#cbcbcb"/>
        <line id="線_1016" data-name="線 1016" x2="72.556" transform="translate(174.465 200.302)" fill="#fff"/>
        <path id="パス_124876" data-name="パス 124876" d="M202.5,126.184H129.945a1.357,1.357,0,0,1,0-2.713H202.5a1.357,1.357,0,0,1,0,2.713" transform="translate(44.521 75.489)" fill="#cbcbcb"/>
        <path id="パス_124877" data-name="パス 124877" d="M212.292,94.958H26.225a9.278,9.278,0,0,1-9.267-9.267V42.771A9.277,9.277,0,0,1,26.225,33.5H212.292a9.277,9.277,0,0,1,9.267,9.267v42.92a9.278,9.278,0,0,1-9.267,9.267M26.225,36.217a6.561,6.561,0,0,0-6.554,6.554v42.92a6.561,6.561,0,0,0,6.554,6.554H212.292a6.561,6.561,0,0,0,6.554-6.554V42.771a6.561,6.561,0,0,0-6.554-6.554Z" transform="translate(13.17 39.299)" fill="#cbcbcb"/>
        <path id="パス_124878" data-name="パス 124878" d="M74.061,121.135l-7.214-2.885a24.367,24.367,0,1,0-.244,9.567l7.536-3.439a1.764,1.764,0,0,0-.077-3.242" transform="translate(13.703 66.216)" fill="#fb7d2e"/>
        <path id="パス_124879" data-name="パス 124879" d="M46.083,112.443H27.316a1.357,1.357,0,1,1,0-2.713H46.083a1.357,1.357,0,1,1,0,2.713" transform="translate(16.381 69.877)" fill="#fff"/>
        <path id="パス_124880" data-name="パス 124880" d="M46.083,117.2H27.316a1.357,1.357,0,1,1,0-2.713H46.083a1.357,1.357,0,1,1,0,2.713" transform="translate(16.381 71.819)" fill="#fff"/>
        <path id="パス_124881" data-name="パス 124881" d="M40.806,122.347H27.315a1.357,1.357,0,1,1,0-2.713H40.806a1.357,1.357,0,1,1,0,2.713" transform="translate(16.381 73.923)" fill="#fff"/>
        <path id="パス_124882" data-name="パス 124882" d="M49.847,122.347H40.5a1.357,1.357,0,1,1,0-2.713h9.351a1.357,1.357,0,1,1,0,2.713" transform="translate(19.426 73.923)" fill="#fff"/>
        <path id="パス_124883" data-name="パス 124883" d="M43.943,128.252a1.356,1.356,0,0,1-1.357-1.357v-9.351a1.357,1.357,0,1,1,2.713,0V126.9a1.356,1.356,0,0,1-1.357,1.357" transform="translate(20.568 72.744)" fill="#fff"/>
        <path id="パス_124884" data-name="パス 124884" d="M129.719,146.465a12.018,12.018,0,1,1,12.018-12.018,12.032,12.032,0,0,1-12.018,12.018m0-19.967a7.948,7.948,0,1,0,7.948,7.948,7.959,7.959,0,0,0-7.948-7.948" transform="translate(43.891 75.642)" fill="#fff"/>
        <path id="パス_124885" data-name="パス 124885" d="M10.5,113.033l4.859,4.333a1.081,1.081,0,0,1,.023,1.591l-4.859,4.6a1.08,1.08,0,0,1-1.822-.784v-8.931a1.08,1.08,0,0,1,1.8-.806" transform="translate(10.225 71.313)" fill="#151b3e"/>
        <path id="パス_124886" data-name="パス 124886" d="M10.133,125.564A2.446,2.446,0,0,1,7.7,123.125V114.2a2.437,2.437,0,0,1,4.058-1.819h0l4.858,4.333a2.435,2.435,0,0,1,.053,3.588l-4.859,4.6a2.436,2.436,0,0,1-1.674.669m.277-10.752v7.67l4.174-3.946Z" transform="translate(9.867 70.968)" fill="#151b3e"/>
        <g id="グループ_56962" data-name="グループ 56962" transform="translate(7.123 91.016)">
          <g id="グループ_56961" data-name="グループ 56961" clip-path="url(#clip-path-2)">
            <path id="パス_124890" data-name="パス 124890" d="M16.416,143.369H7.56A7.788,7.788,0,0,1,0,135.388V53.779A7.788,7.788,0,0,1,7.56,45.8H38.221a1.411,1.411,0,1,1,0,2.822H7.56a4.967,4.967,0,0,0-4.737,5.159v81.61a4.967,4.967,0,0,0,4.737,5.159h8.856a1.411,1.411,0,1,1,0,2.822" transform="translate(0 -45.799)" fill="#151b3e"/>
          </g>
        </g>
        <path id="パス_124891" data-name="パス 124891" d="M139.168,133.912a9.983,9.983,0,1,1-9.983-9.983,9.984,9.984,0,0,1,9.983,9.983" transform="translate(44.441 76.143)" fill="#151b3e"/>
        <path id="パス_124892" data-name="パス 124892" d="M125.783,137.8a1.357,1.357,0,0,1-.944-2.331l2.767-2.685-2.887-2.555a1.357,1.357,0,0,1,1.8-2.032l3.983,3.526a1.358,1.358,0,0,1,.045,1.989l-3.819,3.7a1.353,1.353,0,0,1-.944.383" transform="translate(46.285 77.475)" fill="#fff"/>
        <g id="グループ_56985" data-name="グループ 56985" transform="translate(145.445 89.128)">
          <path id="パス_124895" data-name="パス 124895" d="M116.261,89.266l3.613,17.786a2.565,2.565,0,0,0,4.147,1.466L136.8,97.959a2.565,2.565,0,0,0-.6-4.325l-16.4-7.227a2.565,2.565,0,0,0-3.548,2.858" transform="translate(-116.207 -82.242)" fill="#151b3e"/>
          <path id="パス_124896" data-name="パス 124896" d="M133.512,109.773a2.711,2.711,0,0,1-2.143-1.047L122.948,97.9a2.713,2.713,0,1,1,4.284-3.33l8.419,10.827a2.713,2.713,0,0,1-2.139,4.379" transform="translate(-114.007 -79.626)" fill="#151b3e"/>
          <path id="パス_124897" data-name="パス 124897" d="M134.725,95.27a1.357,1.357,0,0,1-.977-2.3l8.94-9.279a1.357,1.357,0,0,1,1.955,1.883L135.7,94.855a1.355,1.355,0,0,1-.977.415" transform="translate(-110.088 -83.278)" fill="#fb7d2e"/>
          <path id="パス_124898" data-name="パス 124898" d="M150.695,102.562a1.379,1.379,0,0,1-.2-.014l-12.754-1.831a1.357,1.357,0,0,1,.385-2.687l12.755,1.833a1.357,1.357,0,0,1-.191,2.7" transform="translate(-108.942 -78.023)" fill="#fb7d2e"/>
          <path id="パス_124899" data-name="パス 124899" d="M139.226,96.678a1.356,1.356,0,0,1-.438-2.64l12.2-4.157a1.357,1.357,0,1,1,.876,2.568l-12.2,4.155a1.338,1.338,0,0,1-.438.073" transform="translate(-108.483 -80.95)" fill="#fb7d2e"/>
        </g>
      </g>
      <path id="パス_125011" data-name="パス 125011" d="M17.1.684C27.531.684,32.433-6.9,32.433-19.893S27.531-40.47,17.1-40.47,1.767-32.889,1.767-19.893,6.669.684,17.1.684Zm0-7.239c-4.56,0-6.042-3.534-6.042-9.576v-7.524c0-6.042,1.482-9.576,6.042-9.576s6.042,3.534,6.042,9.576v7.524C23.142-10.089,21.66-6.555,17.1-6.555ZM67.26,0V-6.9H58.824V-39.786H45.714l-9.519,12.54,5.472,4.275,8.094-10.6h.513V-6.9H39.558V0Z" transform="translate(15.432 58)" fill="#161d55"/>
    </g>
  </g>
</svg>
