<svg xmlns="http://www.w3.org/2000/svg" xmlns:xlink="http://www.w3.org/1999/xlink" width="400" height="400" viewBox="0 0 400 400">
  <defs>
    <clipPath id="clip-list-column">
      <rect width="400" height="400"/>
    </clipPath>
  </defs>
  <g id="list-column" clip-path="url(#clip-list-column)">
    <g id="グループ_56347" data-name="グループ 56347" transform="translate(-16030.531 8066.039)">
      <path id="パス_104791" data-name="パス 104791" d="M219.99,358.294H64.726A40.9,40.9,0,0,1,23.88,317.423V98.214A40.892,40.892,0,0,1,64.726,57.368H283.935a40.9,40.9,0,0,1,40.871,40.846V239.766a7.5,7.5,0,0,1-15,0V98.214a25.888,25.888,0,0,0-25.871-25.846H64.726A25.875,25.875,0,0,0,38.88,98.214V317.423a25.888,25.888,0,0,0,25.846,25.871H219.99a7.5,7.5,0,0,1,0,15Z" transform="translate(16042.363 -8084.643)" fill="#1a1311"/>
      <path id="線_742" data-name="線 742" d="M7.5,277.133h-15V0h15Z" transform="translate(16174.706 -8017.296)" fill="#707070"/>
      <path id="線_743" data-name="線 743" d="M0,284.633a7.5,7.5,0,0,1-7.5-7.5V0A7.5,7.5,0,0,1,0-7.5,7.5,7.5,0,0,1,7.5,0V277.133A7.5,7.5,0,0,1,0,284.633Z" transform="translate(16174.706 -8017.296)" fill="#1a1311"/>
      <path id="線_744" data-name="線 744" d="M7.5,283.453h-15V0h15Z" transform="translate(16262.733 -8017.296)" fill="#707070"/>
      <path id="線_745" data-name="線 745" d="M0,290.953a7.5,7.5,0,0,1-7.5-7.5V0A7.5,7.5,0,0,1,0-7.5,7.5,7.5,0,0,1,7.5,0V283.453A7.5,7.5,0,0,1,0,290.953Z" transform="translate(16262.733 -8017.296)" fill="#1a1311"/>
      <path id="線_746" data-name="線 746" d="M7.5,119.071h-15V0h15Z" transform="translate(16348.705 -7815.067)" fill="#707070"/>
      <path id="線_747" data-name="線 747" d="M0,126.571a7.5,7.5,0,0,1-7.5-7.5V0A7.5,7.5,0,0,1,0-7.5,7.5,7.5,0,0,1,7.5,0V119.071A7.5,7.5,0,0,1,0,126.571Z" transform="translate(16348.705 -7815.067)" fill="#1a1311"/>
      <path id="線_748" data-name="線 748" d="M113.051,7.5H0v-15H113.051Z" transform="translate(16292.181 -7755.538)" fill="#707070"/>
      <path id="線_749" data-name="線 749" d="M113.051,7.5H0A7.5,7.5,0,0,1-7.5,0,7.5,7.5,0,0,1,0-7.5H113.051a7.5,7.5,0,0,1,7.5,7.5A7.5,7.5,0,0,1,113.051,7.5Z" transform="translate(16292.181 -7755.538)" fill="#1a1311"/>
    </g>
  </g>
</svg>
