<svg xmlns="http://www.w3.org/2000/svg" xmlns:xlink="http://www.w3.org/1999/xlink" width="400" height="400" viewBox="0 0 400 400">
  <defs>
    <clipPath id="clip-list-edit">
      <rect width="400" height="400"/>
    </clipPath>
  </defs>
  <g id="list-edit" clip-path="url(#clip-list-edit)">
    <path id="パス_104788" data-name="パス 104788" d="M284.63,312.255H55.723a32.174,32.174,0,0,1-32.138-32.138V51.21A32.174,32.174,0,0,1,55.723,19.072H188.436a7.5,7.5,0,0,1,0,15H55.723A17.157,17.157,0,0,0,38.585,51.21V280.117a17.157,17.157,0,0,0,17.138,17.138H284.63a17.157,17.157,0,0,0,17.138-17.138V145.655a7.5,7.5,0,1,1,15,0V280.117A32.174,32.174,0,0,1,284.63,312.255Z" transform="translate(11.372 51.211)" fill="#1a1311"/>
    <path id="パス_104789" data-name="パス 104789" d="M34.814,256.139a7.5,7.5,0,0,1-7.332-9.078l15.235-70.8a7.5,7.5,0,0,1,2.068-3.765L199.8,19.758a7.5,7.5,0,0,1,10.606.078L264.641,74.87a7.5,7.5,0,0,1-.078,10.607L109.544,238.212a7.5,7.5,0,0,1-3.6,1.971L36.474,255.953A7.5,7.5,0,0,1,34.814,256.139Zm22.1-74.534-12.29,57.117,55.919-12.694L248.692,80.056l-43.7-44.35Z" transform="translate(98.243 16.933)" fill="#1a1311"/>
  </g>
</svg>
