<svg xmlns="http://www.w3.org/2000/svg" xmlns:xlink="http://www.w3.org/1999/xlink" width="400" height="400" viewBox="0 0 400 400">
  <defs>
    <clipPath id="clip-list-delete">
      <rect width="400" height="400"/>
    </clipPath>
  </defs>
  <g id="list-delete" clip-path="url(#clip-list-delete)">
    <path id="パス_104816" data-name="パス 104816" d="M327.035,7.5H0A7.5,7.5,0,0,1-7.5,0,7.5,7.5,0,0,1,0-7.5H327.035a7.5,7.5,0,0,1,7.5,7.5A7.5,7.5,0,0,1,327.035,7.5Z" transform="translate(36.482 88.269)" fill="#1a1311"/>
    <path id="パス_104786" data-name="パス 104786" d="M36.279,55.639a7.5,7.5,0,0,1-7.5-7.5V4.165a7.5,7.5,0,0,1,7.5-7.5h96a7.5,7.5,0,0,1,7.5,7.5V46.3a7.5,7.5,0,1,1-15,0V11.665h-81V48.139A7.5,7.5,0,0,1,36.279,55.639Z" transform="translate(115.717 37.64)" fill="#1a1311"/>
    <path id="パス_104787" data-name="パス 104787" d="M243.041,279.8H65.823a7.5,7.5,0,0,1-7.445-6.593L25.963,7a7.5,7.5,0,0,1,14.89-1.813L72.465,264.8h163.82L262.959,9.759a7.5,7.5,0,1,1,14.919,1.56L250.5,273.084A7.5,7.5,0,0,1,243.041,279.8Z" transform="translate(44.023 85.891)" fill="#1a1311"/>
  </g>
</svg>
