<svg xmlns="http://www.w3.org/2000/svg" xmlns:xlink="http://www.w3.org/1999/xlink" width="400" height="400" viewBox="0 0 400 400">
  <defs>
    <clipPath id="clip-list-row">
      <rect width="400" height="400"/>
    </clipPath>
  </defs>
  <g id="list-row" clip-path="url(#clip-list-row)">
    <g id="グループ_56346" data-name="グループ 56346" transform="translate(-16033.523 8182.431)">
      <path id="パス_104790" data-name="パス 104790" d="M221.978,336.8H64.437a40.692,40.692,0,0,1-40.646-40.646V78.427A40.679,40.679,0,0,1,64.437,37.806h217.73a40.679,40.679,0,0,1,40.646,40.621V231.9a7.5,7.5,0,0,1-15,0V78.427a25.662,25.662,0,0,0-25.646-25.621H64.437A25.662,25.662,0,0,0,38.791,78.427v217.73A25.675,25.675,0,0,0,64.437,321.8H221.978a7.5,7.5,0,0,1,0,15Z" transform="translate(16041.902 -8186.19)" fill="#1a1311"/>
      <path id="線_734" data-name="線 734" d="M275.263,7.5H0v-15H275.263Z" transform="translate(16075.667 -8040.604)" fill="#707070"/>
      <path id="線_735" data-name="線 735" d="M275.263,7.5H0A7.5,7.5,0,0,1-7.5,0,7.5,7.5,0,0,1,0-7.5H275.263a7.5,7.5,0,0,1,7.5,7.5A7.5,7.5,0,0,1,275.263,7.5Z" transform="translate(16075.667 -8040.604)" fill="#1a1311"/>
      <path id="線_736" data-name="線 736" d="M281.565,7.5H0v-15H281.565Z" transform="translate(16075.667 -7953.168)" fill="#707070"/>
      <path id="線_737" data-name="線 737" d="M281.565,7.5H0A7.5,7.5,0,0,1-7.5,0,7.5,7.5,0,0,1,0-7.5H281.565a7.5,7.5,0,0,1,7.5,7.5A7.5,7.5,0,0,1,281.565,7.5Z" transform="translate(16075.667 -7953.168)" fill="#1a1311"/>
      <path id="線_738" data-name="線 738" d="M118.268,7.5H0v-15H118.268Z" transform="translate(16290.304 -7868.534)" fill="#707070"/>
      <path id="線_739" data-name="線 739" d="M118.268,7.5H0A7.5,7.5,0,0,1-7.5,0,7.5,7.5,0,0,1,0-7.5H118.268a7.5,7.5,0,0,1,7.5,7.5A7.5,7.5,0,0,1,118.268,7.5Z" transform="translate(16290.304 -7868.534)" fill="#1a1311"/>
      <path id="線_740" data-name="線 740" d="M7.5,112.289h-15V0h15Z" transform="translate(16349.434 -7924.676)" fill="#707070"/>
      <path id="線_741" data-name="線 741" d="M0,119.789a7.5,7.5,0,0,1-7.5-7.5V0A7.5,7.5,0,0,1,0-7.5,7.5,7.5,0,0,1,7.5,0V112.289A7.5,7.5,0,0,1,0,119.789Z" transform="translate(16349.434 -7924.676)" fill="#1a1311"/>
    </g>
  </g>
</svg>
