<svg xmlns="http://www.w3.org/2000/svg" xmlns:xlink="http://www.w3.org/1999/xlink" width="400" height="400" viewBox="0 0 400 400">
  <defs>
    <clipPath id="clip-modal-family">
      <rect width="400" height="400"/>
    </clipPath>
  </defs>
  <g id="modal-family" clip-path="url(#clip-modal-family)">
    <g id="グループ_56354" data-name="グループ 56354" transform="translate(-17857.666 7917.333)">
      <path id="パス_104792" data-name="パス 104792" d="M44.723,102.591a38.34,38.34,0,1,1-38.36,38.34A38.384,38.384,0,0,1,44.723,102.591Zm0,61.681a23.34,23.34,0,1,0-23.36-23.341A23.367,23.367,0,0,0,44.723,164.272Z" transform="translate(18117.52 -7999.887)" fill="#1a1311"/>
      <path id="パス_104793" data-name="パス 104793" d="M13.146,159.794a7.5,7.5,0,0,1-7.438-8.465c1.96-15.113,15.928-43.824,54.767-44.319,35.647-.014,51.914,27.451,55.673,41.969A7.5,7.5,0,0,1,109,158.358l-95.741,1.435ZM61.357,122c-24.2.306-34.173,13.482-38.188,22.638l74.525-1.117C92.633,134.463,81.934,122,61.357,122Z" transform="translate(18104.326 -7918.691)" fill="#1a1311"/>
      <path id="パス_104794" data-name="パス 104794" d="M39.025,114.178a38.34,38.34,0,1,1-38.36,38.34A38.384,38.384,0,0,1,39.025,114.178Zm0,61.681a23.34,23.34,0,1,0-23.36-23.341A23.367,23.367,0,0,0,39.025,175.859Z" transform="translate(18012.695 -7786.726)" fill="#1a1311"/>
      <path id="パス_104795" data-name="パス 104795" d="M7.448,169.864a7.5,7.5,0,0,1-7.432-8.505c1.971-14.57,15.952-42.25,54.765-42.727,35.56.03,51.877,26.425,55.65,40.4a7.5,7.5,0,0,1-7.133,9.454L7.556,169.864Zm48.213-36.238c-23.524.286-33.642,12.389-37.881,21.088l73.941-1.064C86.546,145.057,75.865,133.627,55.661,133.627Z" transform="translate(17999.504 -7704.886)" fill="#1a1311"/>
      <path id="パス_104796" data-name="パス 104796" d="M33.62,102.591a38.34,38.34,0,1,1-38.36,38.34A38.384,38.384,0,0,1,33.62,102.591Zm0,61.681a23.34,23.34,0,1,0-23.36-23.341A23.367,23.367,0,0,0,33.62,164.272Z" transform="translate(17913.26 -7999.887)" fill="#1a1311"/>
      <path id="パス_104797" data-name="パス 104797" d="M2.043,159.794a7.5,7.5,0,0,1-7.438-8.465c1.96-15.113,15.928-43.824,54.767-44.319C85,107,101.286,134.461,105.045,148.979a7.5,7.5,0,0,1-7.148,9.379L2.155,159.793ZM50.254,122c-23.939.3-33.991,13.469-38.093,22.637l74.43-1.116C81.53,134.463,70.831,122,50.254,122Z" transform="translate(17900.074 -7918.691)" fill="#1a1311"/>
      <path id="パス_104798" data-name="パス 104798" d="M214.527,158.033H4.579a7.5,7.5,0,0,1-7.5-7.5V116.764a7.5,7.5,0,0,1,15,0v26.269H207.027V116.764a7.5,7.5,0,0,1,15,0v33.769A7.5,7.5,0,0,1,214.527,158.033Z" transform="translate(17946.734 -7877.131)" fill="#1a1311"/>
      <path id="線_750" data-name="線 750" d="M7.5,29.521h-15V0h15Z" transform="translate(18051.719 -7720.517)" fill="#707070"/>
      <path id="線_751" data-name="線 751" d="M0,37.021a7.5,7.5,0,0,1-7.5-7.5V0A7.5,7.5,0,0,1,0-7.5,7.5,7.5,0,0,1,7.5,0V29.521A7.5,7.5,0,0,1,0,37.021Z" transform="translate(18051.719 -7720.517)" fill="#1a1311"/>
    </g>
  </g>
</svg>
