<svg xmlns="http://www.w3.org/2000/svg" xmlns:xlink="http://www.w3.org/1999/xlink" width="400" height="400" viewBox="0 0 400 400">
  <defs>
    <clipPath id="clip-modal-phenotype">
      <rect width="400" height="400"/>
    </clipPath>
  </defs>
  <g id="modal-phenotype" clip-path="url(#clip-modal-phenotype)">
    <g id="グループ_56352" data-name="グループ 56352" transform="translate(-17884.994 8209.294)">
      <path id="パス_104809" data-name="パス 104809" d="M155.168,180.924H4.187a7.5,7.5,0,0,1-7.5-7.5V71.47a7.5,7.5,0,0,1,7.5-7.5h273.3a7.5,7.5,0,0,1,7.5,7.5v45.171a7.5,7.5,0,0,1-15,0V78.97H11.687v86.954H155.168a7.5,7.5,0,1,1,0,15Z" transform="translate(17911.201 -8200.369)" fill="#1a1311"/>
      <path id="パス_104810" data-name="パス 104810" d="M277.487,187.26H4.187a7.5,7.5,0,0,1-7.5-7.5V77.806a7.5,7.5,0,0,1,7.5-7.5H158.331a7.5,7.5,0,0,1,0,15H11.687V172.26h258.3V126.118a7.5,7.5,0,0,1,15,0V179.76A7.5,7.5,0,0,1,277.487,187.26Z" transform="translate(17911.201 -8069.45)" fill="#1a1311"/>
      <path id="パス_104811" data-name="パス 104811" d="M90.413,238.959A86.663,86.663,0,1,1,177.075,152.3,86.772,86.772,0,0,1,90.413,238.959Zm0-158.326A71.663,71.663,0,1,0,162.075,152.3,71.755,71.755,0,0,0,90.413,80.633Z" transform="translate(18056.703 -8166.009)" fill="#1a1311"/>
      <path id="線_764" data-name="線 764" d="M41.311,41.817a7.469,7.469,0,0,1-4.788-1.731L-4.792,5.769A7.5,7.5,0,0,1-5.769-4.792,7.5,7.5,0,0,1,4.792-5.769L46.107,28.548a7.5,7.5,0,0,1-4.8,13.27Z" transform="translate(18213.287 -7964.646)" fill="#1a1311"/>
    </g>
  </g>
</svg>
