<svg xmlns="http://www.w3.org/2000/svg" xmlns:xlink="http://www.w3.org/1999/xlink" width="400" height="400" viewBox="0 0 400 400">
  <defs>
    <clipPath id="clip-modal-gene">
      <rect width="400" height="400"/>
    </clipPath>
  </defs>
  <g id="modal-gene" clip-path="url(#clip-modal-gene)">
    <g id="グループ_56353" data-name="グループ 56353" transform="translate(-17937.791 8070.952)">
      <path id="パス_104799" data-name="パス 104799" d="M139.026,340.834a7.471,7.471,0,0,1-4.949-1.867L64.162,277.506c-30.972-27.76-45.648-52.94-44.921-77.028,1.107-36.658,36.57-64.777,77.633-97.335,7.717-6.118,15.652-12.41,23.606-18.955a7.5,7.5,0,1,1,9.531,11.583c-8.025,6.6-16.032,12.952-23.818,19.126-38.131,30.234-71.063,56.345-71.959,86.034-.586,19.4,12.461,40.777,39.885,65.357L143.981,327.7a7.5,7.5,0,0,1-4.955,13.133Z" transform="translate(18028.152 -8040.514)" fill="#1a1311"/>
      <path id="パス_104800" data-name="パス 104800" d="M33.038,155.317a7.5,7.5,0,0,1-5.682-12.392C48.282,118.6,51.435,99.342,51.844,85.28a7.5,7.5,0,1,1,14.994.436C66.394,100.964,63,124.5,38.726,152.708A7.483,7.483,0,0,1,33.038,155.317Z" transform="translate(18150.986 -8127.551)" fill="#1a1311"/>
      <path id="パス_104801" data-name="パス 104801" d="M27.18,152.558a7.507,7.507,0,0,1-7.4-8.8c2.61-14.861,12.4-30.428,30.812-48.988a7.5,7.5,0,1,1,10.649,10.564c-15.931,16.06-24.66,29.477-26.688,41.019A7.5,7.5,0,0,1,27.18,152.558Z" transform="translate(18036.992 -7844.907)" fill="#1a1311"/>
      <path id="パス_104802" data-name="パス 104802" d="M66.342,358.487A7.5,7.5,0,0,1,61.5,345.26l10.542-8.871c27.991-23.5,54.43-45.7,70.334-70,30.4-46.43-18.389-85.559-20.481-87.2-46.552-36.523-79.914-66.337-99.166-88.621a7.5,7.5,0,1,1,11.351-9.806c18.622,21.555,51.281,50.7,97.068,86.621,21.507,16.774,54.18,60.791,23.78,107.224-17.115,26.153-44.377,49.041-73.239,73.273l-10.5,8.838A7.471,7.471,0,0,1,66.342,358.487Z" transform="translate(18060.863 -8124.365)" fill="#1a1311"/>
      <path id="線_752" data-name="線 752" d="M73.978,7.5H0A7.5,7.5,0,0,1-7.5,0,7.5,7.5,0,0,1,0-7.5H73.978a7.5,7.5,0,0,1,7.5,7.5A7.5,7.5,0,0,1,73.978,7.5Z" transform="translate(18129.924 -7929.416)" fill="#1a1311"/>
      <path id="線_753" data-name="線 753" d="M87.659,7.5H0A7.5,7.5,0,0,1-7.5,0,7.5,7.5,0,0,1,0-7.5H87.659a7.5,7.5,0,0,1,7.5,7.5A7.5,7.5,0,0,1,87.659,7.5Z" transform="translate(18115.334 -8011.811)" fill="#1a1311"/>
      <path id="線_754" data-name="線 754" d="M133.582,7.5H0A7.5,7.5,0,0,1-7.5,0,7.5,7.5,0,0,1,0-7.5H133.582a7.5,7.5,0,0,1,7.5,7.5A7.5,7.5,0,0,1,133.582,7.5Z" transform="translate(18083.434 -7892.526)" fill="#1a1311"/>
      <path id="線_755" data-name="線 755" d="M142.586,7.5H0A7.5,7.5,0,0,1-7.5,0,7.5,7.5,0,0,1,0-7.5H142.586a7.5,7.5,0,0,1,7.5,7.5A7.5,7.5,0,0,1,142.586,7.5Z" transform="translate(18059.24 -7849.392)" fill="#1a1311"/>
      <path id="線_756" data-name="線 756" d="M90.8,7.5H0A7.5,7.5,0,0,1-7.5,0,7.5,7.5,0,0,1,0-7.5H90.8A7.5,7.5,0,0,1,98.3,0,7.5,7.5,0,0,1,90.8,7.5Z" transform="translate(18068.883 -7802.854)" fill="#1a1311"/>
      <path id="線_757" data-name="線 757" d="M65.361,7.5H0A7.5,7.5,0,0,1-7.5,0,7.5,7.5,0,0,1,0-7.5H65.361a7.5,7.5,0,0,1,7.5,7.5A7.5,7.5,0,0,1,65.361,7.5Z" transform="translate(18077.785 -7726.552)" fill="#1a1311"/>
    </g>
  </g>
</svg>
