<svg xmlns="http://www.w3.org/2000/svg" xmlns:xlink="http://www.w3.org/1999/xlink" width="400" height="400" viewBox="0 0 400 400">
  <defs>
    <clipPath id="clip-modal-medical">
      <rect width="400" height="400"/>
    </clipPath>
  </defs>
  <g id="modal-medical" clip-path="url(#clip-modal-medical)">
    <g id="グループ_56351" data-name="グループ 56351" transform="translate(-17868.184 8325.286)">
      <path id="パス_104806" data-name="パス 104806" d="M98.131,219.875A96.945,96.945,0,0,1,1.284,123.051V45.617a7.5,7.5,0,0,1,7.5-7.5H53.032a7.5,7.5,0,0,1,0,15H16.284v69.934a81.836,81.836,0,0,0,163.671,0V53.117H142.827a7.5,7.5,0,0,1,0-15h44.629a7.5,7.5,0,0,1,7.5,7.5v77.434A96.934,96.934,0,0,1,98.131,219.875Z" transform="translate(18031.711 -8310.629)" fill="#1a1311"/>
      <path id="線_760" data-name="線 760" d="M7.5,63.685h-15V0h15Z" transform="translate(18084.734 -8298.107)" fill="#707070"/>
      <path id="線_761" data-name="線 761" d="M0,71.185a7.5,7.5,0,0,1-7.5-7.5V0A7.5,7.5,0,0,1,0-7.5,7.5,7.5,0,0,1,7.5,0V63.685A7.5,7.5,0,0,1,0,71.185Z" transform="translate(18084.734 -8298.107)" fill="#1a1311"/>
      <path id="線_762" data-name="線 762" d="M7.5,63.685h-15V0h15Z" transform="translate(18170.326 -8298.107)" fill="#707070"/>
      <path id="線_763" data-name="線 763" d="M0,71.185a7.5,7.5,0,0,1-7.5-7.5V0A7.5,7.5,0,0,1,0-7.5,7.5,7.5,0,0,1,7.5,0V63.685A7.5,7.5,0,0,1,0,71.185Z" transform="translate(18170.326 -8298.107)" fill="#1a1311"/>
      <path id="パス_104807" data-name="パス 104807" d="M50.2,42.212A54.861,54.861,0,1,1-4.681,97.072,54.923,54.923,0,0,1,50.2,42.212Zm0,94.721A39.861,39.861,0,1,0,10.319,97.072,39.906,39.906,0,0,0,50.2,136.933Z" transform="translate(17904.104 -8223.027)" fill="#1a1311"/>
      <path id="パス_104808" data-name="パス 104808" d="M94.992,193.818c-53.9,0-97.742-46.549-97.742-103.766l.562-22.136a7.5,7.5,0,1,1,15,.383l-.56,21.945c0,48.755,37.121,88.575,82.745,88.575S177.735,139,177.735,90.052V53.373a7.5,7.5,0,0,1,15,0V90.052C192.735,147.269,148.888,193.818,94.992,193.818Z" transform="translate(17945.41 -8144.707)" fill="#1a1311"/>
    </g>
  </g>
</svg>
