<svg xmlns="http://www.w3.org/2000/svg" xmlns:xlink="http://www.w3.org/1999/xlink" width="400" height="400" viewBox="0 0 400 400">
  <defs>
    <clipPath id="clip-modal-patient">
      <rect width="400" height="400"/>
    </clipPath>
  </defs>
  <g id="modal-patient" clip-path="url(#clip-modal-patient)">
    <g id="グループ_56349" data-name="グループ 56349" transform="translate(-13348.372 7933.184)">
      <path id="長方形_8102" data-name="長方形 8102" d="M.565-7.5H322.7A8.5,8.5,0,0,1,330.767.565V322.7a8.5,8.5,0,0,1-8.065,8.065H.565A8.5,8.5,0,0,1-7.5,322.7V.565A8.5,8.5,0,0,1,.565-7.5Zm315.2,15H7.5V315.767H315.767Z" transform="translate(13386.738 -7894.243)" fill="#1a1311"/>
      <path id="楕円形_427" data-name="楕円形 427" d="M66.691-7.5A74.191,74.191,0,1,1-7.5,66.691,74.275,74.275,0,0,1,66.691-7.5Zm0,133.382A59.191,59.191,0,1,0,7.5,66.691,59.258,59.258,0,0,0,66.691,125.882Z" transform="translate(13474.976 -7836.997)" fill="#1a1311"/>
      <path id="パス_104805" data-name="パス 104805" d="M5.894,119.208a7.571,7.571,0,0,1-.791-.042,7.5,7.5,0,0,1-6.677-8.228c.111-1.072,12.244-107.19,109.868-108.773C197.309.734,220,105.282,220.214,106.338a7.5,7.5,0,0,1-14.687,3.05c-.8-3.816-20.44-93.455-96.993-92.223C24.3,18.53,13.752,108.66,13.344,112.5A7.506,7.506,0,0,1,5.894,119.208Z" transform="translate(13439.015 -7685.48)" fill="#1a1311"/>
    </g>
  </g>
</svg>
