<svg xmlns="http://www.w3.org/2000/svg" xmlns:xlink="http://www.w3.org/1999/xlink" width="400" height="400" viewBox="0 0 400 400">
  <defs>
    <clipPath id="clip-slider-stats">
      <rect width="400" height="400"/>
    </clipPath>
  </defs>
  <g id="slider-stats" clip-path="url(#clip-slider-stats)">
    <g id="グループ_56342" data-name="グループ 56342" transform="translate(-102.951 -102.562)">
      <path id="パス_104781" data-name="パス 104781" d="M55.442,104.593a7.5,7.5,0,0,1-2.424-14.6,111.133,111.133,0,0,0,24.229-11.73A7.5,7.5,0,1,1,85.37,90.874a126.148,126.148,0,0,1-27.5,13.314A7.492,7.492,0,0,1,55.442,104.593Z" transform="translate(234.84 279.38)" fill="#1a1311"/>
      <path id="パス_104782" data-name="パス 104782" d="M148.922,317.364a7.562,7.562,0,0,1-1.067-.076C85.736,308.441,38.893,254.371,38.893,191.517a127.036,127.036,0,0,1,254.072,0c0,2.727-.075,5.417-.242,8.107a7.5,7.5,0,1,1-14.971-.929c.148-2.382.213-4.763.213-7.178a112.036,112.036,0,0,0-224.072,0c0,55.435,41.3,103.12,96.077,110.922a7.5,7.5,0,0,1-1.048,14.926Z" transform="translate(85.615 71.816)" fill="#1a1311"/>
      <path id="パス_104783" data-name="パス 104783" d="M118.21,243.7a7.464,7.464,0,0,1-4.243-1.321L48.979,197.7a7.5,7.5,0,0,1-3.251-6.18V71.982a7.5,7.5,0,0,1,15,0V187.572l61.738,42.449A7.5,7.5,0,0,1,118.21,243.7Z" transform="translate(198.315 71.829)" fill="#1a1311"/>
      <path id="線_732" data-name="線 732" d="M0,39.3a7.5,7.5,0,0,1-7.227-5.512A7.5,7.5,0,0,1-1.99,24.564L113.523-7.231a7.5,7.5,0,0,1,9.221,5.241A7.5,7.5,0,0,1,117.5,7.231L1.99,39.026A7.509,7.509,0,0,1,0,39.3Z" transform="translate(136.024 263.353)" fill="#1a1311"/>
      <path id="長方形_8097" data-name="長方形 8097" d="M0-7.5H52.851a7.5,7.5,0,0,1,7.5,7.5V125.15a7.5,7.5,0,0,1-7.5,7.5H0a7.5,7.5,0,0,1-7.5-7.5V0A7.5,7.5,0,0,1,0-7.5Zm45.351,15H7.5V117.65H45.351Z" transform="translate(236.4 336.176)" fill="#1a1311"/>
      <path id="長方形_8098" data-name="長方形 8098" d="M0-7.5H52.851a7.5,7.5,0,0,1,7.5,7.5V189.788a7.5,7.5,0,0,1-7.5,7.5H0a7.5,7.5,0,0,1-7.5-7.5V0A7.5,7.5,0,0,1,0-7.5Zm45.351,15H7.5V182.288H45.351Z" transform="translate(317.145 271.538)" fill="#1a1311"/>
      <path id="長方形_8099" data-name="長方形 8099" d="M-7.5-7.5H60.351V255.141H-7.5Zm52.851,15H7.5V240.141H45.351Z" transform="translate(397.891 213.683)" fill="#1a1311"/>
    </g>
  </g>
</svg>
