<svg xmlns="http://www.w3.org/2000/svg" xmlns:xlink="http://www.w3.org/1999/xlink" width="400" height="400" viewBox="0 0 400 400">
  <defs>
    <clipPath id="clip-slider-open">
      <rect width="400" height="400"/>
    </clipPath>
  </defs>
  <g id="slider-open" clip-path="url(#clip-slider-open)">
    <g id="グループ_56344" data-name="グループ 56344" transform="translate(-13353.561 7755.933)">
      <path id="パス_104780" data-name="パス 104780" d="M317.362,293.276H49.111a7.5,7.5,0,0,1-7.031-10.11L107.1,108.007a7.5,7.5,0,0,1,7.031-4.89h115.25a7.5,7.5,0,0,1,6.66,4.052L255.8,145.345H359.067a22.029,22.029,0,0,1,19.79,31.729l-54.758,112A7.5,7.5,0,0,1,317.362,293.276Zm-257.466-15H312.68l52.705-107.8a7.029,7.029,0,0,0-6.318-10.133H251.241a7.5,7.5,0,0,1-6.66-4.052l-19.762-38.176H119.347Z" transform="translate(13342.191 -7706.449)" fill="#1a1311"/>
      <path id="パス_104784" data-name="パス 104784" d="M49.111,325.049a7.5,7.5,0,0,1-7.5-7.5V108.817a7.5,7.5,0,0,1,7.5-7.5H98.333a7.5,7.5,0,0,1,0,15H56.611V317.549A7.5,7.5,0,0,1,49.111,325.049Z" transform="translate(13342.193 -7738.23)" fill="#1a1311"/>
      <path id="パス_104785" data-name="パス 104785" d="M51.778,249.61a7.5,7.5,0,0,1-7.5-7.5V105.5a7.5,7.5,0,0,1,7.5-7.5H260.7a7.5,7.5,0,0,1,7.5,7.5V239.051a7.5,7.5,0,0,1-15,0V113H59.278V242.11A7.5,7.5,0,0,1,51.778,249.61Z" transform="translate(13389.259 -7796.697)" fill="#1a1311"/>
    </g>
  </g>
</svg>
