<svg xmlns="http://www.w3.org/2000/svg" xmlns:xlink="http://www.w3.org/1999/xlink" width="400" height="400" viewBox="0 0 400 400">
  <defs>
    <clipPath id="clip-slider-bond">
      <rect width="400" height="400"/>
    </clipPath>
  </defs>
  <g id="slider-bond" clip-path="url(#clip-slider-bond)">
    <g id="グループ_56345" data-name="グループ 56345" transform="translate(-13083.715 8269.751)">
      <path id="パス_104812" data-name="パス 104812" d="M155.759,301.29H4a7.5,7.5,0,0,1-7.5-7.5V22.444a7.5,7.5,0,0,1,7.5-7.5H155.759a7.5,7.5,0,0,1,7.5,7.5V85.411a7.5,7.5,0,0,1-15,0V29.944H11.5V286.29H148.259V219.263a7.5,7.5,0,0,1,15,0V293.79A7.5,7.5,0,0,1,155.759,301.29Z" transform="translate(13108.021 -8227.867)" fill="#1a1311"/>
      <path id="パス_104813" data-name="パス 104813" d="M164.545,301.29H12.787a7.5,7.5,0,0,1-7.5-7.5V219.263a7.5,7.5,0,1,1,15,0V286.29H157.045V29.944H20.287V85.411a7.5,7.5,0,1,1-15,0V22.444a7.5,7.5,0,0,1,7.5-7.5H164.545a7.5,7.5,0,0,1,7.5,7.5V293.79A7.5,7.5,0,0,1,164.545,301.29Z" transform="translate(13290.862 -8227.867)" fill="#1a1311"/>
      <path id="線_769" data-name="線 769" d="M99.827,7.5H0A7.5,7.5,0,0,1-7.5,0,7.5,7.5,0,0,1,0-7.5H99.827a7.5,7.5,0,0,1,7.5,7.5A7.5,7.5,0,0,1,99.827,7.5Z" transform="translate(13163.408 -8069.746)" fill="#1a1311"/>
      <path id="パス_104814" data-name="パス 104814" d="M9.458,110.965A7.5,7.5,0,0,1,4.209,98.107L38.492,64.522,6.183,32.213A7.5,7.5,0,1,1,16.79,21.606L54.457,59.273A7.5,7.5,0,0,1,54.4,69.934l-39.7,38.888A7.476,7.476,0,0,1,9.458,110.965Z" transform="translate(13221.591 -8134.93)" fill="#1a1311"/>
      <path id="線_770" data-name="線 770" d="M99.827,7.5H0A7.5,7.5,0,0,1-7.5,0,7.5,7.5,0,0,1,0-7.5H99.827a7.5,7.5,0,0,1,7.5,7.5A7.5,7.5,0,0,1,99.827,7.5Z" transform="translate(13312.383 -8069.746)" fill="#1a1311"/>
      <path id="パス_104815" data-name="パス 104815" d="M50.51,110.965a7.475,7.475,0,0,1-5.3-2.2L7.539,71.1A7.5,7.5,0,0,1,7.594,60.44l39.7-38.888a7.5,7.5,0,1,1,10.5,10.715L23.5,65.852,55.813,98.161a7.5,7.5,0,0,1-5.3,12.8Z" transform="translate(13292.033 -8134.938)" fill="#1a1311"/>
    </g>
  </g>
</svg>
