<svg xmlns="http://www.w3.org/2000/svg" xmlns:xlink="http://www.w3.org/1999/xlink" width="400" height="400" viewBox="0 0 400 400">
  <defs>
    <clipPath id="clip-slider-save">
      <rect width="400" height="400"/>
    </clipPath>
  </defs>
  <g id="slider-save" clip-path="url(#clip-slider-save)">
    <g id="グループ_56343" data-name="グループ 56343" transform="translate(-13069.447 7859.351)">
      <path id="長方形_8100" data-name="長方形 8100" d="M0-7.5H292.325a7.5,7.5,0,0,1,7.5,7.5V196.274a7.5,7.5,0,0,1-7.5,7.5H0a7.5,7.5,0,0,1-7.5-7.5V0A7.5,7.5,0,0,1,0-7.5Zm284.825,15H7.5V188.774H284.825Z" transform="translate(13123.273 -7791.149)" fill="#1a1311"/>
      <path id="長方形_8101" data-name="長方形 8101" d="M0-7.5H241.12a7.5,7.5,0,0,1,7.5,7.5V143.745a7.5,7.5,0,0,1-7.5,7.5H0a7.5,7.5,0,0,1-7.5-7.5V0A7.5,7.5,0,0,1,0-7.5Zm233.62,15H7.5V136.245H233.62Z" transform="translate(13148.876 -7764.903)" fill="#1a1311"/>
      <path id="線_758" data-name="線 758" d="M0,67.16A7.469,7.469,0,0,1-4.8,65.426a7.5,7.5,0,0,1-.972-10.562L43.839-4.8A7.5,7.5,0,0,1,54.4-5.767,7.5,7.5,0,0,1,55.373,4.8L5.767,64.455A7.485,7.485,0,0,1,0,67.16Z" transform="translate(13306.536 -7683.387)" fill="#1a1311"/>
      <path id="線_759" data-name="線 759" d="M0,37.642A7.469,7.469,0,0,1-4.8,35.9,7.5,7.5,0,0,1-5.761,25.34L19.364-4.8a7.5,7.5,0,0,1,10.563-.959A7.5,7.5,0,0,1,30.886,4.8L5.761,34.944A7.485,7.485,0,0,1,0,37.642Z" transform="translate(13339.18 -7653.874)" fill="#1a1311"/>
      <path id="パス_104803" data-name="パス 104803" d="M347.7,178.616H12.789A19.9,19.9,0,0,1-3.265,146.969l34.812-47.6a7.5,7.5,0,1,1,12.108,8.854l-34.811,47.6a4.9,4.9,0,0,0,3.944,7.794H347.7a4.893,4.893,0,0,0,4.222-7.371L316.825,104a7.5,7.5,0,1,1,12.453-8.362l35.344,52.639A19.884,19.884,0,0,1,347.7,178.616Z" transform="translate(13089.203 -7698.668)" fill="#1a1311"/>
      <path id="パス_104804" data-name="パス 104804" d="M21.353,93.552h0l103.954.018a7.5,7.5,0,0,1,6.527,3.808l15.053,26.613a7.5,7.5,0,0,1-6.528,11.192H6.521A7.5,7.5,0,0,1-.032,124.034L14.8,97.4A7.5,7.5,0,0,1,21.353,93.552Zm99.579,15.018-95.172-.017-6.478,11.631H127.5Z" transform="translate(13195.998 -7677.292)" fill="#1a1311"/>
    </g>
  </g>
</svg>
