<svg xmlns="http://www.w3.org/2000/svg" xmlns:xlink="http://www.w3.org/1999/xlink" width="400" height="400" viewBox="0 0 400 400">
  <defs>
    <clipPath id="clip-slider-patient">
      <rect width="400" height="400"/>
    </clipPath>
  </defs>
  <g id="slider-patient" clip-path="url(#clip-slider-patient)">
    <g id="グループ_56341" data-name="グループ 56341" transform="translate(-13361.026 7949.583)">
      <path id="長方形_8102" data-name="長方形 8102" d="M.565-7.5H288.849A8.5,8.5,0,0,1,296.914.565V288.849a8.5,8.5,0,0,1-8.065,8.065H.565A8.5,8.5,0,0,1-7.5,288.849V.565A8.5,8.5,0,0,1,.565-7.5Zm281.349,15H7.5V281.914H281.914Z" transform="translate(13386.738 -7893.57)" fill="#1a1311"/>
      <path id="楕円形_427" data-name="楕円形 427" d="M59.707-7.5A67.207,67.207,0,1,1-7.5,59.707,67.283,67.283,0,0,1,59.707-7.5Zm0,119.414A52.207,52.207,0,1,0,7.5,59.707,52.266,52.266,0,0,0,59.707,111.914Z" transform="translate(13465.735 -7842.319)" fill="#1a1311"/>
      <path id="パス_104805" data-name="パス 104805" d="M5.893,108.52a7.572,7.572,0,0,1-.792-.042,7.5,7.5,0,0,1-6.676-8.227c.1-.966,11.042-96.658,99.131-98.086C177.893.872,198.342,95.1,198.539,96.054A7.5,7.5,0,0,1,183.852,99.1c-.71-3.391-18.179-83.033-86.054-81.941C23.1,18.374,13.707,98.4,13.344,101.809A7.507,7.507,0,0,1,5.893,108.52Z" transform="translate(13432.924 -7707.68)" fill="#1a1311"/>
      <path id="線_765" data-name="線 765" d="M0,304.44a7.5,7.5,0,0,1-7.5-7.5V0A7.5,7.5,0,0,1,0-7.5,7.5,7.5,0,0,1,7.5,0V296.94A7.5,7.5,0,0,1,0,304.44Z" transform="translate(13703.844 -7898.053)" fill="#707070"/>
      <path id="線_766" data-name="線 766" d="M0,304.44a7.5,7.5,0,0,1-7.5-7.5V0A7.5,7.5,0,0,1,0-7.5,7.5,7.5,0,0,1,7.5,0V296.94A7.5,7.5,0,0,1,0,304.44Z" transform="translate(13703.844 -7898.053)" fill="#1a1311"/>
      <path id="線_767" data-name="線 767" d="M0,304.44a7.5,7.5,0,0,1-7.5-7.5V0A7.5,7.5,0,0,1,0-7.5,7.5,7.5,0,0,1,7.5,0V296.94A7.5,7.5,0,0,1,0,304.44Z" transform="translate(13733.315 -7898.053)" fill="#707070"/>
      <path id="線_768" data-name="線 768" d="M0,304.44a7.5,7.5,0,0,1-7.5-7.5V0A7.5,7.5,0,0,1,0-7.5,7.5,7.5,0,0,1,7.5,0V296.94A7.5,7.5,0,0,1,0,304.44Z" transform="translate(13733.315 -7898.053)" fill="#1a1311"/>
    </g>
  </g>
</svg>
